<?xml version="1.0" encoding="utf-8" standalone="no"?>
<!DOCTYPE svg PUBLIC "-//W3C//DTD SVG 1.1//EN"
  "http://www.w3.org/Graphics/SVG/1.1/DTD/svg11.dtd">
<svg xmlns:xlink="http://www.w3.org/1999/xlink" width="1000.158125pt" height="330.541644pt" viewBox="0 0 1000.158125 330.541644" xmlns="http://www.w3.org/2000/svg" version="1.1">
 <metadata>
  <rdf:RDF xmlns:dc="http://purl.org/dc/elements/1.1/" xmlns:cc="http://creativecommons.org/ns#" xmlns:rdf="http://www.w3.org/1999/02/22-rdf-syntax-ns#">
   <cc:Work>
    <dc:type rdf:resource="http://purl.org/dc/dcmitype/StillImage"/>
    <dc:date>2024-01-11T23:20:32.590143</dc:date>
    <dc:format>image/svg+xml</dc:format>
    <dc:creator>
     <cc:Agent>
      <dc:title>Matplotlib v3.6.2, https://matplotlib.org/</dc:title>
     </cc:Agent>
    </dc:creator>
   </cc:Work>
  </rdf:RDF>
 </metadata>
 <defs>
  <style type="text/css">*{stroke-linejoin: round; stroke-linecap: butt}</style>
 </defs>
 <g id="figure_1">
  <g id="axes_1">
   <g id="patch_1">
    <path d="M 53.328125 273.99006 
L 987.868125 273.99006 
L 987.868125 31.48286 
L 53.328125 31.48286 
z
" style="fill: #ffffff"/>
   </g>
   <g id="matplotlib.axis_1">
    <g id="xtick_1">
     <g id="text_1">
      <!-- 10 -->
      <g transform="translate(133.196307 287.06881) scale(0.08 -0.08)">
       <defs>
        <path id="DejaVuSans-31" d="M 794 531 
L 1825 531 
L 1825 4091 
L 703 3866 
L 703 4441 
L 1819 4666 
L 2450 4666 
L 2450 531 
L 3481 531 
L 3481 0 
L 794 0 
L 794 531 
z
" transform="scale(0.015625)"/>
        <path id="DejaVuSans-30" d="M 2034 4250 
Q 1547 4250 1301 3770 
Q 1056 3291 1056 2328 
Q 1056 1369 1301 889 
Q 1547 409 2034 409 
Q 2525 409 2770 889 
Q 3016 1369 3016 2328 
Q 3016 3291 2770 3770 
Q 2525 4250 2034 4250 
z
M 2034 4750 
Q 2819 4750 3233 4129 
Q 3647 3509 3647 2328 
Q 3647 1150 3233 529 
Q 2819 -91 2034 -91 
Q 1250 -91 836 529 
Q 422 1150 422 2328 
Q 422 3509 836 4129 
Q 1250 4750 2034 4750 
z
" transform="scale(0.015625)"/>
       </defs>
       <use xlink:href="#DejaVuSans-31"/>
       <use xlink:href="#DejaVuSans-30" x="63.623047"/>
      </g>
     </g>
    </g>
    <g id="xtick_2">
     <g id="text_2">
      <!-- 20 -->
      <g transform="translate(239.394034 287.06881) scale(0.08 -0.08)">
       <defs>
        <path id="DejaVuSans-32" d="M 1228 531 
L 3431 531 
L 3431 0 
L 469 0 
L 469 531 
Q 828 903 1448 1529 
Q 2069 2156 2228 2338 
Q 2531 2678 2651 2914 
Q 2772 3150 2772 3378 
Q 2772 3750 2511 3984 
Q 2250 4219 1831 4219 
Q 1534 4219 1204 4116 
Q 875 4013 500 3803 
L 500 4441 
Q 881 4594 1212 4672 
Q 1544 4750 1819 4750 
Q 2544 4750 2975 4387 
Q 3406 4025 3406 3419 
Q 3406 3131 3298 2873 
Q 3191 2616 2906 2266 
Q 2828 2175 2409 1742 
Q 1991 1309 1228 531 
z
" transform="scale(0.015625)"/>
       </defs>
       <use xlink:href="#DejaVuSans-32"/>
       <use xlink:href="#DejaVuSans-30" x="63.623047"/>
      </g>
     </g>
    </g>
    <g id="xtick_3">
     <g id="text_3">
      <!-- 30 -->
      <g transform="translate(345.591761 287.06881) scale(0.08 -0.08)">
       <defs>
        <path id="DejaVuSans-33" d="M 2597 2516 
Q 3050 2419 3304 2112 
Q 3559 1806 3559 1356 
Q 3559 666 3084 287 
Q 2609 -91 1734 -91 
Q 1441 -91 1130 -33 
Q 819 25 488 141 
L 488 750 
Q 750 597 1062 519 
Q 1375 441 1716 441 
Q 2309 441 2620 675 
Q 2931 909 2931 1356 
Q 2931 1769 2642 2001 
Q 2353 2234 1838 2234 
L 1294 2234 
L 1294 2753 
L 1863 2753 
Q 2328 2753 2575 2939 
Q 2822 3125 2822 3475 
Q 2822 3834 2567 4026 
Q 2313 4219 1838 4219 
Q 1578 4219 1281 4162 
Q 984 4106 628 3988 
L 628 4550 
Q 988 4650 1302 4700 
Q 1616 4750 1894 4750 
Q 2613 4750 3031 4423 
Q 3450 4097 3450 3541 
Q 3450 3153 3228 2886 
Q 3006 2619 2597 2516 
z
" transform="scale(0.015625)"/>
       </defs>
       <use xlink:href="#DejaVuSans-33"/>
       <use xlink:href="#DejaVuSans-30" x="63.623047"/>
      </g>
     </g>
    </g>
    <g id="xtick_4">
     <g id="text_4">
      <!-- 40 -->
      <g transform="translate(451.789489 287.06881) scale(0.08 -0.08)">
       <defs>
        <path id="DejaVuSans-34" d="M 2419 4116 
L 825 1625 
L 2419 1625 
L 2419 4116 
z
M 2253 4666 
L 3047 4666 
L 3047 1625 
L 3713 1625 
L 3713 1100 
L 3047 1100 
L 3047 0 
L 2419 0 
L 2419 1100 
L 313 1100 
L 313 1709 
L 2253 4666 
z
" transform="scale(0.015625)"/>
       </defs>
       <use xlink:href="#DejaVuSans-34"/>
       <use xlink:href="#DejaVuSans-30" x="63.623047"/>
      </g>
     </g>
    </g>
    <g id="xtick_5">
     <g id="text_5">
      <!-- 50 -->
      <g transform="translate(557.987216 287.06881) scale(0.08 -0.08)">
       <defs>
        <path id="DejaVuSans-35" d="M 691 4666 
L 3169 4666 
L 3169 4134 
L 1269 4134 
L 1269 2991 
Q 1406 3038 1543 3061 
Q 1681 3084 1819 3084 
Q 2600 3084 3056 2656 
Q 3513 2228 3513 1497 
Q 3513 744 3044 326 
Q 2575 -91 1722 -91 
Q 1428 -91 1123 -41 
Q 819 9 494 109 
L 494 744 
Q 775 591 1075 516 
Q 1375 441 1709 441 
Q 2250 441 2565 725 
Q 2881 1009 2881 1497 
Q 2881 1984 2565 2268 
Q 2250 2553 1709 2553 
Q 1456 2553 1204 2497 
Q 953 2441 691 2322 
L 691 4666 
z
" transform="scale(0.015625)"/>
       </defs>
       <use xlink:href="#DejaVuSans-35"/>
       <use xlink:href="#DejaVuSans-30" x="63.623047"/>
      </g>
     </g>
    </g>
    <g id="xtick_6">
     <g id="text_6">
      <!-- 60 -->
      <g transform="translate(664.184943 287.06881) scale(0.08 -0.08)">
       <defs>
        <path id="DejaVuSans-36" d="M 2113 2584 
Q 1688 2584 1439 2293 
Q 1191 2003 1191 1497 
Q 1191 994 1439 701 
Q 1688 409 2113 409 
Q 2538 409 2786 701 
Q 3034 994 3034 1497 
Q 3034 2003 2786 2293 
Q 2538 2584 2113 2584 
z
M 3366 4563 
L 3366 3988 
Q 3128 4100 2886 4159 
Q 2644 4219 2406 4219 
Q 1781 4219 1451 3797 
Q 1122 3375 1075 2522 
Q 1259 2794 1537 2939 
Q 1816 3084 2150 3084 
Q 2853 3084 3261 2657 
Q 3669 2231 3669 1497 
Q 3669 778 3244 343 
Q 2819 -91 2113 -91 
Q 1303 -91 875 529 
Q 447 1150 447 2328 
Q 447 3434 972 4092 
Q 1497 4750 2381 4750 
Q 2619 4750 2861 4703 
Q 3103 4656 3366 4563 
z
" transform="scale(0.015625)"/>
       </defs>
       <use xlink:href="#DejaVuSans-36"/>
       <use xlink:href="#DejaVuSans-30" x="63.623047"/>
      </g>
     </g>
    </g>
    <g id="xtick_7">
     <g id="text_7">
      <!-- 70 -->
      <g transform="translate(770.38267 287.06881) scale(0.08 -0.08)">
       <defs>
        <path id="DejaVuSans-37" d="M 525 4666 
L 3525 4666 
L 3525 4397 
L 1831 0 
L 1172 0 
L 2766 4134 
L 525 4134 
L 525 4666 
z
" transform="scale(0.015625)"/>
       </defs>
       <use xlink:href="#DejaVuSans-37"/>
       <use xlink:href="#DejaVuSans-30" x="63.623047"/>
      </g>
     </g>
    </g>
    <g id="xtick_8">
     <g id="text_8">
      <!-- 80 -->
      <g transform="translate(876.580398 287.06881) scale(0.08 -0.08)">
       <defs>
        <path id="DejaVuSans-38" d="M 2034 2216 
Q 1584 2216 1326 1975 
Q 1069 1734 1069 1313 
Q 1069 891 1326 650 
Q 1584 409 2034 409 
Q 2484 409 2743 651 
Q 3003 894 3003 1313 
Q 3003 1734 2745 1975 
Q 2488 2216 2034 2216 
z
M 1403 2484 
Q 997 2584 770 2862 
Q 544 3141 544 3541 
Q 544 4100 942 4425 
Q 1341 4750 2034 4750 
Q 2731 4750 3128 4425 
Q 3525 4100 3525 3541 
Q 3525 3141 3298 2862 
Q 3072 2584 2669 2484 
Q 3125 2378 3379 2068 
Q 3634 1759 3634 1313 
Q 3634 634 3220 271 
Q 2806 -91 2034 -91 
Q 1263 -91 848 271 
Q 434 634 434 1313 
Q 434 1759 690 2068 
Q 947 2378 1403 2484 
z
M 1172 3481 
Q 1172 3119 1398 2916 
Q 1625 2713 2034 2713 
Q 2441 2713 2670 2916 
Q 2900 3119 2900 3481 
Q 2900 3844 2670 4047 
Q 2441 4250 2034 4250 
Q 1625 4250 1398 4047 
Q 1172 3844 1172 3481 
z
" transform="scale(0.015625)"/>
       </defs>
       <use xlink:href="#DejaVuSans-38"/>
       <use xlink:href="#DejaVuSans-30" x="63.623047"/>
      </g>
     </g>
    </g>
    <g id="xtick_9">
     <g id="text_9">
      <!-- 90 -->
      <g transform="translate(982.778125 287.06881) scale(0.08 -0.08)">
       <defs>
        <path id="DejaVuSans-39" d="M 703 97 
L 703 672 
Q 941 559 1184 500 
Q 1428 441 1663 441 
Q 2288 441 2617 861 
Q 2947 1281 2994 2138 
Q 2813 1869 2534 1725 
Q 2256 1581 1919 1581 
Q 1219 1581 811 2004 
Q 403 2428 403 3163 
Q 403 3881 828 4315 
Q 1253 4750 1959 4750 
Q 2769 4750 3195 4129 
Q 3622 3509 3622 2328 
Q 3622 1225 3098 567 
Q 2575 -91 1691 -91 
Q 1453 -91 1209 -44 
Q 966 3 703 97 
z
M 1959 2075 
Q 2384 2075 2632 2365 
Q 2881 2656 2881 3163 
Q 2881 3666 2632 3958 
Q 2384 4250 1959 4250 
Q 1534 4250 1286 3958 
Q 1038 3666 1038 3163 
Q 1038 2656 1286 2365 
Q 1534 2075 1959 2075 
z
" transform="scale(0.015625)"/>
       </defs>
       <use xlink:href="#DejaVuSans-39"/>
       <use xlink:href="#DejaVuSans-30" x="63.623047"/>
      </g>
     </g>
    </g>
    <g id="text_10">
     <!-- Length Trimmed (bp) -->
     <g transform="translate(468.170781 300.330997) scale(0.1 -0.1)">
      <defs>
       <path id="DejaVuSans-4c" d="M 628 4666 
L 1259 4666 
L 1259 531 
L 3531 531 
L 3531 0 
L 628 0 
L 628 4666 
z
" transform="scale(0.015625)"/>
       <path id="DejaVuSans-65" d="M 3597 1894 
L 3597 1613 
L 953 1613 
Q 991 1019 1311 708 
Q 1631 397 2203 397 
Q 2534 397 2845 478 
Q 3156 559 3463 722 
L 3463 178 
Q 3153 47 2828 -22 
Q 2503 -91 2169 -91 
Q 1331 -91 842 396 
Q 353 884 353 1716 
Q 353 2575 817 3079 
Q 1281 3584 2069 3584 
Q 2775 3584 3186 3129 
Q 3597 2675 3597 1894 
z
M 3022 2063 
Q 3016 2534 2758 2815 
Q 2500 3097 2075 3097 
Q 1594 3097 1305 2825 
Q 1016 2553 972 2059 
L 3022 2063 
z
" transform="scale(0.015625)"/>
       <path id="DejaVuSans-6e" d="M 3513 2113 
L 3513 0 
L 2938 0 
L 2938 2094 
Q 2938 2591 2744 2837 
Q 2550 3084 2163 3084 
Q 1697 3084 1428 2787 
Q 1159 2491 1159 1978 
L 1159 0 
L 581 0 
L 581 3500 
L 1159 3500 
L 1159 2956 
Q 1366 3272 1645 3428 
Q 1925 3584 2291 3584 
Q 2894 3584 3203 3211 
Q 3513 2838 3513 2113 
z
" transform="scale(0.015625)"/>
       <path id="DejaVuSans-67" d="M 2906 1791 
Q 2906 2416 2648 2759 
Q 2391 3103 1925 3103 
Q 1463 3103 1205 2759 
Q 947 2416 947 1791 
Q 947 1169 1205 825 
Q 1463 481 1925 481 
Q 2391 481 2648 825 
Q 2906 1169 2906 1791 
z
M 3481 434 
Q 3481 -459 3084 -895 
Q 2688 -1331 1869 -1331 
Q 1566 -1331 1297 -1286 
Q 1028 -1241 775 -1147 
L 775 -588 
Q 1028 -725 1275 -790 
Q 1522 -856 1778 -856 
Q 2344 -856 2625 -561 
Q 2906 -266 2906 331 
L 2906 616 
Q 2728 306 2450 153 
Q 2172 0 1784 0 
Q 1141 0 747 490 
Q 353 981 353 1791 
Q 353 2603 747 3093 
Q 1141 3584 1784 3584 
Q 2172 3584 2450 3431 
Q 2728 3278 2906 2969 
L 2906 3500 
L 3481 3500 
L 3481 434 
z
" transform="scale(0.015625)"/>
       <path id="DejaVuSans-74" d="M 1172 4494 
L 1172 3500 
L 2356 3500 
L 2356 3053 
L 1172 3053 
L 1172 1153 
Q 1172 725 1289 603 
Q 1406 481 1766 481 
L 2356 481 
L 2356 0 
L 1766 0 
Q 1100 0 847 248 
Q 594 497 594 1153 
L 594 3053 
L 172 3053 
L 172 3500 
L 594 3500 
L 594 4494 
L 1172 4494 
z
" transform="scale(0.015625)"/>
       <path id="DejaVuSans-68" d="M 3513 2113 
L 3513 0 
L 2938 0 
L 2938 2094 
Q 2938 2591 2744 2837 
Q 2550 3084 2163 3084 
Q 1697 3084 1428 2787 
Q 1159 2491 1159 1978 
L 1159 0 
L 581 0 
L 581 4863 
L 1159 4863 
L 1159 2956 
Q 1366 3272 1645 3428 
Q 1925 3584 2291 3584 
Q 2894 3584 3203 3211 
Q 3513 2838 3513 2113 
z
" transform="scale(0.015625)"/>
       <path id="DejaVuSans-20" transform="scale(0.015625)"/>
       <path id="DejaVuSans-54" d="M -19 4666 
L 3928 4666 
L 3928 4134 
L 2272 4134 
L 2272 0 
L 1638 0 
L 1638 4134 
L -19 4134 
L -19 4666 
z
" transform="scale(0.015625)"/>
       <path id="DejaVuSans-72" d="M 2631 2963 
Q 2534 3019 2420 3045 
Q 2306 3072 2169 3072 
Q 1681 3072 1420 2755 
Q 1159 2438 1159 1844 
L 1159 0 
L 581 0 
L 581 3500 
L 1159 3500 
L 1159 2956 
Q 1341 3275 1631 3429 
Q 1922 3584 2338 3584 
Q 2397 3584 2469 3576 
Q 2541 3569 2628 3553 
L 2631 2963 
z
" transform="scale(0.015625)"/>
       <path id="DejaVuSans-69" d="M 603 3500 
L 1178 3500 
L 1178 0 
L 603 0 
L 603 3500 
z
M 603 4863 
L 1178 4863 
L 1178 4134 
L 603 4134 
L 603 4863 
z
" transform="scale(0.015625)"/>
       <path id="DejaVuSans-6d" d="M 3328 2828 
Q 3544 3216 3844 3400 
Q 4144 3584 4550 3584 
Q 5097 3584 5394 3201 
Q 5691 2819 5691 2113 
L 5691 0 
L 5113 0 
L 5113 2094 
Q 5113 2597 4934 2840 
Q 4756 3084 4391 3084 
Q 3944 3084 3684 2787 
Q 3425 2491 3425 1978 
L 3425 0 
L 2847 0 
L 2847 2094 
Q 2847 2600 2669 2842 
Q 2491 3084 2119 3084 
Q 1678 3084 1418 2786 
Q 1159 2488 1159 1978 
L 1159 0 
L 581 0 
L 581 3500 
L 1159 3500 
L 1159 2956 
Q 1356 3278 1631 3431 
Q 1906 3584 2284 3584 
Q 2666 3584 2933 3390 
Q 3200 3197 3328 2828 
z
" transform="scale(0.015625)"/>
       <path id="DejaVuSans-64" d="M 2906 2969 
L 2906 4863 
L 3481 4863 
L 3481 0 
L 2906 0 
L 2906 525 
Q 2725 213 2448 61 
Q 2172 -91 1784 -91 
Q 1150 -91 751 415 
Q 353 922 353 1747 
Q 353 2572 751 3078 
Q 1150 3584 1784 3584 
Q 2172 3584 2448 3432 
Q 2725 3281 2906 2969 
z
M 947 1747 
Q 947 1113 1208 752 
Q 1469 391 1925 391 
Q 2381 391 2643 752 
Q 2906 1113 2906 1747 
Q 2906 2381 2643 2742 
Q 2381 3103 1925 3103 
Q 1469 3103 1208 2742 
Q 947 2381 947 1747 
z
" transform="scale(0.015625)"/>
       <path id="DejaVuSans-28" d="M 1984 4856 
Q 1566 4138 1362 3434 
Q 1159 2731 1159 2009 
Q 1159 1288 1364 580 
Q 1569 -128 1984 -844 
L 1484 -844 
Q 1016 -109 783 600 
Q 550 1309 550 2009 
Q 550 2706 781 3412 
Q 1013 4119 1484 4856 
L 1984 4856 
z
" transform="scale(0.015625)"/>
       <path id="DejaVuSans-62" d="M 3116 1747 
Q 3116 2381 2855 2742 
Q 2594 3103 2138 3103 
Q 1681 3103 1420 2742 
Q 1159 2381 1159 1747 
Q 1159 1113 1420 752 
Q 1681 391 2138 391 
Q 2594 391 2855 752 
Q 3116 1113 3116 1747 
z
M 1159 2969 
Q 1341 3281 1617 3432 
Q 1894 3584 2278 3584 
Q 2916 3584 3314 3078 
Q 3713 2572 3713 1747 
Q 3713 922 3314 415 
Q 2916 -91 2278 -91 
Q 1894 -91 1617 61 
Q 1341 213 1159 525 
L 1159 0 
L 581 0 
L 581 4863 
L 1159 4863 
L 1159 2969 
z
" transform="scale(0.015625)"/>
       <path id="DejaVuSans-70" d="M 1159 525 
L 1159 -1331 
L 581 -1331 
L 581 3500 
L 1159 3500 
L 1159 2969 
Q 1341 3281 1617 3432 
Q 1894 3584 2278 3584 
Q 2916 3584 3314 3078 
Q 3713 2572 3713 1747 
Q 3713 922 3314 415 
Q 2916 -91 2278 -91 
Q 1894 -91 1617 61 
Q 1341 213 1159 525 
z
M 3116 1747 
Q 3116 2381 2855 2742 
Q 2594 3103 2138 3103 
Q 1681 3103 1420 2742 
Q 1159 2381 1159 1747 
Q 1159 1113 1420 752 
Q 1681 391 2138 391 
Q 2594 391 2855 752 
Q 3116 1113 3116 1747 
z
" transform="scale(0.015625)"/>
       <path id="DejaVuSans-29" d="M 513 4856 
L 1013 4856 
Q 1481 4119 1714 3412 
Q 1947 2706 1947 2009 
Q 1947 1309 1714 600 
Q 1481 -109 1013 -844 
L 513 -844 
Q 928 -128 1133 580 
Q 1338 1288 1338 2009 
Q 1338 2731 1133 3434 
Q 928 4138 513 4856 
z
" transform="scale(0.015625)"/>
      </defs>
      <use xlink:href="#DejaVuSans-4c"/>
      <use xlink:href="#DejaVuSans-65" x="53.962891"/>
      <use xlink:href="#DejaVuSans-6e" x="115.486328"/>
      <use xlink:href="#DejaVuSans-67" x="178.865234"/>
      <use xlink:href="#DejaVuSans-74" x="242.341797"/>
      <use xlink:href="#DejaVuSans-68" x="281.550781"/>
      <use xlink:href="#DejaVuSans-20" x="344.929688"/>
      <use xlink:href="#DejaVuSans-54" x="376.716797"/>
      <use xlink:href="#DejaVuSans-72" x="423.050781"/>
      <use xlink:href="#DejaVuSans-69" x="464.164062"/>
      <use xlink:href="#DejaVuSans-6d" x="491.947266"/>
      <use xlink:href="#DejaVuSans-6d" x="589.359375"/>
      <use xlink:href="#DejaVuSans-65" x="686.771484"/>
      <use xlink:href="#DejaVuSans-64" x="748.294922"/>
      <use xlink:href="#DejaVuSans-20" x="811.771484"/>
      <use xlink:href="#DejaVuSans-28" x="843.558594"/>
      <use xlink:href="#DejaVuSans-62" x="882.572266"/>
      <use xlink:href="#DejaVuSans-70" x="946.048828"/>
      <use xlink:href="#DejaVuSans-29" x="1009.525391"/>
     </g>
    </g>
   </g>
   <g id="matplotlib.axis_2">
    <g id="ytick_1">
     <g id="line2d_1">
      <path d="M 53.328125 273.99006 
L 987.868125 273.99006 
" clip-path="url(#p65ef3a6f75)" style="fill: none; stroke: #dedede; stroke-linecap: square"/>
     </g>
     <g id="text_11">
      <!-- 0 -->
      <g transform="translate(41.238125 277.029435) scale(0.08 -0.08)">
       <use xlink:href="#DejaVuSans-30"/>
      </g>
     </g>
    </g>
    <g id="ytick_2">
     <g id="line2d_2">
      <path d="M 53.328125 230.834552 
L 987.868125 230.834552 
" clip-path="url(#p65ef3a6f75)" style="fill: none; stroke: #dedede; stroke-linecap: square"/>
     </g>
     <g id="text_12">
      <!-- 5000 -->
      <g transform="translate(25.968125 233.873927) scale(0.08 -0.08)">
       <use xlink:href="#DejaVuSans-35"/>
       <use xlink:href="#DejaVuSans-30" x="63.623047"/>
       <use xlink:href="#DejaVuSans-30" x="127.246094"/>
       <use xlink:href="#DejaVuSans-30" x="190.869141"/>
      </g>
     </g>
    </g>
    <g id="ytick_3">
     <g id="line2d_3">
      <path d="M 53.328125 187.679043 
L 987.868125 187.679043 
" clip-path="url(#p65ef3a6f75)" style="fill: none; stroke: #dedede; stroke-linecap: square"/>
     </g>
     <g id="text_13">
      <!-- 10000 -->
      <g transform="translate(20.878125 190.718418) scale(0.08 -0.08)">
       <use xlink:href="#DejaVuSans-31"/>
       <use xlink:href="#DejaVuSans-30" x="63.623047"/>
       <use xlink:href="#DejaVuSans-30" x="127.246094"/>
       <use xlink:href="#DejaVuSans-30" x="190.869141"/>
       <use xlink:href="#DejaVuSans-30" x="254.492188"/>
      </g>
     </g>
    </g>
    <g id="ytick_4">
     <g id="line2d_4">
      <path d="M 53.328125 144.523535 
L 987.868125 144.523535 
" clip-path="url(#p65ef3a6f75)" style="fill: none; stroke: #dedede; stroke-linecap: square"/>
     </g>
     <g id="text_14">
      <!-- 15000 -->
      <g transform="translate(20.878125 147.56291) scale(0.08 -0.08)">
       <use xlink:href="#DejaVuSans-31"/>
       <use xlink:href="#DejaVuSans-35" x="63.623047"/>
       <use xlink:href="#DejaVuSans-30" x="127.246094"/>
       <use xlink:href="#DejaVuSans-30" x="190.869141"/>
       <use xlink:href="#DejaVuSans-30" x="254.492188"/>
      </g>
     </g>
    </g>
    <g id="ytick_5">
     <g id="line2d_5">
      <path d="M 53.328125 101.368027 
L 987.868125 101.368027 
" clip-path="url(#p65ef3a6f75)" style="fill: none; stroke: #dedede; stroke-linecap: square"/>
     </g>
     <g id="text_15">
      <!-- 20000 -->
      <g transform="translate(20.878125 104.407402) scale(0.08 -0.08)">
       <use xlink:href="#DejaVuSans-32"/>
       <use xlink:href="#DejaVuSans-30" x="63.623047"/>
       <use xlink:href="#DejaVuSans-30" x="127.246094"/>
       <use xlink:href="#DejaVuSans-30" x="190.869141"/>
       <use xlink:href="#DejaVuSans-30" x="254.492188"/>
      </g>
     </g>
    </g>
    <g id="ytick_6">
     <g id="line2d_6">
      <path d="M 53.328125 58.212519 
L 987.868125 58.212519 
" clip-path="url(#p65ef3a6f75)" style="fill: none; stroke: #dedede; stroke-linecap: square"/>
     </g>
     <g id="text_16">
      <!-- 25000 -->
      <g transform="translate(20.878125 61.251894) scale(0.08 -0.08)">
       <use xlink:href="#DejaVuSans-32"/>
       <use xlink:href="#DejaVuSans-35" x="63.623047"/>
       <use xlink:href="#DejaVuSans-30" x="127.246094"/>
       <use xlink:href="#DejaVuSans-30" x="190.869141"/>
       <use xlink:href="#DejaVuSans-30" x="254.492188"/>
      </g>
     </g>
    </g>
    <g id="text_17">
     <!-- Count -->
     <g transform="translate(14.798437 167.584897) rotate(-90) scale(0.1 -0.1)">
      <defs>
       <path id="DejaVuSans-43" d="M 4122 4306 
L 4122 3641 
Q 3803 3938 3442 4084 
Q 3081 4231 2675 4231 
Q 1875 4231 1450 3742 
Q 1025 3253 1025 2328 
Q 1025 1406 1450 917 
Q 1875 428 2675 428 
Q 3081 428 3442 575 
Q 3803 722 4122 1019 
L 4122 359 
Q 3791 134 3420 21 
Q 3050 -91 2638 -91 
Q 1578 -91 968 557 
Q 359 1206 359 2328 
Q 359 3453 968 4101 
Q 1578 4750 2638 4750 
Q 3056 4750 3426 4639 
Q 3797 4528 4122 4306 
z
" transform="scale(0.015625)"/>
       <path id="DejaVuSans-6f" d="M 1959 3097 
Q 1497 3097 1228 2736 
Q 959 2375 959 1747 
Q 959 1119 1226 758 
Q 1494 397 1959 397 
Q 2419 397 2687 759 
Q 2956 1122 2956 1747 
Q 2956 2369 2687 2733 
Q 2419 3097 1959 3097 
z
M 1959 3584 
Q 2709 3584 3137 3096 
Q 3566 2609 3566 1747 
Q 3566 888 3137 398 
Q 2709 -91 1959 -91 
Q 1206 -91 779 398 
Q 353 888 353 1747 
Q 353 2609 779 3096 
Q 1206 3584 1959 3584 
z
" transform="scale(0.015625)"/>
       <path id="DejaVuSans-75" d="M 544 1381 
L 544 3500 
L 1119 3500 
L 1119 1403 
Q 1119 906 1312 657 
Q 1506 409 1894 409 
Q 2359 409 2629 706 
Q 2900 1003 2900 1516 
L 2900 3500 
L 3475 3500 
L 3475 0 
L 2900 0 
L 2900 538 
Q 2691 219 2414 64 
Q 2138 -91 1772 -91 
Q 1169 -91 856 284 
Q 544 659 544 1381 
z
M 1991 3584 
L 1991 3584 
z
" transform="scale(0.015625)"/>
      </defs>
      <use xlink:href="#DejaVuSans-43"/>
      <use xlink:href="#DejaVuSans-6f" x="69.824219"/>
      <use xlink:href="#DejaVuSans-75" x="131.005859"/>
      <use xlink:href="#DejaVuSans-6e" x="194.384766"/>
      <use xlink:href="#DejaVuSans-74" x="257.763672"/>
     </g>
    </g>
   </g>
   <g id="line2d_7">
    <path d="M 95.807216 273.265047 
L 106.426989 273.903749 
L 117.046761 269.657247 
L 127.666534 272.919803 
L 138.286307 272.488248 
L 148.90608 272.911172 
L 159.525852 273.618923 
L 170.145625 273.8347 
L 180.765398 272.868017 
L 191.38517 271.374836 
L 202.004943 270.943281 
L 212.624716 270.796552 
L 223.244489 273.075163 
L 233.864261 273.118319 
L 244.484034 273.290941 
L 255.103807 272.401937 
L 265.72358 273.687971 
L 276.343352 271.426623 
L 286.963125 264.375013 
L 297.582898 261.466332 
L 308.20267 267.309587 
L 318.822443 252.91291 
L 329.442216 252.887016 
L 340.061989 201.661428 
L 350.681761 224.499323 
L 361.301534 153.059695 
L 371.921307 186.531107 
L 382.54108 130.152751 
L 393.160852 198.467921 
L 403.780625 168.077812 
L 414.400398 238.024259 
L 425.02017 265.039608 
L 435.639943 270.891495 
L 446.259716 273.032008 
L 456.879489 273.541243 
L 467.499261 273.869225 
L 478.119034 273.938273 
L 488.738807 273.91238 
L 499.35858 273.921011 
L 509.978352 273.964167 
L 520.598125 273.981429 
L 531.217898 273.955536 
L 541.83767 273.955536 
L 563.077216 273.981429 
L 658.65517 273.981429 
L 902.909943 273.964167 
L 945.389034 273.981429 
" clip-path="url(#p65ef3a6f75)" style="fill: none; stroke: #7cb5ec; stroke-linecap: square"/>
   </g>
   <g id="line2d_8">
    <path d="M 95.807216 273.558505 
L 106.426989 273.938273 
L 117.046761 271.443885 
L 127.666534 272.73855 
L 138.286307 272.160266 
L 148.90608 272.919803 
L 159.525852 273.774282 
L 170.145625 273.739758 
L 180.765398 273.101057 
L 191.38517 271.685556 
L 202.004943 272.384675 
L 212.624716 271.262632 
L 223.244489 273.334096 
L 233.864261 273.489456 
L 244.484034 273.722496 
L 255.103807 273.480825 
L 265.72358 273.869225 
L 276.343352 272.350151 
L 286.963125 267.102441 
L 297.582898 265.238123 
L 308.20267 269.812607 
L 318.822443 245.067238 
L 329.442216 249.158381 
L 340.061989 181.179824 
L 350.681761 209.360371 
L 361.301534 136.030531 
L 371.921307 173.54993 
L 382.54108 43.030411 
L 393.160852 141.796107 
L 403.780625 210.905338 
L 414.400398 265.238123 
L 425.02017 270.416784 
L 435.639943 271.616507 
L 446.259716 273.411776 
L 456.879489 273.541243 
L 467.499261 273.860593 
L 478.119034 273.91238 
L 488.738807 273.938273 
L 499.35858 273.972798 
L 509.978352 273.972798 
L 520.598125 273.972798 
L 531.217898 273.981429 
L 541.83767 273.955536 
L 552.457443 273.972798 
L 563.077216 273.981429 
L 573.696989 273.972798 
L 626.795852 273.981429 
L 701.134261 273.972798 
L 828.571534 273.981429 
L 860.430852 273.981429 
L 871.050625 273.981429 
L 924.149489 273.981429 
" clip-path="url(#p65ef3a6f75)" style="fill: none; stroke: #434348; stroke-linecap: square"/>
   </g>
   <g id="line2d_9">
    <path d="M 95.807216 273.593029 
L 106.426989 273.972798 
L 117.046761 271.504303 
L 127.666534 272.876648 
L 138.286307 272.255209 
L 148.90608 273.083794 
L 159.525852 273.782914 
L 170.145625 273.791545 
L 180.765398 273.334096 
L 191.38517 272.056693 
L 202.004943 272.514142 
L 212.624716 271.478409 
L 223.244489 273.290941 
L 233.864261 273.472194 
L 244.484034 273.618923 
L 255.103807 273.429038 
L 265.72358 273.869225 
L 276.343352 272.764444 
L 286.963125 267.913764 
L 297.582898 265.859562 
L 308.20267 270.131958 
L 318.822443 249.978335 
L 329.442216 253.14595 
L 340.061989 199.028942 
L 350.681761 224.87046 
L 361.301534 165.24681 
L 371.921307 190.052596 
L 382.54108 82.250137 
L 393.160852 161.87205 
L 403.780625 220.442705 
L 414.400398 266.403322 
L 425.02017 270.762028 
L 435.639943 271.849547 
L 446.259716 273.463563 
L 456.879489 273.575767 
L 467.499261 273.886487 
L 478.119034 273.964167 
L 488.738807 273.929642 
L 499.35858 273.946904 
L 509.978352 273.955536 
L 520.598125 273.972798 
L 531.217898 273.972798 
L 541.83767 273.972798 
L 563.077216 273.964167 
L 573.696989 273.972798 
L 584.316761 273.972798 
L 626.795852 273.981429 
L 701.134261 273.981429 
L 711.754034 273.981429 
L 786.092443 273.981429 
L 839.191307 273.981429 
L 871.050625 273.964167 
L 881.670398 273.972798 
" clip-path="url(#p65ef3a6f75)" style="fill: none; stroke: #90ed7d; stroke-linecap: square"/>
   </g>
   <g id="line2d_10">
    <path d="M 95.807216 273.549874 
L 106.426989 273.895118 
L 117.046761 271.046854 
L 127.666534 272.678133 
L 138.286307 272.134373 
L 148.90608 273.006114 
L 159.525852 273.670709 
L 170.145625 273.705234 
L 180.765398 272.928434 
L 191.38517 271.055485 
L 202.004943 272.168898 
L 212.624716 271.159059 
L 223.244489 273.308203 
L 233.864261 272.937066 
L 244.484034 273.498087 
L 255.103807 273.368621 
L 265.72358 273.895118 
L 276.343352 271.866809 
L 286.963125 267.197383 
L 297.582898 262.407122 
L 308.20267 270.07154 
L 318.822443 250.64293 
L 329.442216 250.09054 
L 340.061989 180.29082 
L 350.681761 222.117139 
L 361.301534 152.714451 
L 371.921307 175.362461 
L 382.54108 43.220295 
L 393.160852 141.03657 
L 403.780625 207.116284 
L 414.400398 267.119703 
L 425.02017 267.283694 
L 435.639943 271.927227 
L 446.259716 272.859386 
L 456.879489 273.687971 
L 467.499261 273.748389 
L 478.119034 273.929642 
L 488.738807 273.921011 
L 499.35858 273.964167 
L 509.978352 273.955536 
L 531.217898 273.955536 
L 541.83767 273.972798 
L 552.457443 273.972798 
L 563.077216 273.972798 
L 573.696989 273.981429 
L 584.316761 273.972798 
L 594.936534 273.981429 
L 711.754034 273.964167 
L 828.571534 273.981429 
L 860.430852 273.964167 
L 871.050625 273.921011 
L 881.670398 273.981429 
L 902.909943 273.981429 
" clip-path="url(#p65ef3a6f75)" style="fill: none; stroke: #f7a35c; stroke-linecap: square"/>
   </g>
   <g id="line2d_11">
    <path d="M 95.807216 273.575767 
L 106.426989 273.851962 
L 117.046761 271.806391 
L 127.666534 272.505511 
L 138.286307 272.056693 
L 148.90608 272.557297 
L 159.525852 273.558505 
L 170.145625 273.739758 
L 180.765398 272.617715 
L 191.38517 270.744766 
L 202.004943 272.065324 
L 212.624716 271.305787 
L 223.244489 273.420407 
L 233.864261 273.161474 
L 244.484034 273.506718 
L 255.103807 272.695395 
L 265.72358 273.860593 
L 276.343352 271.659663 
L 286.963125 263.322018 
L 297.582898 262.243131 
L 308.20267 267.620307 
L 318.822443 249.07207 
L 329.442216 250.87597 
L 340.061989 186.669205 
L 350.681761 230.256268 
L 361.301534 174.499351 
L 371.921307 179.902421 
L 382.54108 119.139465 
L 393.160852 222.151663 
L 403.780625 196.137523 
L 414.400398 254.544188 
L 425.02017 266.662255 
L 435.639943 272.755812 
L 446.259716 273.541243 
L 456.879489 273.75702 
L 467.499261 273.91238 
L 488.738807 273.972798 
L 499.35858 273.895118 
L 509.978352 273.972798 
L 520.598125 273.981429 
L 531.217898 273.981429 
L 541.83767 273.946904 
L 552.457443 273.964167 
L 563.077216 273.972798 
L 573.696989 273.981429 
L 584.316761 273.981429 
L 711.754034 273.981429 
L 913.529716 273.981429 
" clip-path="url(#p65ef3a6f75)" style="fill: none; stroke: #8085e9; stroke-linecap: square"/>
   </g>
   <g id="line2d_12">
    <path d="M 95.807216 273.498087 
L 106.426989 273.860593 
L 117.046761 271.271263 
L 127.666534 272.082587 
L 138.286307 272.194791 
L 148.90608 272.695395 
L 159.525852 273.67934 
L 170.145625 273.748389 
L 180.765398 272.824861 
L 191.38517 271.590614 
L 202.004943 271.633769 
L 212.624716 270.356366 
L 223.244489 273.057901 
L 233.864261 273.161474 
L 244.484034 273.532612 
L 255.103807 272.522773 
L 265.72358 273.808807 
L 276.343352 271.16769 
L 286.963125 264.029769 
L 297.582898 261.742527 
L 308.20267 267.965551 
L 318.822443 247.181858 
L 329.442216 248.243484 
L 340.061989 171.400786 
L 350.681761 204.449274 
L 361.301534 106.572581 
L 371.921307 170.054334 
L 382.54108 88.300539 
L 393.160852 118.31088 
L 403.780625 188.835611 
L 414.400398 233.570611 
L 425.02017 264.97919 
L 435.639943 270.434046 
L 446.259716 273.290941 
L 456.879489 273.506718 
L 467.499261 273.808807 
L 478.119034 273.895118 
L 488.738807 273.946904 
L 499.35858 273.921011 
L 509.978352 273.964167 
L 520.598125 273.938273 
L 531.217898 273.964167 
L 541.83767 273.972798 
L 552.457443 273.981429 
L 563.077216 273.981429 
L 573.696989 273.972798 
L 584.316761 273.981429 
L 594.936534 273.964167 
L 626.795852 273.972798 
L 690.514489 273.972798 
L 711.754034 273.981429 
L 839.191307 273.981429 
L 849.81108 273.981429 
L 871.050625 273.981429 
" clip-path="url(#p65ef3a6f75)" style="fill: none; stroke: #f15c80; stroke-linecap: square"/>
   </g>
   <g id="line2d_13">
    <path d="M 95.807216 273.636185 
L 106.426989 273.860593 
L 117.046761 271.556089 
L 127.666534 272.160266 
L 138.286307 271.728711 
L 148.90608 272.617715 
L 159.525852 273.696603 
L 170.145625 273.817438 
L 180.765398 272.721288 
L 191.38517 270.589406 
L 202.004943 271.754605 
L 212.624716 270.563513 
L 223.244489 273.429038 
L 233.864261 273.040639 
L 244.484034 273.429038 
L 255.103807 272.151635 
L 265.72358 273.739758 
L 276.343352 271.254001 
L 286.963125 263.088979 
L 297.582898 262.959512 
L 308.20267 267.870609 
L 318.822443 251.928964 
L 329.442216 254.578712 
L 340.061989 194.756547 
L 350.681761 237.886162 
L 361.301534 183.682843 
L 371.921307 174.102321 
L 382.54108 92.322632 
L 393.160852 221.512962 
L 403.780625 184.709945 
L 414.400398 255.752542 
L 425.02017 267.085179 
L 435.639943 272.376044 
L 446.259716 273.532612 
L 456.879489 273.826069 
L 467.499261 273.938273 
L 478.119034 273.946904 
L 488.738807 273.981429 
L 499.35858 273.955536 
L 509.978352 273.981429 
L 520.598125 273.921011 
L 531.217898 273.972798 
L 541.83767 273.955536 
L 552.457443 273.981429 
L 563.077216 273.972798 
L 616.17608 273.972798 
L 711.754034 273.972798 
L 924.149489 273.981429 
" clip-path="url(#p65ef3a6f75)" style="fill: none; stroke: #e4d354; stroke-linecap: square"/>
   </g>
   <g id="line2d_14">
    <path d="M 95.807216 273.60166 
L 106.426989 273.903749 
L 117.046761 271.478409 
L 127.666534 272.212053 
L 138.286307 272.125742 
L 148.90608 272.781706 
L 159.525852 273.627554 
L 170.145625 273.8347 
L 180.765398 272.755812 
L 191.38517 270.986437 
L 202.004943 271.737342 
L 212.624716 270.580775 
L 223.244489 273.152843 
L 233.864261 273.023377 
L 244.484034 273.489456 
L 255.103807 272.548666 
L 265.72358 273.826069 
L 276.343352 271.098641 
L 286.963125 264.297333 
L 297.582898 262.63153 
L 308.20267 268.233115 
L 318.822443 248.813136 
L 329.442216 249.736664 
L 340.061989 180.256296 
L 350.681761 209.645197 
L 361.301534 120.011207 
L 371.921307 170.054334 
L 382.54108 81.72364 
L 393.160852 107.159496 
L 403.780625 183.216764 
L 414.400398 230.161326 
L 425.02017 264.866986 
L 435.639943 269.933442 
L 446.259716 273.429038 
L 456.879489 273.653447 
L 467.499261 273.860593 
L 478.119034 273.946904 
L 488.738807 273.921011 
L 499.35858 273.886487 
L 509.978352 273.964167 
L 520.598125 273.955536 
L 531.217898 273.938273 
L 552.457443 273.964167 
L 563.077216 273.981429 
L 573.696989 273.981429 
L 584.316761 273.972798 
L 605.556307 273.981429 
L 616.17608 273.981429 
L 626.795852 273.981429 
L 648.035398 273.981429 
L 690.514489 273.981429 
L 711.754034 273.981429 
L 839.191307 273.972798 
L 860.430852 273.981429 
L 871.050625 273.955536 
L 881.670398 273.972798 
" clip-path="url(#p65ef3a6f75)" style="fill: none; stroke: #2b908f; stroke-linecap: square"/>
   </g>
   <g id="line2d_15">
    <path d="M 53.328125 273.99006 
L 987.868125 273.99006 
" clip-path="url(#p65ef3a6f75)" style="fill: none; stroke: #dedede; stroke-width: 2; stroke-linecap: square"/>
   </g>
   <g id="text_18">
    <!-- Cutadapt: Lengths of Trimmed Sequences (3' end) -->
    <g transform="translate(319.245625 19.3575) scale(0.16 -0.16)">
     <defs>
      <path id="DejaVuSans-61" d="M 2194 1759 
Q 1497 1759 1228 1600 
Q 959 1441 959 1056 
Q 959 750 1161 570 
Q 1363 391 1709 391 
Q 2188 391 2477 730 
Q 2766 1069 2766 1631 
L 2766 1759 
L 2194 1759 
z
M 3341 1997 
L 3341 0 
L 2766 0 
L 2766 531 
Q 2569 213 2275 61 
Q 1981 -91 1556 -91 
Q 1019 -91 701 211 
Q 384 513 384 1019 
Q 384 1609 779 1909 
Q 1175 2209 1959 2209 
L 2766 2209 
L 2766 2266 
Q 2766 2663 2505 2880 
Q 2244 3097 1772 3097 
Q 1472 3097 1187 3025 
Q 903 2953 641 2809 
L 641 3341 
Q 956 3463 1253 3523 
Q 1550 3584 1831 3584 
Q 2591 3584 2966 3190 
Q 3341 2797 3341 1997 
z
" transform="scale(0.015625)"/>
      <path id="DejaVuSans-3a" d="M 750 794 
L 1409 794 
L 1409 0 
L 750 0 
L 750 794 
z
M 750 3309 
L 1409 3309 
L 1409 2516 
L 750 2516 
L 750 3309 
z
" transform="scale(0.015625)"/>
      <path id="DejaVuSans-73" d="M 2834 3397 
L 2834 2853 
Q 2591 2978 2328 3040 
Q 2066 3103 1784 3103 
Q 1356 3103 1142 2972 
Q 928 2841 928 2578 
Q 928 2378 1081 2264 
Q 1234 2150 1697 2047 
L 1894 2003 
Q 2506 1872 2764 1633 
Q 3022 1394 3022 966 
Q 3022 478 2636 193 
Q 2250 -91 1575 -91 
Q 1294 -91 989 -36 
Q 684 19 347 128 
L 347 722 
Q 666 556 975 473 
Q 1284 391 1588 391 
Q 1994 391 2212 530 
Q 2431 669 2431 922 
Q 2431 1156 2273 1281 
Q 2116 1406 1581 1522 
L 1381 1569 
Q 847 1681 609 1914 
Q 372 2147 372 2553 
Q 372 3047 722 3315 
Q 1072 3584 1716 3584 
Q 2034 3584 2315 3537 
Q 2597 3491 2834 3397 
z
" transform="scale(0.015625)"/>
      <path id="DejaVuSans-66" d="M 2375 4863 
L 2375 4384 
L 1825 4384 
Q 1516 4384 1395 4259 
Q 1275 4134 1275 3809 
L 1275 3500 
L 2222 3500 
L 2222 3053 
L 1275 3053 
L 1275 0 
L 697 0 
L 697 3053 
L 147 3053 
L 147 3500 
L 697 3500 
L 697 3744 
Q 697 4328 969 4595 
Q 1241 4863 1831 4863 
L 2375 4863 
z
" transform="scale(0.015625)"/>
      <path id="DejaVuSans-53" d="M 3425 4513 
L 3425 3897 
Q 3066 4069 2747 4153 
Q 2428 4238 2131 4238 
Q 1616 4238 1336 4038 
Q 1056 3838 1056 3469 
Q 1056 3159 1242 3001 
Q 1428 2844 1947 2747 
L 2328 2669 
Q 3034 2534 3370 2195 
Q 3706 1856 3706 1288 
Q 3706 609 3251 259 
Q 2797 -91 1919 -91 
Q 1588 -91 1214 -16 
Q 841 59 441 206 
L 441 856 
Q 825 641 1194 531 
Q 1563 422 1919 422 
Q 2459 422 2753 634 
Q 3047 847 3047 1241 
Q 3047 1584 2836 1778 
Q 2625 1972 2144 2069 
L 1759 2144 
Q 1053 2284 737 2584 
Q 422 2884 422 3419 
Q 422 4038 858 4394 
Q 1294 4750 2059 4750 
Q 2388 4750 2728 4690 
Q 3069 4631 3425 4513 
z
" transform="scale(0.015625)"/>
      <path id="DejaVuSans-71" d="M 947 1747 
Q 947 1113 1208 752 
Q 1469 391 1925 391 
Q 2381 391 2643 752 
Q 2906 1113 2906 1747 
Q 2906 2381 2643 2742 
Q 2381 3103 1925 3103 
Q 1469 3103 1208 2742 
Q 947 2381 947 1747 
z
M 2906 525 
Q 2725 213 2448 61 
Q 2172 -91 1784 -91 
Q 1150 -91 751 415 
Q 353 922 353 1747 
Q 353 2572 751 3078 
Q 1150 3584 1784 3584 
Q 2172 3584 2448 3432 
Q 2725 3281 2906 2969 
L 2906 3500 
L 3481 3500 
L 3481 -1331 
L 2906 -1331 
L 2906 525 
z
" transform="scale(0.015625)"/>
      <path id="DejaVuSans-63" d="M 3122 3366 
L 3122 2828 
Q 2878 2963 2633 3030 
Q 2388 3097 2138 3097 
Q 1578 3097 1268 2742 
Q 959 2388 959 1747 
Q 959 1106 1268 751 
Q 1578 397 2138 397 
Q 2388 397 2633 464 
Q 2878 531 3122 666 
L 3122 134 
Q 2881 22 2623 -34 
Q 2366 -91 2075 -91 
Q 1284 -91 818 406 
Q 353 903 353 1747 
Q 353 2603 823 3093 
Q 1294 3584 2113 3584 
Q 2378 3584 2631 3529 
Q 2884 3475 3122 3366 
z
" transform="scale(0.015625)"/>
      <path id="DejaVuSans-27" d="M 1147 4666 
L 1147 2931 
L 616 2931 
L 616 4666 
L 1147 4666 
z
" transform="scale(0.015625)"/>
     </defs>
     <use xlink:href="#DejaVuSans-43"/>
     <use xlink:href="#DejaVuSans-75" x="69.824219"/>
     <use xlink:href="#DejaVuSans-74" x="133.203125"/>
     <use xlink:href="#DejaVuSans-61" x="172.412109"/>
     <use xlink:href="#DejaVuSans-64" x="233.691406"/>
     <use xlink:href="#DejaVuSans-61" x="297.167969"/>
     <use xlink:href="#DejaVuSans-70" x="358.447266"/>
     <use xlink:href="#DejaVuSans-74" x="421.923828"/>
     <use xlink:href="#DejaVuSans-3a" x="461.132812"/>
     <use xlink:href="#DejaVuSans-20" x="494.824219"/>
     <use xlink:href="#DejaVuSans-4c" x="526.611328"/>
     <use xlink:href="#DejaVuSans-65" x="580.574219"/>
     <use xlink:href="#DejaVuSans-6e" x="642.097656"/>
     <use xlink:href="#DejaVuSans-67" x="705.476562"/>
     <use xlink:href="#DejaVuSans-74" x="768.953125"/>
     <use xlink:href="#DejaVuSans-68" x="808.162109"/>
     <use xlink:href="#DejaVuSans-73" x="871.541016"/>
     <use xlink:href="#DejaVuSans-20" x="923.640625"/>
     <use xlink:href="#DejaVuSans-6f" x="955.427734"/>
     <use xlink:href="#DejaVuSans-66" x="1016.609375"/>
     <use xlink:href="#DejaVuSans-20" x="1051.814453"/>
     <use xlink:href="#DejaVuSans-54" x="1083.601562"/>
     <use xlink:href="#DejaVuSans-72" x="1129.935547"/>
     <use xlink:href="#DejaVuSans-69" x="1171.048828"/>
     <use xlink:href="#DejaVuSans-6d" x="1198.832031"/>
     <use xlink:href="#DejaVuSans-6d" x="1296.244141"/>
     <use xlink:href="#DejaVuSans-65" x="1393.65625"/>
     <use xlink:href="#DejaVuSans-64" x="1455.179688"/>
     <use xlink:href="#DejaVuSans-20" x="1518.65625"/>
     <use xlink:href="#DejaVuSans-53" x="1550.443359"/>
     <use xlink:href="#DejaVuSans-65" x="1613.919922"/>
     <use xlink:href="#DejaVuSans-71" x="1675.443359"/>
     <use xlink:href="#DejaVuSans-75" x="1738.919922"/>
     <use xlink:href="#DejaVuSans-65" x="1802.298828"/>
     <use xlink:href="#DejaVuSans-6e" x="1863.822266"/>
     <use xlink:href="#DejaVuSans-63" x="1927.201172"/>
     <use xlink:href="#DejaVuSans-65" x="1982.181641"/>
     <use xlink:href="#DejaVuSans-73" x="2043.705078"/>
     <use xlink:href="#DejaVuSans-20" x="2095.804688"/>
     <use xlink:href="#DejaVuSans-28" x="2127.591797"/>
     <use xlink:href="#DejaVuSans-33" x="2166.605469"/>
     <use xlink:href="#DejaVuSans-27" x="2230.228516"/>
     <use xlink:href="#DejaVuSans-20" x="2257.71875"/>
     <use xlink:href="#DejaVuSans-65" x="2289.505859"/>
     <use xlink:href="#DejaVuSans-6e" x="2351.029297"/>
     <use xlink:href="#DejaVuSans-64" x="2414.408203"/>
     <use xlink:href="#DejaVuSans-29" x="2477.884766"/>
    </g>
   </g>
   <g id="legend_1">
    <g id="line2d_16">
     <path d="M 60.528125 303.490394 
L 68.528125 303.490394 
L 76.528125 303.490394 
" style="fill: none; stroke: #7cb5ec; stroke-linecap: square"/>
    </g>
    <g id="text_19">
     <!-- BG11_control_t0_r1_T1 - Adapter 1 -->
     <g transform="translate(82.928125 306.290394) scale(0.08 -0.08)">
      <defs>
       <path id="DejaVuSans-42" d="M 1259 2228 
L 1259 519 
L 2272 519 
Q 2781 519 3026 730 
Q 3272 941 3272 1375 
Q 3272 1813 3026 2020 
Q 2781 2228 2272 2228 
L 1259 2228 
z
M 1259 4147 
L 1259 2741 
L 2194 2741 
Q 2656 2741 2882 2914 
Q 3109 3088 3109 3444 
Q 3109 3797 2882 3972 
Q 2656 4147 2194 4147 
L 1259 4147 
z
M 628 4666 
L 2241 4666 
Q 2963 4666 3353 4366 
Q 3744 4066 3744 3513 
Q 3744 3084 3544 2831 
Q 3344 2578 2956 2516 
Q 3422 2416 3680 2098 
Q 3938 1781 3938 1306 
Q 3938 681 3513 340 
Q 3088 0 2303 0 
L 628 0 
L 628 4666 
z
" transform="scale(0.015625)"/>
       <path id="DejaVuSans-47" d="M 3809 666 
L 3809 1919 
L 2778 1919 
L 2778 2438 
L 4434 2438 
L 4434 434 
Q 4069 175 3628 42 
Q 3188 -91 2688 -91 
Q 1594 -91 976 548 
Q 359 1188 359 2328 
Q 359 3472 976 4111 
Q 1594 4750 2688 4750 
Q 3144 4750 3555 4637 
Q 3966 4525 4313 4306 
L 4313 3634 
Q 3963 3931 3569 4081 
Q 3175 4231 2741 4231 
Q 1884 4231 1454 3753 
Q 1025 3275 1025 2328 
Q 1025 1384 1454 906 
Q 1884 428 2741 428 
Q 3075 428 3337 486 
Q 3600 544 3809 666 
z
" transform="scale(0.015625)"/>
       <path id="DejaVuSans-5f" d="M 3263 -1063 
L 3263 -1509 
L -63 -1509 
L -63 -1063 
L 3263 -1063 
z
" transform="scale(0.015625)"/>
       <path id="DejaVuSans-6c" d="M 603 4863 
L 1178 4863 
L 1178 0 
L 603 0 
L 603 4863 
z
" transform="scale(0.015625)"/>
       <path id="DejaVuSans-2d" d="M 313 2009 
L 1997 2009 
L 1997 1497 
L 313 1497 
L 313 2009 
z
" transform="scale(0.015625)"/>
       <path id="DejaVuSans-41" d="M 2188 4044 
L 1331 1722 
L 3047 1722 
L 2188 4044 
z
M 1831 4666 
L 2547 4666 
L 4325 0 
L 3669 0 
L 3244 1197 
L 1141 1197 
L 716 0 
L 50 0 
L 1831 4666 
z
" transform="scale(0.015625)"/>
      </defs>
      <use xlink:href="#DejaVuSans-42"/>
      <use xlink:href="#DejaVuSans-47" x="66.853516"/>
      <use xlink:href="#DejaVuSans-31" x="144.34375"/>
      <use xlink:href="#DejaVuSans-31" x="207.966797"/>
      <use xlink:href="#DejaVuSans-5f" x="271.589844"/>
      <use xlink:href="#DejaVuSans-63" x="321.589844"/>
      <use xlink:href="#DejaVuSans-6f" x="376.570312"/>
      <use xlink:href="#DejaVuSans-6e" x="437.751953"/>
      <use xlink:href="#DejaVuSans-74" x="501.130859"/>
      <use xlink:href="#DejaVuSans-72" x="540.339844"/>
      <use xlink:href="#DejaVuSans-6f" x="579.203125"/>
      <use xlink:href="#DejaVuSans-6c" x="640.384766"/>
      <use xlink:href="#DejaVuSans-5f" x="668.167969"/>
      <use xlink:href="#DejaVuSans-74" x="718.167969"/>
      <use xlink:href="#DejaVuSans-30" x="757.376953"/>
      <use xlink:href="#DejaVuSans-5f" x="821"/>
      <use xlink:href="#DejaVuSans-72" x="871"/>
      <use xlink:href="#DejaVuSans-31" x="912.113281"/>
      <use xlink:href="#DejaVuSans-5f" x="975.736328"/>
      <use xlink:href="#DejaVuSans-54" x="1025.736328"/>
      <use xlink:href="#DejaVuSans-31" x="1086.820312"/>
      <use xlink:href="#DejaVuSans-20" x="1150.443359"/>
      <use xlink:href="#DejaVuSans-2d" x="1182.230469"/>
      <use xlink:href="#DejaVuSans-20" x="1218.314453"/>
      <use xlink:href="#DejaVuSans-41" x="1250.101562"/>
      <use xlink:href="#DejaVuSans-64" x="1316.759766"/>
      <use xlink:href="#DejaVuSans-61" x="1380.236328"/>
      <use xlink:href="#DejaVuSans-70" x="1441.515625"/>
      <use xlink:href="#DejaVuSans-74" x="1504.992188"/>
      <use xlink:href="#DejaVuSans-65" x="1544.201172"/>
      <use xlink:href="#DejaVuSans-72" x="1605.724609"/>
      <use xlink:href="#DejaVuSans-20" x="1646.837891"/>
      <use xlink:href="#DejaVuSans-31" x="1678.625"/>
     </g>
    </g>
    <g id="line2d_17">
     <path d="M 60.528125 315.455394 
L 68.528125 315.455394 
L 76.528125 315.455394 
" style="fill: none; stroke: #434348; stroke-linecap: square"/>
    </g>
    <g id="text_20">
     <!-- BG11_control_t0_r2_T1 - Adapter 1 -->
     <g transform="translate(82.928125 318.255394) scale(0.08 -0.08)">
      <use xlink:href="#DejaVuSans-42"/>
      <use xlink:href="#DejaVuSans-47" x="66.853516"/>
      <use xlink:href="#DejaVuSans-31" x="144.34375"/>
      <use xlink:href="#DejaVuSans-31" x="207.966797"/>
      <use xlink:href="#DejaVuSans-5f" x="271.589844"/>
      <use xlink:href="#DejaVuSans-63" x="321.589844"/>
      <use xlink:href="#DejaVuSans-6f" x="376.570312"/>
      <use xlink:href="#DejaVuSans-6e" x="437.751953"/>
      <use xlink:href="#DejaVuSans-74" x="501.130859"/>
      <use xlink:href="#DejaVuSans-72" x="540.339844"/>
      <use xlink:href="#DejaVuSans-6f" x="579.203125"/>
      <use xlink:href="#DejaVuSans-6c" x="640.384766"/>
      <use xlink:href="#DejaVuSans-5f" x="668.167969"/>
      <use xlink:href="#DejaVuSans-74" x="718.167969"/>
      <use xlink:href="#DejaVuSans-30" x="757.376953"/>
      <use xlink:href="#DejaVuSans-5f" x="821"/>
      <use xlink:href="#DejaVuSans-72" x="871"/>
      <use xlink:href="#DejaVuSans-32" x="912.113281"/>
      <use xlink:href="#DejaVuSans-5f" x="975.736328"/>
      <use xlink:href="#DejaVuSans-54" x="1025.736328"/>
      <use xlink:href="#DejaVuSans-31" x="1086.820312"/>
      <use xlink:href="#DejaVuSans-20" x="1150.443359"/>
      <use xlink:href="#DejaVuSans-2d" x="1182.230469"/>
      <use xlink:href="#DejaVuSans-20" x="1218.314453"/>
      <use xlink:href="#DejaVuSans-41" x="1250.101562"/>
      <use xlink:href="#DejaVuSans-64" x="1316.759766"/>
      <use xlink:href="#DejaVuSans-61" x="1380.236328"/>
      <use xlink:href="#DejaVuSans-70" x="1441.515625"/>
      <use xlink:href="#DejaVuSans-74" x="1504.992188"/>
      <use xlink:href="#DejaVuSans-65" x="1544.201172"/>
      <use xlink:href="#DejaVuSans-72" x="1605.724609"/>
      <use xlink:href="#DejaVuSans-20" x="1646.837891"/>
      <use xlink:href="#DejaVuSans-31" x="1678.625"/>
     </g>
    </g>
    <g id="line2d_18">
     <path d="M 280.73625 303.490394 
L 288.73625 303.490394 
L 296.73625 303.490394 
" style="fill: none; stroke: #90ed7d; stroke-linecap: square"/>
    </g>
    <g id="text_21">
     <!-- BG11_control_t8_r1_T1 - Adapter 1 -->
     <g transform="translate(303.13625 306.290394) scale(0.08 -0.08)">
      <use xlink:href="#DejaVuSans-42"/>
      <use xlink:href="#DejaVuSans-47" x="66.853516"/>
      <use xlink:href="#DejaVuSans-31" x="144.34375"/>
      <use xlink:href="#DejaVuSans-31" x="207.966797"/>
      <use xlink:href="#DejaVuSans-5f" x="271.589844"/>
      <use xlink:href="#DejaVuSans-63" x="321.589844"/>
      <use xlink:href="#DejaVuSans-6f" x="376.570312"/>
      <use xlink:href="#DejaVuSans-6e" x="437.751953"/>
      <use xlink:href="#DejaVuSans-74" x="501.130859"/>
      <use xlink:href="#DejaVuSans-72" x="540.339844"/>
      <use xlink:href="#DejaVuSans-6f" x="579.203125"/>
      <use xlink:href="#DejaVuSans-6c" x="640.384766"/>
      <use xlink:href="#DejaVuSans-5f" x="668.167969"/>
      <use xlink:href="#DejaVuSans-74" x="718.167969"/>
      <use xlink:href="#DejaVuSans-38" x="757.376953"/>
      <use xlink:href="#DejaVuSans-5f" x="821"/>
      <use xlink:href="#DejaVuSans-72" x="871"/>
      <use xlink:href="#DejaVuSans-31" x="912.113281"/>
      <use xlink:href="#DejaVuSans-5f" x="975.736328"/>
      <use xlink:href="#DejaVuSans-54" x="1025.736328"/>
      <use xlink:href="#DejaVuSans-31" x="1086.820312"/>
      <use xlink:href="#DejaVuSans-20" x="1150.443359"/>
      <use xlink:href="#DejaVuSans-2d" x="1182.230469"/>
      <use xlink:href="#DejaVuSans-20" x="1218.314453"/>
      <use xlink:href="#DejaVuSans-41" x="1250.101562"/>
      <use xlink:href="#DejaVuSans-64" x="1316.759766"/>
      <use xlink:href="#DejaVuSans-61" x="1380.236328"/>
      <use xlink:href="#DejaVuSans-70" x="1441.515625"/>
      <use xlink:href="#DejaVuSans-74" x="1504.992188"/>
      <use xlink:href="#DejaVuSans-65" x="1544.201172"/>
      <use xlink:href="#DejaVuSans-72" x="1605.724609"/>
      <use xlink:href="#DejaVuSans-20" x="1646.837891"/>
      <use xlink:href="#DejaVuSans-31" x="1678.625"/>
     </g>
    </g>
    <g id="line2d_19">
     <path d="M 280.73625 315.455394 
L 288.73625 315.455394 
L 296.73625 315.455394 
" style="fill: none; stroke: #f7a35c; stroke-linecap: square"/>
    </g>
    <g id="text_22">
     <!-- BG11_control_t8_r2_T1 - Adapter 1 -->
     <g transform="translate(303.13625 318.255394) scale(0.08 -0.08)">
      <use xlink:href="#DejaVuSans-42"/>
      <use xlink:href="#DejaVuSans-47" x="66.853516"/>
      <use xlink:href="#DejaVuSans-31" x="144.34375"/>
      <use xlink:href="#DejaVuSans-31" x="207.966797"/>
      <use xlink:href="#DejaVuSans-5f" x="271.589844"/>
      <use xlink:href="#DejaVuSans-63" x="321.589844"/>
      <use xlink:href="#DejaVuSans-6f" x="376.570312"/>
      <use xlink:href="#DejaVuSans-6e" x="437.751953"/>
      <use xlink:href="#DejaVuSans-74" x="501.130859"/>
      <use xlink:href="#DejaVuSans-72" x="540.339844"/>
      <use xlink:href="#DejaVuSans-6f" x="579.203125"/>
      <use xlink:href="#DejaVuSans-6c" x="640.384766"/>
      <use xlink:href="#DejaVuSans-5f" x="668.167969"/>
      <use xlink:href="#DejaVuSans-74" x="718.167969"/>
      <use xlink:href="#DejaVuSans-38" x="757.376953"/>
      <use xlink:href="#DejaVuSans-5f" x="821"/>
      <use xlink:href="#DejaVuSans-72" x="871"/>
      <use xlink:href="#DejaVuSans-32" x="912.113281"/>
      <use xlink:href="#DejaVuSans-5f" x="975.736328"/>
      <use xlink:href="#DejaVuSans-54" x="1025.736328"/>
      <use xlink:href="#DejaVuSans-31" x="1086.820312"/>
      <use xlink:href="#DejaVuSans-20" x="1150.443359"/>
      <use xlink:href="#DejaVuSans-2d" x="1182.230469"/>
      <use xlink:href="#DejaVuSans-20" x="1218.314453"/>
      <use xlink:href="#DejaVuSans-41" x="1250.101562"/>
      <use xlink:href="#DejaVuSans-64" x="1316.759766"/>
      <use xlink:href="#DejaVuSans-61" x="1380.236328"/>
      <use xlink:href="#DejaVuSans-70" x="1441.515625"/>
      <use xlink:href="#DejaVuSans-74" x="1504.992188"/>
      <use xlink:href="#DejaVuSans-65" x="1544.201172"/>
      <use xlink:href="#DejaVuSans-72" x="1605.724609"/>
      <use xlink:href="#DejaVuSans-20" x="1646.837891"/>
      <use xlink:href="#DejaVuSans-31" x="1678.625"/>
     </g>
    </g>
    <g id="line2d_20">
     <path d="M 500.944375 303.490394 
L 508.944375 303.490394 
L 516.944375 303.490394 
" style="fill: none; stroke: #8085e9; stroke-linecap: square"/>
    </g>
    <g id="text_23">
     <!-- Lys_t0_r1_T1 - Adapter 1 -->
     <g transform="translate(523.344375 306.290394) scale(0.08 -0.08)">
      <defs>
       <path id="DejaVuSans-79" d="M 2059 -325 
Q 1816 -950 1584 -1140 
Q 1353 -1331 966 -1331 
L 506 -1331 
L 506 -850 
L 844 -850 
Q 1081 -850 1212 -737 
Q 1344 -625 1503 -206 
L 1606 56 
L 191 3500 
L 800 3500 
L 1894 763 
L 2988 3500 
L 3597 3500 
L 2059 -325 
z
" transform="scale(0.015625)"/>
      </defs>
      <use xlink:href="#DejaVuSans-4c"/>
      <use xlink:href="#DejaVuSans-79" x="46.587891"/>
      <use xlink:href="#DejaVuSans-73" x="105.767578"/>
      <use xlink:href="#DejaVuSans-5f" x="157.867188"/>
      <use xlink:href="#DejaVuSans-74" x="207.867188"/>
      <use xlink:href="#DejaVuSans-30" x="247.076172"/>
      <use xlink:href="#DejaVuSans-5f" x="310.699219"/>
      <use xlink:href="#DejaVuSans-72" x="360.699219"/>
      <use xlink:href="#DejaVuSans-31" x="401.8125"/>
      <use xlink:href="#DejaVuSans-5f" x="465.435547"/>
      <use xlink:href="#DejaVuSans-54" x="515.435547"/>
      <use xlink:href="#DejaVuSans-31" x="576.519531"/>
      <use xlink:href="#DejaVuSans-20" x="640.142578"/>
      <use xlink:href="#DejaVuSans-2d" x="671.929688"/>
      <use xlink:href="#DejaVuSans-20" x="708.013672"/>
      <use xlink:href="#DejaVuSans-41" x="739.800781"/>
      <use xlink:href="#DejaVuSans-64" x="806.458984"/>
      <use xlink:href="#DejaVuSans-61" x="869.935547"/>
      <use xlink:href="#DejaVuSans-70" x="931.214844"/>
      <use xlink:href="#DejaVuSans-74" x="994.691406"/>
      <use xlink:href="#DejaVuSans-65" x="1033.900391"/>
      <use xlink:href="#DejaVuSans-72" x="1095.423828"/>
      <use xlink:href="#DejaVuSans-20" x="1136.537109"/>
      <use xlink:href="#DejaVuSans-31" x="1168.324219"/>
     </g>
    </g>
    <g id="line2d_21">
     <path d="M 500.944375 315.455394 
L 508.944375 315.455394 
L 516.944375 315.455394 
" style="fill: none; stroke: #f15c80; stroke-linecap: square"/>
    </g>
    <g id="text_24">
     <!-- Lys_t0_r2_T1 - Adapter 1 -->
     <g transform="translate(523.344375 318.255394) scale(0.08 -0.08)">
      <use xlink:href="#DejaVuSans-4c"/>
      <use xlink:href="#DejaVuSans-79" x="46.587891"/>
      <use xlink:href="#DejaVuSans-73" x="105.767578"/>
      <use xlink:href="#DejaVuSans-5f" x="157.867188"/>
      <use xlink:href="#DejaVuSans-74" x="207.867188"/>
      <use xlink:href="#DejaVuSans-30" x="247.076172"/>
      <use xlink:href="#DejaVuSans-5f" x="310.699219"/>
      <use xlink:href="#DejaVuSans-72" x="360.699219"/>
      <use xlink:href="#DejaVuSans-32" x="401.8125"/>
      <use xlink:href="#DejaVuSans-5f" x="465.435547"/>
      <use xlink:href="#DejaVuSans-54" x="515.435547"/>
      <use xlink:href="#DejaVuSans-31" x="576.519531"/>
      <use xlink:href="#DejaVuSans-20" x="640.142578"/>
      <use xlink:href="#DejaVuSans-2d" x="671.929688"/>
      <use xlink:href="#DejaVuSans-20" x="708.013672"/>
      <use xlink:href="#DejaVuSans-41" x="739.800781"/>
      <use xlink:href="#DejaVuSans-64" x="806.458984"/>
      <use xlink:href="#DejaVuSans-61" x="869.935547"/>
      <use xlink:href="#DejaVuSans-70" x="931.214844"/>
      <use xlink:href="#DejaVuSans-74" x="994.691406"/>
      <use xlink:href="#DejaVuSans-65" x="1033.900391"/>
      <use xlink:href="#DejaVuSans-72" x="1095.423828"/>
      <use xlink:href="#DejaVuSans-20" x="1136.537109"/>
      <use xlink:href="#DejaVuSans-31" x="1168.324219"/>
     </g>
    </g>
    <g id="line2d_22">
     <path d="M 680.32875 303.490394 
L 688.32875 303.490394 
L 696.32875 303.490394 
" style="fill: none; stroke: #e4d354; stroke-linecap: square"/>
    </g>
    <g id="text_25">
     <!-- Lys_t8_r1_T1 - Adapter 1 -->
     <g transform="translate(702.72875 306.290394) scale(0.08 -0.08)">
      <use xlink:href="#DejaVuSans-4c"/>
      <use xlink:href="#DejaVuSans-79" x="46.587891"/>
      <use xlink:href="#DejaVuSans-73" x="105.767578"/>
      <use xlink:href="#DejaVuSans-5f" x="157.867188"/>
      <use xlink:href="#DejaVuSans-74" x="207.867188"/>
      <use xlink:href="#DejaVuSans-38" x="247.076172"/>
      <use xlink:href="#DejaVuSans-5f" x="310.699219"/>
      <use xlink:href="#DejaVuSans-72" x="360.699219"/>
      <use xlink:href="#DejaVuSans-31" x="401.8125"/>
      <use xlink:href="#DejaVuSans-5f" x="465.435547"/>
      <use xlink:href="#DejaVuSans-54" x="515.435547"/>
      <use xlink:href="#DejaVuSans-31" x="576.519531"/>
      <use xlink:href="#DejaVuSans-20" x="640.142578"/>
      <use xlink:href="#DejaVuSans-2d" x="671.929688"/>
      <use xlink:href="#DejaVuSans-20" x="708.013672"/>
      <use xlink:href="#DejaVuSans-41" x="739.800781"/>
      <use xlink:href="#DejaVuSans-64" x="806.458984"/>
      <use xlink:href="#DejaVuSans-61" x="869.935547"/>
      <use xlink:href="#DejaVuSans-70" x="931.214844"/>
      <use xlink:href="#DejaVuSans-74" x="994.691406"/>
      <use xlink:href="#DejaVuSans-65" x="1033.900391"/>
      <use xlink:href="#DejaVuSans-72" x="1095.423828"/>
      <use xlink:href="#DejaVuSans-20" x="1136.537109"/>
      <use xlink:href="#DejaVuSans-31" x="1168.324219"/>
     </g>
    </g>
    <g id="line2d_23">
     <path d="M 859.713125 303.490394 
L 867.713125 303.490394 
L 875.713125 303.490394 
" style="fill: none; stroke: #2b908f; stroke-linecap: square"/>
    </g>
    <g id="text_26">
     <!-- Lys_t8_r2_T1 - Adapter 1 -->
     <g transform="translate(882.113125 306.290394) scale(0.08 -0.08)">
      <use xlink:href="#DejaVuSans-4c"/>
      <use xlink:href="#DejaVuSans-79" x="46.587891"/>
      <use xlink:href="#DejaVuSans-73" x="105.767578"/>
      <use xlink:href="#DejaVuSans-5f" x="157.867188"/>
      <use xlink:href="#DejaVuSans-74" x="207.867188"/>
      <use xlink:href="#DejaVuSans-38" x="247.076172"/>
      <use xlink:href="#DejaVuSans-5f" x="310.699219"/>
      <use xlink:href="#DejaVuSans-72" x="360.699219"/>
      <use xlink:href="#DejaVuSans-32" x="401.8125"/>
      <use xlink:href="#DejaVuSans-5f" x="465.435547"/>
      <use xlink:href="#DejaVuSans-54" x="515.435547"/>
      <use xlink:href="#DejaVuSans-31" x="576.519531"/>
      <use xlink:href="#DejaVuSans-20" x="640.142578"/>
      <use xlink:href="#DejaVuSans-2d" x="671.929688"/>
      <use xlink:href="#DejaVuSans-20" x="708.013672"/>
      <use xlink:href="#DejaVuSans-41" x="739.800781"/>
      <use xlink:href="#DejaVuSans-64" x="806.458984"/>
      <use xlink:href="#DejaVuSans-61" x="869.935547"/>
      <use xlink:href="#DejaVuSans-70" x="931.214844"/>
      <use xlink:href="#DejaVuSans-74" x="994.691406"/>
      <use xlink:href="#DejaVuSans-65" x="1033.900391"/>
      <use xlink:href="#DejaVuSans-72" x="1095.423828"/>
      <use xlink:href="#DejaVuSans-20" x="1136.537109"/>
      <use xlink:href="#DejaVuSans-31" x="1168.324219"/>
     </g>
    </g>
   </g>
  </g>
 </g>
 <defs>
  <clipPath id="p65ef3a6f75">
   <rect x="53.328125" y="31.48286" width="934.54" height="242.5072"/>
  </clipPath>
 </defs>
</svg>
