<?xml version="1.0" encoding="utf-8" standalone="no"?>
<!DOCTYPE svg PUBLIC "-//W3C//DTD SVG 1.1//EN"
  "http://www.w3.org/Graphics/SVG/1.1/DTD/svg11.dtd">
<svg xmlns:xlink="http://www.w3.org/1999/xlink" width="1000.280625pt" height="330.541644pt" viewBox="0 0 1000.280625 330.541644" xmlns="http://www.w3.org/2000/svg" version="1.1">
 <metadata>
  <rdf:RDF xmlns:dc="http://purl.org/dc/elements/1.1/" xmlns:cc="http://creativecommons.org/ns#" xmlns:rdf="http://www.w3.org/1999/02/22-rdf-syntax-ns#">
   <cc:Work>
    <dc:type rdf:resource="http://purl.org/dc/dcmitype/StillImage"/>
    <dc:date>2024-01-12T01:06:24.482008</dc:date>
    <dc:format>image/svg+xml</dc:format>
    <dc:creator>
     <cc:Agent>
      <dc:title>Matplotlib v3.6.2, https://matplotlib.org/</dc:title>
     </cc:Agent>
    </dc:creator>
   </cc:Work>
  </rdf:RDF>
 </metadata>
 <defs>
  <style type="text/css">*{stroke-linejoin: round; stroke-linecap: butt}</style>
 </defs>
 <g id="figure_1">
  <g id="axes_1">
   <g id="patch_1">
    <path d="M 40.600625 273.99006 
L 985.445625 273.99006 
L 985.445625 31.48286 
L 40.600625 31.48286 
z
" style="fill: #ffffff"/>
   </g>
   <g id="matplotlib.axis_1">
    <g id="xtick_1">
     <g id="text_1">
      <!-- 0 -->
      <g transform="translate(38.055625 287.06881) scale(0.08 -0.08)">
       <defs>
        <path id="DejaVuSans-30" d="M 2034 4250 
Q 1547 4250 1301 3770 
Q 1056 3291 1056 2328 
Q 1056 1369 1301 889 
Q 1547 409 2034 409 
Q 2525 409 2770 889 
Q 3016 1369 3016 2328 
Q 3016 3291 2770 3770 
Q 2525 4250 2034 4250 
z
M 2034 4750 
Q 2819 4750 3233 4129 
Q 3647 3509 3647 2328 
Q 3647 1150 3233 529 
Q 2819 -91 2034 -91 
Q 1250 -91 836 529 
Q 422 1150 422 2328 
Q 422 3509 836 4129 
Q 1250 4750 2034 4750 
z
" transform="scale(0.015625)"/>
       </defs>
       <use xlink:href="#DejaVuSans-30"/>
      </g>
     </g>
    </g>
    <g id="xtick_2">
     <g id="text_2">
      <!-- 20 -->
      <g transform="translate(224.479625 287.06881) scale(0.08 -0.08)">
       <defs>
        <path id="DejaVuSans-32" d="M 1228 531 
L 3431 531 
L 3431 0 
L 469 0 
L 469 531 
Q 828 903 1448 1529 
Q 2069 2156 2228 2338 
Q 2531 2678 2651 2914 
Q 2772 3150 2772 3378 
Q 2772 3750 2511 3984 
Q 2250 4219 1831 4219 
Q 1534 4219 1204 4116 
Q 875 4013 500 3803 
L 500 4441 
Q 881 4594 1212 4672 
Q 1544 4750 1819 4750 
Q 2544 4750 2975 4387 
Q 3406 4025 3406 3419 
Q 3406 3131 3298 2873 
Q 3191 2616 2906 2266 
Q 2828 2175 2409 1742 
Q 1991 1309 1228 531 
z
" transform="scale(0.015625)"/>
       </defs>
       <use xlink:href="#DejaVuSans-32"/>
       <use xlink:href="#DejaVuSans-30" x="63.623047"/>
      </g>
     </g>
    </g>
    <g id="xtick_3">
     <g id="text_3">
      <!-- 40 -->
      <g transform="translate(413.448625 287.06881) scale(0.08 -0.08)">
       <defs>
        <path id="DejaVuSans-34" d="M 2419 4116 
L 825 1625 
L 2419 1625 
L 2419 4116 
z
M 2253 4666 
L 3047 4666 
L 3047 1625 
L 3713 1625 
L 3713 1100 
L 3047 1100 
L 3047 0 
L 2419 0 
L 2419 1100 
L 313 1100 
L 313 1709 
L 2253 4666 
z
" transform="scale(0.015625)"/>
       </defs>
       <use xlink:href="#DejaVuSans-34"/>
       <use xlink:href="#DejaVuSans-30" x="63.623047"/>
      </g>
     </g>
    </g>
    <g id="xtick_4">
     <g id="text_4">
      <!-- 60 -->
      <g transform="translate(602.417625 287.06881) scale(0.08 -0.08)">
       <defs>
        <path id="DejaVuSans-36" d="M 2113 2584 
Q 1688 2584 1439 2293 
Q 1191 2003 1191 1497 
Q 1191 994 1439 701 
Q 1688 409 2113 409 
Q 2538 409 2786 701 
Q 3034 994 3034 1497 
Q 3034 2003 2786 2293 
Q 2538 2584 2113 2584 
z
M 3366 4563 
L 3366 3988 
Q 3128 4100 2886 4159 
Q 2644 4219 2406 4219 
Q 1781 4219 1451 3797 
Q 1122 3375 1075 2522 
Q 1259 2794 1537 2939 
Q 1816 3084 2150 3084 
Q 2853 3084 3261 2657 
Q 3669 2231 3669 1497 
Q 3669 778 3244 343 
Q 2819 -91 2113 -91 
Q 1303 -91 875 529 
Q 447 1150 447 2328 
Q 447 3434 972 4092 
Q 1497 4750 2381 4750 
Q 2619 4750 2861 4703 
Q 3103 4656 3366 4563 
z
" transform="scale(0.015625)"/>
       </defs>
       <use xlink:href="#DejaVuSans-36"/>
       <use xlink:href="#DejaVuSans-30" x="63.623047"/>
      </g>
     </g>
    </g>
    <g id="xtick_5">
     <g id="text_5">
      <!-- 80 -->
      <g transform="translate(791.386625 287.06881) scale(0.08 -0.08)">
       <defs>
        <path id="DejaVuSans-38" d="M 2034 2216 
Q 1584 2216 1326 1975 
Q 1069 1734 1069 1313 
Q 1069 891 1326 650 
Q 1584 409 2034 409 
Q 2484 409 2743 651 
Q 3003 894 3003 1313 
Q 3003 1734 2745 1975 
Q 2488 2216 2034 2216 
z
M 1403 2484 
Q 997 2584 770 2862 
Q 544 3141 544 3541 
Q 544 4100 942 4425 
Q 1341 4750 2034 4750 
Q 2731 4750 3128 4425 
Q 3525 4100 3525 3541 
Q 3525 3141 3298 2862 
Q 3072 2584 2669 2484 
Q 3125 2378 3379 2068 
Q 3634 1759 3634 1313 
Q 3634 634 3220 271 
Q 2806 -91 2034 -91 
Q 1263 -91 848 271 
Q 434 634 434 1313 
Q 434 1759 690 2068 
Q 947 2378 1403 2484 
z
M 1172 3481 
Q 1172 3119 1398 2916 
Q 1625 2713 2034 2713 
Q 2441 2713 2670 2916 
Q 2900 3119 2900 3481 
Q 2900 3844 2670 4047 
Q 2441 4250 2034 4250 
Q 1625 4250 1398 4047 
Q 1172 3844 1172 3481 
z
" transform="scale(0.015625)"/>
       </defs>
       <use xlink:href="#DejaVuSans-38"/>
       <use xlink:href="#DejaVuSans-30" x="63.623047"/>
      </g>
     </g>
    </g>
    <g id="xtick_6">
     <g id="text_6">
      <!-- 100 -->
      <g transform="translate(977.810625 287.06881) scale(0.08 -0.08)">
       <defs>
        <path id="DejaVuSans-31" d="M 794 531 
L 1825 531 
L 1825 4091 
L 703 3866 
L 703 4441 
L 1819 4666 
L 2450 4666 
L 2450 531 
L 3481 531 
L 3481 0 
L 794 0 
L 794 531 
z
" transform="scale(0.015625)"/>
       </defs>
       <use xlink:href="#DejaVuSans-31"/>
       <use xlink:href="#DejaVuSans-30" x="63.623047"/>
       <use xlink:href="#DejaVuSans-30" x="127.246094"/>
      </g>
     </g>
    </g>
    <g id="text_7">
     <!-- % GC -->
     <g transform="translate(499.317656 300.330997) scale(0.1 -0.1)">
      <defs>
       <path id="DejaVuSans-25" d="M 4653 2053 
Q 4381 2053 4226 1822 
Q 4072 1591 4072 1178 
Q 4072 772 4226 539 
Q 4381 306 4653 306 
Q 4919 306 5073 539 
Q 5228 772 5228 1178 
Q 5228 1588 5073 1820 
Q 4919 2053 4653 2053 
z
M 4653 2450 
Q 5147 2450 5437 2106 
Q 5728 1763 5728 1178 
Q 5728 594 5436 251 
Q 5144 -91 4653 -91 
Q 4153 -91 3862 251 
Q 3572 594 3572 1178 
Q 3572 1766 3864 2108 
Q 4156 2450 4653 2450 
z
M 1428 4353 
Q 1159 4353 1004 4120 
Q 850 3888 850 3481 
Q 850 3069 1003 2837 
Q 1156 2606 1428 2606 
Q 1700 2606 1854 2837 
Q 2009 3069 2009 3481 
Q 2009 3884 1853 4118 
Q 1697 4353 1428 4353 
z
M 4250 4750 
L 4750 4750 
L 1831 -91 
L 1331 -91 
L 4250 4750 
z
M 1428 4750 
Q 1922 4750 2215 4408 
Q 2509 4066 2509 3481 
Q 2509 2891 2217 2550 
Q 1925 2209 1428 2209 
Q 931 2209 642 2551 
Q 353 2894 353 3481 
Q 353 4063 643 4406 
Q 934 4750 1428 4750 
z
" transform="scale(0.015625)"/>
       <path id="DejaVuSans-20" transform="scale(0.015625)"/>
       <path id="DejaVuSans-47" d="M 3809 666 
L 3809 1919 
L 2778 1919 
L 2778 2438 
L 4434 2438 
L 4434 434 
Q 4069 175 3628 42 
Q 3188 -91 2688 -91 
Q 1594 -91 976 548 
Q 359 1188 359 2328 
Q 359 3472 976 4111 
Q 1594 4750 2688 4750 
Q 3144 4750 3555 4637 
Q 3966 4525 4313 4306 
L 4313 3634 
Q 3963 3931 3569 4081 
Q 3175 4231 2741 4231 
Q 1884 4231 1454 3753 
Q 1025 3275 1025 2328 
Q 1025 1384 1454 906 
Q 1884 428 2741 428 
Q 3075 428 3337 486 
Q 3600 544 3809 666 
z
" transform="scale(0.015625)"/>
       <path id="DejaVuSans-43" d="M 4122 4306 
L 4122 3641 
Q 3803 3938 3442 4084 
Q 3081 4231 2675 4231 
Q 1875 4231 1450 3742 
Q 1025 3253 1025 2328 
Q 1025 1406 1450 917 
Q 1875 428 2675 428 
Q 3081 428 3442 575 
Q 3803 722 4122 1019 
L 4122 359 
Q 3791 134 3420 21 
Q 3050 -91 2638 -91 
Q 1578 -91 968 557 
Q 359 1206 359 2328 
Q 359 3453 968 4101 
Q 1578 4750 2638 4750 
Q 3056 4750 3426 4639 
Q 3797 4528 4122 4306 
z
" transform="scale(0.015625)"/>
      </defs>
      <use xlink:href="#DejaVuSans-25"/>
      <use xlink:href="#DejaVuSans-20" x="95.019531"/>
      <use xlink:href="#DejaVuSans-47" x="126.806641"/>
      <use xlink:href="#DejaVuSans-43" x="204.296875"/>
     </g>
    </g>
   </g>
   <g id="matplotlib.axis_2">
    <g id="ytick_1">
     <g id="line2d_1">
      <path d="M 40.600625 273.99006 
L 985.445625 273.99006 
" clip-path="url(#pbd1abe87ba)" style="fill: none; stroke: #dedede; stroke-linecap: square"/>
     </g>
     <g id="text_8">
      <!-- 0.0 -->
      <g transform="translate(20.878125 277.029435) scale(0.08 -0.08)">
       <defs>
        <path id="DejaVuSans-2e" d="M 684 794 
L 1344 794 
L 1344 0 
L 684 0 
L 684 794 
z
" transform="scale(0.015625)"/>
       </defs>
       <use xlink:href="#DejaVuSans-30"/>
       <use xlink:href="#DejaVuSans-2e" x="63.623047"/>
       <use xlink:href="#DejaVuSans-30" x="95.410156"/>
      </g>
     </g>
    </g>
    <g id="ytick_2">
     <g id="line2d_2">
      <path d="M 40.600625 222.6165 
L 985.445625 222.6165 
" clip-path="url(#pbd1abe87ba)" style="fill: none; stroke: #dedede; stroke-linecap: square"/>
     </g>
     <g id="text_9">
      <!-- 0.5 -->
      <g transform="translate(20.878125 225.655875) scale(0.08 -0.08)">
       <defs>
        <path id="DejaVuSans-35" d="M 691 4666 
L 3169 4666 
L 3169 4134 
L 1269 4134 
L 1269 2991 
Q 1406 3038 1543 3061 
Q 1681 3084 1819 3084 
Q 2600 3084 3056 2656 
Q 3513 2228 3513 1497 
Q 3513 744 3044 326 
Q 2575 -91 1722 -91 
Q 1428 -91 1123 -41 
Q 819 9 494 109 
L 494 744 
Q 775 591 1075 516 
Q 1375 441 1709 441 
Q 2250 441 2565 725 
Q 2881 1009 2881 1497 
Q 2881 1984 2565 2268 
Q 2250 2553 1709 2553 
Q 1456 2553 1204 2497 
Q 953 2441 691 2322 
L 691 4666 
z
" transform="scale(0.015625)"/>
       </defs>
       <use xlink:href="#DejaVuSans-30"/>
       <use xlink:href="#DejaVuSans-2e" x="63.623047"/>
       <use xlink:href="#DejaVuSans-35" x="95.410156"/>
      </g>
     </g>
    </g>
    <g id="ytick_3">
     <g id="line2d_3">
      <path d="M 40.600625 171.24294 
L 985.445625 171.24294 
" clip-path="url(#pbd1abe87ba)" style="fill: none; stroke: #dedede; stroke-linecap: square"/>
     </g>
     <g id="text_10">
      <!-- 1.0 -->
      <g transform="translate(20.878125 174.282315) scale(0.08 -0.08)">
       <use xlink:href="#DejaVuSans-31"/>
       <use xlink:href="#DejaVuSans-2e" x="63.623047"/>
       <use xlink:href="#DejaVuSans-30" x="95.410156"/>
      </g>
     </g>
    </g>
    <g id="ytick_4">
     <g id="line2d_4">
      <path d="M 40.600625 119.86938 
L 985.445625 119.86938 
" clip-path="url(#pbd1abe87ba)" style="fill: none; stroke: #dedede; stroke-linecap: square"/>
     </g>
     <g id="text_11">
      <!-- 1.5 -->
      <g transform="translate(20.878125 122.908755) scale(0.08 -0.08)">
       <use xlink:href="#DejaVuSans-31"/>
       <use xlink:href="#DejaVuSans-2e" x="63.623047"/>
       <use xlink:href="#DejaVuSans-35" x="95.410156"/>
      </g>
     </g>
    </g>
    <g id="ytick_5">
     <g id="line2d_5">
      <path d="M 40.600625 68.49582 
L 985.445625 68.49582 
" clip-path="url(#pbd1abe87ba)" style="fill: none; stroke: #dedede; stroke-linecap: square"/>
     </g>
     <g id="text_12">
      <!-- 2.0 -->
      <g transform="translate(20.878125 71.535195) scale(0.08 -0.08)">
       <use xlink:href="#DejaVuSans-32"/>
       <use xlink:href="#DejaVuSans-2e" x="63.623047"/>
       <use xlink:href="#DejaVuSans-30" x="95.410156"/>
      </g>
     </g>
    </g>
    <g id="text_13">
     <!-- Count -->
     <g transform="translate(14.798438 167.584897) rotate(-90) scale(0.1 -0.1)">
      <defs>
       <path id="DejaVuSans-6f" d="M 1959 3097 
Q 1497 3097 1228 2736 
Q 959 2375 959 1747 
Q 959 1119 1226 758 
Q 1494 397 1959 397 
Q 2419 397 2687 759 
Q 2956 1122 2956 1747 
Q 2956 2369 2687 2733 
Q 2419 3097 1959 3097 
z
M 1959 3584 
Q 2709 3584 3137 3096 
Q 3566 2609 3566 1747 
Q 3566 888 3137 398 
Q 2709 -91 1959 -91 
Q 1206 -91 779 398 
Q 353 888 353 1747 
Q 353 2609 779 3096 
Q 1206 3584 1959 3584 
z
" transform="scale(0.015625)"/>
       <path id="DejaVuSans-75" d="M 544 1381 
L 544 3500 
L 1119 3500 
L 1119 1403 
Q 1119 906 1312 657 
Q 1506 409 1894 409 
Q 2359 409 2629 706 
Q 2900 1003 2900 1516 
L 2900 3500 
L 3475 3500 
L 3475 0 
L 2900 0 
L 2900 538 
Q 2691 219 2414 64 
Q 2138 -91 1772 -91 
Q 1169 -91 856 284 
Q 544 659 544 1381 
z
M 1991 3584 
L 1991 3584 
z
" transform="scale(0.015625)"/>
       <path id="DejaVuSans-6e" d="M 3513 2113 
L 3513 0 
L 2938 0 
L 2938 2094 
Q 2938 2591 2744 2837 
Q 2550 3084 2163 3084 
Q 1697 3084 1428 2787 
Q 1159 2491 1159 1978 
L 1159 0 
L 581 0 
L 581 3500 
L 1159 3500 
L 1159 2956 
Q 1366 3272 1645 3428 
Q 1925 3584 2291 3584 
Q 2894 3584 3203 3211 
Q 3513 2838 3513 2113 
z
" transform="scale(0.015625)"/>
       <path id="DejaVuSans-74" d="M 1172 4494 
L 1172 3500 
L 2356 3500 
L 2356 3053 
L 1172 3053 
L 1172 1153 
Q 1172 725 1289 603 
Q 1406 481 1766 481 
L 2356 481 
L 2356 0 
L 1766 0 
Q 1100 0 847 248 
Q 594 497 594 1153 
L 594 3053 
L 172 3053 
L 172 3500 
L 594 3500 
L 594 4494 
L 1172 4494 
z
" transform="scale(0.015625)"/>
      </defs>
      <use xlink:href="#DejaVuSans-43"/>
      <use xlink:href="#DejaVuSans-6f" x="69.824219"/>
      <use xlink:href="#DejaVuSans-75" x="131.005859"/>
      <use xlink:href="#DejaVuSans-6e" x="194.384766"/>
      <use xlink:href="#DejaVuSans-74" x="257.763672"/>
     </g>
    </g>
    <g id="text_14">
     <!-- 1e6 -->
     <g transform="translate(40.600625 28.48286) scale(0.1 -0.1)">
      <defs>
       <path id="DejaVuSans-65" d="M 3597 1894 
L 3597 1613 
L 953 1613 
Q 991 1019 1311 708 
Q 1631 397 2203 397 
Q 2534 397 2845 478 
Q 3156 559 3463 722 
L 3463 178 
Q 3153 47 2828 -22 
Q 2503 -91 2169 -91 
Q 1331 -91 842 396 
Q 353 884 353 1716 
Q 353 2575 817 3079 
Q 1281 3584 2069 3584 
Q 2775 3584 3186 3129 
Q 3597 2675 3597 1894 
z
M 3022 2063 
Q 3016 2534 2758 2815 
Q 2500 3097 2075 3097 
Q 1594 3097 1305 2825 
Q 1016 2553 972 2059 
L 3022 2063 
z
" transform="scale(0.015625)"/>
      </defs>
      <use xlink:href="#DejaVuSans-31"/>
      <use xlink:href="#DejaVuSans-65" x="63.623047"/>
      <use xlink:href="#DejaVuSans-36" x="125.146484"/>
     </g>
    </g>
   </g>
   <g id="line2d_6">
    <path d="M 40.600625 273.963654 
L 50.049075 273.963859 
L 59.497525 273.964116 
L 68.945975 273.963346 
L 78.394425 273.962935 
L 87.842875 273.963243 
L 97.291325 273.962472 
L 106.739775 273.960983 
L 116.188225 273.958876 
L 125.636675 273.955999 
L 135.085125 273.953328 
L 144.533575 273.950502 
L 153.982025 273.947112 
L 163.430475 273.934782 
L 172.878925 273.91639 
L 182.327375 273.893324 
L 191.775825 273.859263 
L 201.224275 273.811845 
L 210.672725 273.74172 
L 220.121175 273.660499 
L 229.569625 273.583284 
L 239.018075 273.487575 
L 248.466525 273.37481 
L 257.914975 273.265641 
L 267.363425 273.15863 
L 276.811875 273.028963 
L 286.260325 272.866109 
L 295.708775 272.751238 
L 305.157225 272.612632 
L 314.605675 272.41957 
L 324.054125 272.194914 
L 333.502575 271.854256 
L 342.951025 271.292383 
L 352.399475 270.724551 
L 361.847925 267.862941 
L 371.296375 265.177183 
L 380.744825 262.542233 
L 390.193275 259.64312 
L 399.641725 233.087819 
L 409.090175 183.786462 
L 418.538625 151.793835 
L 427.987075 141.292925 
L 437.435525 129.641607 
L 446.883975 125.193325 
L 456.332425 132.28267 
L 465.780875 132.401292 
L 475.229325 131.140379 
L 484.677775 129.047626 
L 494.126225 123.554765 
L 503.574675 120.233875 
L 513.023125 116.126919 
L 522.471575 112.007016 
L 531.920025 112.845895 
L 541.368475 114.093605 
L 550.816925 114.545897 
L 560.265375 116.121781 
L 569.713825 120.113918 
L 579.162275 123.870866 
L 588.610725 129.600816 
L 598.059175 134.898663 
L 607.507625 138.250531 
L 616.956075 145.632861 
L 626.404525 154.712264 
L 635.852975 161.844609 
L 645.301425 171.567672 
L 654.749875 178.372974 
L 664.198325 185.1998 
L 673.646775 192.00315 
L 683.095225 200.170518 
L 692.543675 214.411218 
L 701.992125 222.634892 
L 711.440575 227.728991 
L 720.889025 231.45229 
L 730.337475 234.699202 
L 739.785925 241.521045 
L 749.234375 249.444287 
L 758.682825 254.204869 
L 768.131275 255.535547 
L 777.579725 256.519197 
L 787.028175 260.808067 
L 796.476625 264.929665 
L 805.925075 267.002074 
L 815.373525 269.707252 
L 824.821975 272.16224 
L 834.270425 273.435585 
L 843.718875 273.608971 
L 853.167325 273.735504 
L 862.615775 273.835477 
L 872.064225 273.889625 
L 881.512675 273.911458 
L 890.961125 273.92163 
L 900.409575 273.936991 
L 909.858025 273.952352 
L 919.306475 273.958876 
L 928.754925 273.959801 
L 938.203375 273.961239 
L 947.651825 273.96237 
L 957.100275 273.96237 
L 966.548725 273.96237 
L 975.997175 273.962318 
L 985.445625 273.962267 
" clip-path="url(#pbd1abe87ba)" style="fill: none; stroke: #f0ad4e; stroke-linecap: square"/>
   </g>
   <g id="line2d_7">
    <path d="M 40.600625 273.964065 
L 50.049075 273.964014 
L 59.497525 273.964014 
L 68.945975 273.963243 
L 78.394425 273.962627 
L 87.842875 273.962832 
L 97.291325 273.962216 
L 106.739775 273.96088 
L 116.188225 273.957695 
L 125.636675 273.952814 
L 135.085125 273.948961 
L 144.533575 273.945211 
L 153.982025 273.940741 
L 163.430475 273.926819 
L 172.878925 273.908222 
L 182.327375 273.884025 
L 191.775825 273.849502 
L 201.224275 273.802136 
L 210.672725 273.726976 
L 220.121175 273.638665 
L 229.569625 273.553076 
L 239.018075 273.449456 
L 248.466525 273.332427 
L 257.914975 273.210209 
L 267.363425 273.074891 
L 276.811875 272.925035 
L 286.260325 272.731613 
L 295.708775 272.573948 
L 305.157225 272.40909 
L 314.605675 272.191266 
L 324.054125 271.907581 
L 333.502575 271.481181 
L 342.951025 270.833257 
L 352.399475 270.1803 
L 361.847925 267.145252 
L 371.296375 264.358648 
L 380.744825 261.589407 
L 390.193275 258.476272 
L 399.641725 230.416548 
L 409.090175 177.720478 
L 418.538625 142.934002 
L 427.987075 131.499018 
L 437.435525 119.174707 
L 446.883975 114.492829 
L 456.332425 122.020596 
L 465.780875 122.260048 
L 475.229325 121.060373 
L 484.677775 118.925237 
L 494.126225 113.159685 
L 503.574675 109.633455 
L 513.023125 105.170685 
L 522.471575 100.689061 
L 531.920025 101.54849 
L 541.368475 102.726537 
L 550.816925 103.078035 
L 560.265375 104.971972 
L 569.713825 109.461816 
L 579.162275 113.611464 
L 588.610725 120.04929 
L 598.059175 125.899968 
L 607.507625 129.436729 
L 616.956075 137.364646 
L 626.404525 146.990664 
L 635.852975 154.464232 
L 645.301425 164.865889 
L 654.749875 172.116599 
L 664.198325 179.541106 
L 673.646775 186.95282 
L 683.095225 195.542069 
L 692.543675 210.624473 
L 701.992125 219.526586 
L 711.440575 224.985283 
L 720.889025 228.850219 
L 730.337475 232.344392 
L 739.785925 239.753846 
L 749.234375 248.208085 
L 758.682825 253.191012 
L 768.131275 254.5819 
L 777.579725 255.556148 
L 787.028175 259.977921 
L 796.476625 264.30712 
L 805.925075 266.537709 
L 815.373525 269.402196 
L 824.821975 272.019216 
L 834.270425 273.397158 
L 843.718875 273.590785 
L 853.167325 273.73124 
L 862.615775 273.835374 
L 872.064225 273.886748 
L 881.512675 273.90889 
L 890.961125 273.920654 
L 900.409575 273.936066 
L 909.858025 273.948396 
L 919.306475 273.952968 
L 928.754925 273.953893 
L 938.203375 273.95528 
L 947.651825 273.95641 
L 957.100275 273.956359 
L 966.548725 273.956359 
L 975.997175 273.95641 
L 985.445625 273.956308 
" clip-path="url(#pbd1abe87ba)" style="fill: none; stroke: #f0ad4e; stroke-linecap: square"/>
   </g>
   <g id="line2d_8">
    <path d="M 40.600625 273.963448 
L 50.049075 273.963192 
L 59.497525 273.963089 
L 68.945975 273.962421 
L 78.394425 273.961856 
L 87.842875 273.962061 
L 97.291325 273.961548 
L 106.739775 273.960366 
L 116.188225 273.957592 
L 125.636675 273.953688 
L 135.085125 273.950194 
L 144.533575 273.947009 
L 153.982025 273.943618 
L 163.430475 273.929542 
L 172.878925 273.911664 
L 182.327375 273.891063 
L 191.775825 273.857311 
L 201.224275 273.813746 
L 210.672725 273.748193 
L 220.121175 273.669181 
L 229.569625 273.592531 
L 239.018075 273.499648 
L 248.466525 273.386318 
L 257.914975 273.272114 
L 267.363425 273.155702 
L 276.811875 273.019408 
L 286.260325 272.821106 
L 295.708775 272.66118 
L 305.157225 272.509012 
L 314.605675 272.307165 
L 324.054125 272.06648 
L 333.502575 271.685699 
L 342.951025 271.114322 
L 352.399475 270.575003 
L 361.847925 268.023483 
L 371.296375 265.657577 
L 380.744825 263.309291 
L 390.193275 260.706553 
L 399.641725 237.917036 
L 409.090175 195.330667 
L 418.538625 167.520309 
L 427.987075 158.325623 
L 437.435525 148.170458 
L 446.883975 144.117957 
L 456.332425 149.961494 
L 465.780875 150.015334 
L 475.229325 148.941267 
L 484.677775 147.153621 
L 494.126225 142.6796 
L 503.574675 140.076913 
L 513.023125 137.208727 
L 522.471575 134.322663 
L 531.920025 134.836964 
L 541.368475 135.491103 
L 550.816925 135.657862 
L 560.265375 136.91076 
L 569.713825 140.541484 
L 579.162275 144.306447 
L 588.610725 149.986667 
L 598.059175 155.040387 
L 607.507625 158.15794 
L 616.956075 164.831828 
L 626.404525 172.572231 
L 635.852975 178.639243 
L 645.301425 187.240667 
L 654.749875 193.25276 
L 664.198325 198.888491 
L 673.646775 204.50059 
L 683.095225 211.615109 
L 692.543675 223.904384 
L 701.992125 231.101357 
L 711.440575 235.560325 
L 720.889025 238.70562 
L 730.337475 241.41275 
L 739.785925 247.022897 
L 749.234375 253.623783 
L 758.682825 257.77939 
L 768.131275 259.061314 
L 777.579725 259.865413 
L 787.028175 263.321672 
L 796.476625 266.713817 
L 805.925075 268.414847 
L 815.373525 270.481965 
L 824.821975 272.440788 
L 834.270425 273.5147 
L 843.718875 273.658803 
L 853.167325 273.765814 
L 862.615775 273.851146 
L 872.064225 273.895687 
L 881.512675 273.915568 
L 890.961125 273.926151 
L 900.409575 273.939765 
L 909.858025 273.951119 
L 919.306475 273.955845 
L 928.754925 273.956873 
L 938.203375 273.9579 
L 947.651825 273.958517 
L 957.100275 273.958568 
L 966.548725 273.958619 
L 975.997175 273.958465 
L 985.445625 273.958414 
" clip-path="url(#pbd1abe87ba)" style="fill: none; stroke: #f0ad4e; stroke-linecap: square"/>
   </g>
   <g id="line2d_9">
    <path d="M 40.600625 273.961188 
L 50.049075 273.96088 
L 59.497525 273.960777 
L 68.945975 273.960366 
L 78.394425 273.959904 
L 87.842875 273.959955 
L 97.291325 273.95903 
L 106.739775 273.957592 
L 116.188225 273.954047 
L 125.636675 273.949269 
L 135.085125 273.945879 
L 144.533575 273.943053 
L 153.982025 273.939252 
L 163.430475 273.923428 
L 172.878925 273.903804 
L 182.327375 273.879658 
L 191.775825 273.839484 
L 201.224275 273.790679 
L 210.672725 273.718191 
L 220.121175 273.625308 
L 229.569625 273.537253 
L 239.018075 273.438411 
L 248.466525 273.309206 
L 257.914975 273.17322 
L 267.363425 273.040009 
L 276.811875 272.872839 
L 286.260325 272.672123 
L 295.708775 272.526581 
L 305.157225 272.342767 
L 314.605675 272.120576 
L 324.054125 271.878196 
L 333.502575 271.44224 
L 342.951025 270.754194 
L 352.399475 270.119576 
L 361.847925 267.191694 
L 371.296375 264.473313 
L 380.744825 261.723801 
L 390.193275 258.67067 
L 399.641725 231.510342 
L 409.090175 180.499377 
L 418.538625 147.132403 
L 427.987075 136.291195 
L 437.435525 124.243633 
L 446.883975 119.616827 
L 456.332425 126.858701 
L 465.780875 126.93422 
L 475.229325 125.593627 
L 484.677775 123.177478 
L 494.126225 117.086988 
L 503.574675 113.485907 
L 513.023125 108.947412 
L 522.471575 104.394328 
L 531.920025 105.112838 
L 541.368475 105.780541 
L 550.816925 105.766927 
L 560.265375 107.562792 
L 569.713825 112.129439 
L 579.162275 116.607621 
L 588.610725 123.43003 
L 598.059175 129.441764 
L 607.507625 133.157048 
L 616.956075 140.74518 
L 626.404525 149.459934 
L 635.852975 156.46251 
L 645.301425 166.910145 
L 654.749875 174.361829 
L 664.198325 181.348736 
L 673.646775 188.315966 
L 683.095225 196.944053 
L 692.543675 211.884101 
L 701.992125 220.606098 
L 711.440575 226.022567 
L 720.889025 229.842397 
L 730.337475 233.138216 
L 739.785925 240.091216 
L 749.234375 248.267113 
L 758.682825 253.382995 
L 768.131275 254.927901 
L 777.579725 255.91679 
L 787.028175 260.350174 
L 796.476625 264.692524 
L 805.925075 266.84446 
L 815.373525 269.525954 
L 824.821975 272.051427 
L 834.270425 273.414368 
L 843.718875 273.591401 
L 853.167325 273.719527 
L 862.615775 273.820733 
L 872.064225 273.87899 
L 881.512675 273.903033 
L 890.961125 273.915414 
L 900.409575 273.933344 
L 909.858025 273.947214 
L 919.306475 273.953122 
L 928.754925 273.953996 
L 938.203375 273.955537 
L 947.651825 273.956719 
L 957.100275 273.956821 
L 966.548725 273.956821 
L 975.997175 273.956821 
L 985.445625 273.956873 
" clip-path="url(#pbd1abe87ba)" style="fill: none; stroke: #f0ad4e; stroke-linecap: square"/>
   </g>
   <g id="line2d_10">
    <path d="M 40.600625 273.959647 
L 50.049075 273.959493 
L 59.497525 273.959544 
L 68.945975 273.958722 
L 78.394425 273.957592 
L 87.842875 273.957746 
L 97.291325 273.957592 
L 106.739775 273.956102 
L 116.188225 273.951838 
L 125.636675 273.945981 
L 135.085125 273.94182 
L 144.533575 273.93771 
L 153.982025 273.932008 
L 163.430475 273.918445 
L 172.878925 273.901595 
L 182.327375 273.877912 
L 191.775825 273.837481 
L 201.224275 273.784155 
L 210.672725 273.70956 
L 220.121175 273.61755 
L 229.569625 273.52888 
L 239.018075 273.41632 
L 248.466525 273.288554 
L 257.914975 273.157551 
L 267.363425 273.020538 
L 276.811875 272.849978 
L 286.260325 272.62152 
L 295.708775 272.461491 
L 305.157225 272.310401 
L 314.605675 272.097098 
L 324.054125 271.817421 
L 333.502575 271.42169 
L 342.951025 270.820568 
L 352.399475 270.195403 
L 361.847925 267.235002 
L 371.296375 264.514977 
L 380.744825 261.776304 
L 390.193275 258.697641 
L 399.641725 231.750668 
L 409.090175 180.327327 
L 418.538625 146.02967 
L 427.987075 135.026635 
L 437.435525 123.307864 
L 446.883975 119.484181 
L 456.332425 126.601474 
L 465.780875 126.050749 
L 475.229325 124.826723 
L 484.677775 122.866051 
L 494.126225 117.418296 
L 503.574675 114.036118 
L 513.023125 111.036364 
L 522.471575 108.017448 
L 531.920025 109.004334 
L 541.368475 110.127566 
L 550.816925 110.301208 
L 560.265375 112.09692 
L 569.713825 116.446771 
L 579.162275 120.537904 
L 588.610725 126.849197 
L 598.059175 132.515598 
L 607.507625 135.736772 
L 616.956075 143.204227 
L 626.404525 152.342864 
L 635.852975 159.475775 
L 645.301425 169.789376 
L 654.749875 177.031456 
L 664.198325 183.848265 
L 673.646775 190.64473 
L 683.095225 198.912534 
L 692.543675 213.400494 
L 701.992125 221.890951 
L 711.440575 227.186024 
L 720.889025 230.997377 
L 730.337475 234.325099 
L 739.785925 241.274298 
L 749.234375 249.32099 
L 758.682825 254.264 
L 768.131275 255.69239 
L 777.579725 256.598209 
L 787.028175 260.768869 
L 796.476625 264.862725 
L 805.925075 266.935854 
L 815.373525 269.631322 
L 824.821975 272.133368 
L 834.270425 273.431732 
L 843.718875 273.598028 
L 853.167325 273.721941 
L 862.615775 273.820784 
L 872.064225 273.874624 
L 881.512675 273.896817 
L 890.961125 273.906218 
L 900.409575 273.923274 
L 909.858025 273.938481 
L 919.306475 273.943978 
L 928.754925 273.945005 
L 938.203375 273.946803 
L 947.651825 273.948242 
L 957.100275 273.948293 
L 966.548725 273.948293 
L 975.997175 273.948139 
L 985.445625 273.948036 
" clip-path="url(#pbd1abe87ba)" style="fill: none; stroke: #f0ad4e; stroke-linecap: square"/>
   </g>
   <g id="line2d_11">
    <path d="M 40.600625 273.959339 
L 50.049075 273.958722 
L 59.497525 273.958619 
L 68.945975 273.958106 
L 78.394425 273.957078 
L 87.842875 273.956564 
L 97.291325 273.955948 
L 106.739775 273.954509 
L 116.188225 273.950245 
L 125.636675 273.945108 
L 135.085125 273.94069 
L 144.533575 273.93581 
L 153.982025 273.930672 
L 163.430475 273.915363 
L 172.878925 273.896868 
L 182.327375 273.875497 
L 191.775825 273.841179 
L 201.224275 273.790987 
L 210.672725 273.712951 
L 220.121175 273.623201 
L 229.569625 273.530883 
L 239.018075 273.412313 
L 248.466525 273.281208 
L 257.914975 273.151746 
L 267.363425 273.013089 
L 276.811875 272.84258 
L 286.260325 272.615406 
L 295.708775 272.429434 
L 305.157225 272.250962 
L 314.605675 272.030416 
L 324.054125 271.747604 
L 333.502575 271.318173 
L 342.951025 270.666602 
L 352.399475 269.990782 
L 361.847925 266.83958 
L 371.296375 263.949355 
L 380.744825 261.01988 
L 390.193275 257.77975 
L 399.641725 229.032749 
L 409.090175 174.439197 
L 418.538625 138.105247 
L 427.987075 126.316094 
L 437.435525 113.891707 
L 446.883975 109.732965 
L 456.332425 117.861958 
L 465.780875 118.014537 
L 475.229325 116.760047 
L 484.677775 114.577492 
L 494.126225 108.65335 
L 503.574675 105.022883 
L 513.023125 100.869588 
L 522.471575 96.699031 
L 531.920025 97.647079 
L 541.368475 98.98012 
L 550.816925 99.404671 
L 560.265375 101.366987 
L 569.713825 105.754391 
L 579.162275 109.790504 
L 588.610725 116.416357 
L 598.059175 122.38915 
L 607.507625 126.07844 
L 616.956075 134.411437 
L 626.404525 144.472126 
L 635.852975 152.278801 
L 645.301425 163.19707 
L 654.749875 170.833801 
L 664.198325 178.359771 
L 673.646775 185.862828 
L 683.095225 194.691734 
L 692.543675 210.016158 
L 701.992125 218.944523 
L 711.440575 224.474014 
L 720.889025 228.387395 
L 730.337475 231.861943 
L 739.785925 239.240059 
L 749.234375 247.841432 
L 758.682825 253.031189 
L 768.131275 254.468724 
L 777.579725 255.462853 
L 787.028175 259.9416 
L 796.476625 264.303935 
L 805.925075 266.50935 
L 815.373525 269.360583 
L 824.821975 272.012332 
L 834.270425 273.40548 
L 843.718875 273.586521 
L 853.167325 273.718705 
L 862.615775 273.821709 
L 872.064225 273.873802 
L 881.512675 273.896252 
L 890.961125 273.905705 
L 900.409575 273.921785 
L 909.858025 273.937916 
L 919.306475 273.94367 
L 928.754925 273.944594 
L 938.203375 273.946033 
L 947.651825 273.947317 
L 957.100275 273.947369 
L 966.548725 273.947317 
L 975.997175 273.947317 
L 985.445625 273.947266 
" clip-path="url(#pbd1abe87ba)" style="fill: none; stroke: #f0ad4e; stroke-linecap: square"/>
   </g>
   <g id="line2d_12">
    <path d="M 40.600625 273.961085 
L 50.049075 273.961034 
L 59.497525 273.960828 
L 68.945975 273.959698 
L 78.394425 273.958876 
L 87.842875 273.95903 
L 97.291325 273.958003 
L 106.739775 273.955023 
L 116.188225 273.949218 
L 125.636675 273.941923 
L 135.085125 273.936118 
L 144.533575 273.931751 
L 153.982025 273.927538 
L 163.430475 273.910739 
L 172.878925 273.887005 
L 182.327375 273.85916 
L 191.775825 273.816366 
L 201.224275 273.761242 
L 210.672725 273.671749 
L 220.121175 273.567358 
L 229.569625 273.472985 
L 239.018075 273.349945 
L 248.466525 273.205432 
L 257.914975 273.067288 
L 267.363425 272.914606 
L 276.811875 272.742402 
L 286.260325 272.521598 
L 295.708775 272.342715 
L 305.157225 272.206062 
L 314.605675 272.001852 
L 324.054125 271.768359 
L 333.502575 271.483955 
L 342.951025 271.027552 
L 352.399475 270.604337 
L 361.847925 268.802769 
L 371.296375 267.134926 
L 380.744825 264.855481 
L 390.193275 261.810314 
L 399.641725 245.62718 
L 409.090175 186.170658 
L 418.538625 135.841882 
L 427.987075 128.330554 
L 437.435525 117.76029 
L 446.883975 124.358864 
L 456.332425 96.347225 
L 465.780875 49.480513 
L 475.229325 46.331365 
L 484.677775 44.850317 
L 494.126225 43.310497 
L 503.574675 43.029586 
L 513.023125 102.760392 
L 522.471575 162.398416 
L 531.920025 163.695136 
L 541.368475 151.193124 
L 550.816925 137.670986 
L 560.265375 138.011233 
L 569.713825 143.205511 
L 579.162275 148.646434 
L 588.610725 158.808689 
L 598.059175 169.53667 
L 607.507625 152.598293 
L 616.956075 138.174755 
L 626.404525 143.617835 
L 635.852975 150.684577 
L 645.301425 179.047457 
L 654.749875 202.484743 
L 664.198325 185.420912 
L 673.646775 168.350352 
L 683.095225 175.448996 
L 692.543675 192.414806 
L 701.992125 203.562612 
L 711.440575 218.71961 
L 720.889025 233.326963 
L 730.337475 235.504379 
L 739.785925 239.052803 
L 749.234375 243.436611 
L 758.682825 254.965455 
L 768.131275 264.378992 
L 777.579725 265.021726 
L 787.028175 267.277539 
L 796.476625 269.405946 
L 805.925075 270.462135 
L 815.373525 271.820811 
L 824.821975 273.020898 
L 834.270425 273.651251 
L 843.718875 273.757389 
L 853.167325 273.823096 
L 862.615775 273.871182 
L 872.064225 273.903085 
L 881.512675 273.917777 
L 890.961125 273.923788 
L 900.409575 273.935039 
L 909.858025 273.944235 
L 919.306475 273.948293 
L 928.754925 273.9504 
L 938.203375 273.952095 
L 947.651825 273.952711 
L 957.100275 273.952763 
L 966.548725 273.95266 
L 975.997175 273.952557 
L 985.445625 273.952506 
" clip-path="url(#pbd1abe87ba)" style="fill: none; stroke: #d9534f; stroke-linecap: square"/>
   </g>
   <g id="line2d_13">
    <path d="M 40.600625 273.954818 
L 50.049075 273.954458 
L 59.497525 273.954304 
L 68.945975 273.953431 
L 78.394425 273.952506 
L 87.842875 273.952763 
L 97.291325 273.951478 
L 106.739775 273.948293 
L 116.188225 273.943413 
L 125.636675 273.938378 
L 135.085125 273.93432 
L 144.533575 273.929696 
L 153.982025 273.925175 
L 163.430475 273.910174 
L 172.878925 273.887878 
L 182.327375 273.860136 
L 191.775825 273.821349 
L 201.224275 273.76715 
L 210.672725 273.681305 
L 220.121175 273.588216 
L 229.569625 273.493329 
L 239.018075 273.360066 
L 248.466525 273.22593 
L 257.914975 273.100424 
L 267.363425 272.956218 
L 276.811875 272.774253 
L 286.260325 272.553244 
L 295.708775 272.388027 
L 305.157225 272.212278 
L 314.605675 271.97786 
L 324.054125 271.687292 
L 333.502575 271.277382 
L 342.951025 270.675695 
L 352.399475 270.091475 
L 361.847925 267.426779 
L 371.296375 264.961568 
L 380.744825 262.481509 
L 390.193275 259.449339 
L 399.641725 233.462024 
L 409.090175 180.624779 
L 418.538625 144.149398 
L 427.987075 133.688816 
L 437.435525 122.761968 
L 446.883975 121.884765 
L 456.332425 125.389263 
L 465.780875 119.249404 
L 475.229325 118.214586 
L 484.677775 113.439157 
L 494.126225 105.420617 
L 503.574675 102.171599 
L 513.023125 104.623043 
L 522.471575 107.000868 
L 531.920025 108.85047 
L 541.368475 107.867283 
L 550.816925 105.121572 
L 560.265375 103.929757 
L 569.713825 106.612946 
L 579.162275 110.173288 
L 588.610725 112.147574 
L 598.059175 115.69086 
L 607.507625 116.502716 
L 616.956075 126.470882 
L 626.404525 140.102548 
L 635.852975 148.19486 
L 645.301425 165.097121 
L 654.749875 177.27661 
L 664.198325 180.553884 
L 673.646775 183.824119 
L 683.095225 193.813605 
L 692.543675 212.250497 
L 701.992125 222.418609 
L 711.440575 227.199998 
L 720.889025 230.862727 
L 730.337475 233.322544 
L 739.785925 237.846551 
L 749.234375 243.361246 
L 758.682825 249.680502 
L 768.131275 253.599432 
L 777.579725 255.762772 
L 787.028175 261.349647 
L 796.476625 265.910643 
L 805.925075 267.89356 
L 815.373525 270.197458 
L 824.821975 272.264319 
L 834.270425 273.443805 
L 843.718875 273.603063 
L 853.167325 273.705913 
L 862.615775 273.795611 
L 872.064225 273.860599 
L 881.512675 273.894505 
L 890.961125 273.909814 
L 900.409575 273.927076 
L 909.858025 273.940998 
L 919.306475 273.947471 
L 928.754925 273.948447 
L 938.203375 273.949989 
L 947.651825 273.951016 
L 957.100275 273.951016 
L 966.548725 273.951016 
L 975.997175 273.950913 
L 985.445625 273.950913 
" clip-path="url(#pbd1abe87ba)" style="fill: none; stroke: #f0ad4e; stroke-linecap: square"/>
   </g>
   <g id="line2d_14">
    <path d="M 40.600625 273.99006 
L 985.445625 273.99006 
" clip-path="url(#pbd1abe87ba)" style="fill: none; stroke: #dedede; stroke-width: 2; stroke-linecap: square"/>
   </g>
   <g id="text_15">
    <!-- FastQC: Per Sequence GC Content -->
    <g transform="translate(376.386875 19.3575) scale(0.16 -0.16)">
     <defs>
      <path id="DejaVuSans-46" d="M 628 4666 
L 3309 4666 
L 3309 4134 
L 1259 4134 
L 1259 2759 
L 3109 2759 
L 3109 2228 
L 1259 2228 
L 1259 0 
L 628 0 
L 628 4666 
z
" transform="scale(0.015625)"/>
      <path id="DejaVuSans-61" d="M 2194 1759 
Q 1497 1759 1228 1600 
Q 959 1441 959 1056 
Q 959 750 1161 570 
Q 1363 391 1709 391 
Q 2188 391 2477 730 
Q 2766 1069 2766 1631 
L 2766 1759 
L 2194 1759 
z
M 3341 1997 
L 3341 0 
L 2766 0 
L 2766 531 
Q 2569 213 2275 61 
Q 1981 -91 1556 -91 
Q 1019 -91 701 211 
Q 384 513 384 1019 
Q 384 1609 779 1909 
Q 1175 2209 1959 2209 
L 2766 2209 
L 2766 2266 
Q 2766 2663 2505 2880 
Q 2244 3097 1772 3097 
Q 1472 3097 1187 3025 
Q 903 2953 641 2809 
L 641 3341 
Q 956 3463 1253 3523 
Q 1550 3584 1831 3584 
Q 2591 3584 2966 3190 
Q 3341 2797 3341 1997 
z
" transform="scale(0.015625)"/>
      <path id="DejaVuSans-73" d="M 2834 3397 
L 2834 2853 
Q 2591 2978 2328 3040 
Q 2066 3103 1784 3103 
Q 1356 3103 1142 2972 
Q 928 2841 928 2578 
Q 928 2378 1081 2264 
Q 1234 2150 1697 2047 
L 1894 2003 
Q 2506 1872 2764 1633 
Q 3022 1394 3022 966 
Q 3022 478 2636 193 
Q 2250 -91 1575 -91 
Q 1294 -91 989 -36 
Q 684 19 347 128 
L 347 722 
Q 666 556 975 473 
Q 1284 391 1588 391 
Q 1994 391 2212 530 
Q 2431 669 2431 922 
Q 2431 1156 2273 1281 
Q 2116 1406 1581 1522 
L 1381 1569 
Q 847 1681 609 1914 
Q 372 2147 372 2553 
Q 372 3047 722 3315 
Q 1072 3584 1716 3584 
Q 2034 3584 2315 3537 
Q 2597 3491 2834 3397 
z
" transform="scale(0.015625)"/>
      <path id="DejaVuSans-51" d="M 2522 4238 
Q 1834 4238 1429 3725 
Q 1025 3213 1025 2328 
Q 1025 1447 1429 934 
Q 1834 422 2522 422 
Q 3209 422 3611 934 
Q 4013 1447 4013 2328 
Q 4013 3213 3611 3725 
Q 3209 4238 2522 4238 
z
M 3406 84 
L 4238 -825 
L 3475 -825 
L 2784 -78 
Q 2681 -84 2626 -87 
Q 2572 -91 2522 -91 
Q 1538 -91 948 567 
Q 359 1225 359 2328 
Q 359 3434 948 4092 
Q 1538 4750 2522 4750 
Q 3503 4750 4090 4092 
Q 4678 3434 4678 2328 
Q 4678 1516 4351 937 
Q 4025 359 3406 84 
z
" transform="scale(0.015625)"/>
      <path id="DejaVuSans-3a" d="M 750 794 
L 1409 794 
L 1409 0 
L 750 0 
L 750 794 
z
M 750 3309 
L 1409 3309 
L 1409 2516 
L 750 2516 
L 750 3309 
z
" transform="scale(0.015625)"/>
      <path id="DejaVuSans-50" d="M 1259 4147 
L 1259 2394 
L 2053 2394 
Q 2494 2394 2734 2622 
Q 2975 2850 2975 3272 
Q 2975 3691 2734 3919 
Q 2494 4147 2053 4147 
L 1259 4147 
z
M 628 4666 
L 2053 4666 
Q 2838 4666 3239 4311 
Q 3641 3956 3641 3272 
Q 3641 2581 3239 2228 
Q 2838 1875 2053 1875 
L 1259 1875 
L 1259 0 
L 628 0 
L 628 4666 
z
" transform="scale(0.015625)"/>
      <path id="DejaVuSans-72" d="M 2631 2963 
Q 2534 3019 2420 3045 
Q 2306 3072 2169 3072 
Q 1681 3072 1420 2755 
Q 1159 2438 1159 1844 
L 1159 0 
L 581 0 
L 581 3500 
L 1159 3500 
L 1159 2956 
Q 1341 3275 1631 3429 
Q 1922 3584 2338 3584 
Q 2397 3584 2469 3576 
Q 2541 3569 2628 3553 
L 2631 2963 
z
" transform="scale(0.015625)"/>
      <path id="DejaVuSans-53" d="M 3425 4513 
L 3425 3897 
Q 3066 4069 2747 4153 
Q 2428 4238 2131 4238 
Q 1616 4238 1336 4038 
Q 1056 3838 1056 3469 
Q 1056 3159 1242 3001 
Q 1428 2844 1947 2747 
L 2328 2669 
Q 3034 2534 3370 2195 
Q 3706 1856 3706 1288 
Q 3706 609 3251 259 
Q 2797 -91 1919 -91 
Q 1588 -91 1214 -16 
Q 841 59 441 206 
L 441 856 
Q 825 641 1194 531 
Q 1563 422 1919 422 
Q 2459 422 2753 634 
Q 3047 847 3047 1241 
Q 3047 1584 2836 1778 
Q 2625 1972 2144 2069 
L 1759 2144 
Q 1053 2284 737 2584 
Q 422 2884 422 3419 
Q 422 4038 858 4394 
Q 1294 4750 2059 4750 
Q 2388 4750 2728 4690 
Q 3069 4631 3425 4513 
z
" transform="scale(0.015625)"/>
      <path id="DejaVuSans-71" d="M 947 1747 
Q 947 1113 1208 752 
Q 1469 391 1925 391 
Q 2381 391 2643 752 
Q 2906 1113 2906 1747 
Q 2906 2381 2643 2742 
Q 2381 3103 1925 3103 
Q 1469 3103 1208 2742 
Q 947 2381 947 1747 
z
M 2906 525 
Q 2725 213 2448 61 
Q 2172 -91 1784 -91 
Q 1150 -91 751 415 
Q 353 922 353 1747 
Q 353 2572 751 3078 
Q 1150 3584 1784 3584 
Q 2172 3584 2448 3432 
Q 2725 3281 2906 2969 
L 2906 3500 
L 3481 3500 
L 3481 -1331 
L 2906 -1331 
L 2906 525 
z
" transform="scale(0.015625)"/>
      <path id="DejaVuSans-63" d="M 3122 3366 
L 3122 2828 
Q 2878 2963 2633 3030 
Q 2388 3097 2138 3097 
Q 1578 3097 1268 2742 
Q 959 2388 959 1747 
Q 959 1106 1268 751 
Q 1578 397 2138 397 
Q 2388 397 2633 464 
Q 2878 531 3122 666 
L 3122 134 
Q 2881 22 2623 -34 
Q 2366 -91 2075 -91 
Q 1284 -91 818 406 
Q 353 903 353 1747 
Q 353 2603 823 3093 
Q 1294 3584 2113 3584 
Q 2378 3584 2631 3529 
Q 2884 3475 3122 3366 
z
" transform="scale(0.015625)"/>
     </defs>
     <use xlink:href="#DejaVuSans-46"/>
     <use xlink:href="#DejaVuSans-61" x="48.394531"/>
     <use xlink:href="#DejaVuSans-73" x="109.673828"/>
     <use xlink:href="#DejaVuSans-74" x="161.773438"/>
     <use xlink:href="#DejaVuSans-51" x="200.982422"/>
     <use xlink:href="#DejaVuSans-43" x="279.693359"/>
     <use xlink:href="#DejaVuSans-3a" x="349.517578"/>
     <use xlink:href="#DejaVuSans-20" x="383.208984"/>
     <use xlink:href="#DejaVuSans-50" x="414.996094"/>
     <use xlink:href="#DejaVuSans-65" x="471.673828"/>
     <use xlink:href="#DejaVuSans-72" x="533.197266"/>
     <use xlink:href="#DejaVuSans-20" x="574.310547"/>
     <use xlink:href="#DejaVuSans-53" x="606.097656"/>
     <use xlink:href="#DejaVuSans-65" x="669.574219"/>
     <use xlink:href="#DejaVuSans-71" x="731.097656"/>
     <use xlink:href="#DejaVuSans-75" x="794.574219"/>
     <use xlink:href="#DejaVuSans-65" x="857.953125"/>
     <use xlink:href="#DejaVuSans-6e" x="919.476562"/>
     <use xlink:href="#DejaVuSans-63" x="982.855469"/>
     <use xlink:href="#DejaVuSans-65" x="1037.835938"/>
     <use xlink:href="#DejaVuSans-20" x="1099.359375"/>
     <use xlink:href="#DejaVuSans-47" x="1131.146484"/>
     <use xlink:href="#DejaVuSans-43" x="1208.636719"/>
     <use xlink:href="#DejaVuSans-20" x="1278.460938"/>
     <use xlink:href="#DejaVuSans-43" x="1310.248047"/>
     <use xlink:href="#DejaVuSans-6f" x="1380.072266"/>
     <use xlink:href="#DejaVuSans-6e" x="1441.253906"/>
     <use xlink:href="#DejaVuSans-74" x="1504.632812"/>
     <use xlink:href="#DejaVuSans-65" x="1543.841797"/>
     <use xlink:href="#DejaVuSans-6e" x="1605.365234"/>
     <use xlink:href="#DejaVuSans-74" x="1668.744141"/>
    </g>
   </g>
   <g id="legend_1">
    <g id="line2d_15">
     <path d="M 47.800625 303.490394 
L 55.800625 303.490394 
L 63.800625 303.490394 
" style="fill: none; stroke: #f0ad4e; stroke-linecap: square"/>
    </g>
    <g id="text_16">
     <!-- BG11_control_t0_r1_T1 -->
     <g transform="translate(70.200625 306.290394) scale(0.08 -0.08)">
      <defs>
       <path id="DejaVuSans-42" d="M 1259 2228 
L 1259 519 
L 2272 519 
Q 2781 519 3026 730 
Q 3272 941 3272 1375 
Q 3272 1813 3026 2020 
Q 2781 2228 2272 2228 
L 1259 2228 
z
M 1259 4147 
L 1259 2741 
L 2194 2741 
Q 2656 2741 2882 2914 
Q 3109 3088 3109 3444 
Q 3109 3797 2882 3972 
Q 2656 4147 2194 4147 
L 1259 4147 
z
M 628 4666 
L 2241 4666 
Q 2963 4666 3353 4366 
Q 3744 4066 3744 3513 
Q 3744 3084 3544 2831 
Q 3344 2578 2956 2516 
Q 3422 2416 3680 2098 
Q 3938 1781 3938 1306 
Q 3938 681 3513 340 
Q 3088 0 2303 0 
L 628 0 
L 628 4666 
z
" transform="scale(0.015625)"/>
       <path id="DejaVuSans-5f" d="M 3263 -1063 
L 3263 -1509 
L -63 -1509 
L -63 -1063 
L 3263 -1063 
z
" transform="scale(0.015625)"/>
       <path id="DejaVuSans-6c" d="M 603 4863 
L 1178 4863 
L 1178 0 
L 603 0 
L 603 4863 
z
" transform="scale(0.015625)"/>
       <path id="DejaVuSans-54" d="M -19 4666 
L 3928 4666 
L 3928 4134 
L 2272 4134 
L 2272 0 
L 1638 0 
L 1638 4134 
L -19 4134 
L -19 4666 
z
" transform="scale(0.015625)"/>
      </defs>
      <use xlink:href="#DejaVuSans-42"/>
      <use xlink:href="#DejaVuSans-47" x="66.853516"/>
      <use xlink:href="#DejaVuSans-31" x="144.34375"/>
      <use xlink:href="#DejaVuSans-31" x="207.966797"/>
      <use xlink:href="#DejaVuSans-5f" x="271.589844"/>
      <use xlink:href="#DejaVuSans-63" x="321.589844"/>
      <use xlink:href="#DejaVuSans-6f" x="376.570312"/>
      <use xlink:href="#DejaVuSans-6e" x="437.751953"/>
      <use xlink:href="#DejaVuSans-74" x="501.130859"/>
      <use xlink:href="#DejaVuSans-72" x="540.339844"/>
      <use xlink:href="#DejaVuSans-6f" x="579.203125"/>
      <use xlink:href="#DejaVuSans-6c" x="640.384766"/>
      <use xlink:href="#DejaVuSans-5f" x="668.167969"/>
      <use xlink:href="#DejaVuSans-74" x="718.167969"/>
      <use xlink:href="#DejaVuSans-30" x="757.376953"/>
      <use xlink:href="#DejaVuSans-5f" x="821"/>
      <use xlink:href="#DejaVuSans-72" x="871"/>
      <use xlink:href="#DejaVuSans-31" x="912.113281"/>
      <use xlink:href="#DejaVuSans-5f" x="975.736328"/>
      <use xlink:href="#DejaVuSans-54" x="1025.736328"/>
      <use xlink:href="#DejaVuSans-31" x="1086.820312"/>
     </g>
    </g>
    <g id="line2d_16">
     <path d="M 47.800625 315.455394 
L 55.800625 315.455394 
L 63.800625 315.455394 
" style="fill: none; stroke: #f0ad4e; stroke-linecap: square"/>
    </g>
    <g id="text_17">
     <!-- BG11_control_t0_r2_T1 -->
     <g transform="translate(70.200625 318.255394) scale(0.08 -0.08)">
      <use xlink:href="#DejaVuSans-42"/>
      <use xlink:href="#DejaVuSans-47" x="66.853516"/>
      <use xlink:href="#DejaVuSans-31" x="144.34375"/>
      <use xlink:href="#DejaVuSans-31" x="207.966797"/>
      <use xlink:href="#DejaVuSans-5f" x="271.589844"/>
      <use xlink:href="#DejaVuSans-63" x="321.589844"/>
      <use xlink:href="#DejaVuSans-6f" x="376.570312"/>
      <use xlink:href="#DejaVuSans-6e" x="437.751953"/>
      <use xlink:href="#DejaVuSans-74" x="501.130859"/>
      <use xlink:href="#DejaVuSans-72" x="540.339844"/>
      <use xlink:href="#DejaVuSans-6f" x="579.203125"/>
      <use xlink:href="#DejaVuSans-6c" x="640.384766"/>
      <use xlink:href="#DejaVuSans-5f" x="668.167969"/>
      <use xlink:href="#DejaVuSans-74" x="718.167969"/>
      <use xlink:href="#DejaVuSans-30" x="757.376953"/>
      <use xlink:href="#DejaVuSans-5f" x="821"/>
      <use xlink:href="#DejaVuSans-72" x="871"/>
      <use xlink:href="#DejaVuSans-32" x="912.113281"/>
      <use xlink:href="#DejaVuSans-5f" x="975.736328"/>
      <use xlink:href="#DejaVuSans-54" x="1025.736328"/>
      <use xlink:href="#DejaVuSans-31" x="1086.820312"/>
     </g>
    </g>
    <g id="line2d_17">
     <path d="M 282.420938 303.490394 
L 290.420938 303.490394 
L 298.420938 303.490394 
" style="fill: none; stroke: #f0ad4e; stroke-linecap: square"/>
    </g>
    <g id="text_18">
     <!-- BG11_control_t8_r1_T1 -->
     <g transform="translate(304.820938 306.290394) scale(0.08 -0.08)">
      <use xlink:href="#DejaVuSans-42"/>
      <use xlink:href="#DejaVuSans-47" x="66.853516"/>
      <use xlink:href="#DejaVuSans-31" x="144.34375"/>
      <use xlink:href="#DejaVuSans-31" x="207.966797"/>
      <use xlink:href="#DejaVuSans-5f" x="271.589844"/>
      <use xlink:href="#DejaVuSans-63" x="321.589844"/>
      <use xlink:href="#DejaVuSans-6f" x="376.570312"/>
      <use xlink:href="#DejaVuSans-6e" x="437.751953"/>
      <use xlink:href="#DejaVuSans-74" x="501.130859"/>
      <use xlink:href="#DejaVuSans-72" x="540.339844"/>
      <use xlink:href="#DejaVuSans-6f" x="579.203125"/>
      <use xlink:href="#DejaVuSans-6c" x="640.384766"/>
      <use xlink:href="#DejaVuSans-5f" x="668.167969"/>
      <use xlink:href="#DejaVuSans-74" x="718.167969"/>
      <use xlink:href="#DejaVuSans-38" x="757.376953"/>
      <use xlink:href="#DejaVuSans-5f" x="821"/>
      <use xlink:href="#DejaVuSans-72" x="871"/>
      <use xlink:href="#DejaVuSans-31" x="912.113281"/>
      <use xlink:href="#DejaVuSans-5f" x="975.736328"/>
      <use xlink:href="#DejaVuSans-54" x="1025.736328"/>
      <use xlink:href="#DejaVuSans-31" x="1086.820312"/>
     </g>
    </g>
    <g id="line2d_18">
     <path d="M 282.420938 315.455394 
L 290.420938 315.455394 
L 298.420938 315.455394 
" style="fill: none; stroke: #f0ad4e; stroke-linecap: square"/>
    </g>
    <g id="text_19">
     <!-- BG11_control_t8_r2_T1 -->
     <g transform="translate(304.820938 318.255394) scale(0.08 -0.08)">
      <use xlink:href="#DejaVuSans-42"/>
      <use xlink:href="#DejaVuSans-47" x="66.853516"/>
      <use xlink:href="#DejaVuSans-31" x="144.34375"/>
      <use xlink:href="#DejaVuSans-31" x="207.966797"/>
      <use xlink:href="#DejaVuSans-5f" x="271.589844"/>
      <use xlink:href="#DejaVuSans-63" x="321.589844"/>
      <use xlink:href="#DejaVuSans-6f" x="376.570312"/>
      <use xlink:href="#DejaVuSans-6e" x="437.751953"/>
      <use xlink:href="#DejaVuSans-74" x="501.130859"/>
      <use xlink:href="#DejaVuSans-72" x="540.339844"/>
      <use xlink:href="#DejaVuSans-6f" x="579.203125"/>
      <use xlink:href="#DejaVuSans-6c" x="640.384766"/>
      <use xlink:href="#DejaVuSans-5f" x="668.167969"/>
      <use xlink:href="#DejaVuSans-74" x="718.167969"/>
      <use xlink:href="#DejaVuSans-38" x="757.376953"/>
      <use xlink:href="#DejaVuSans-5f" x="821"/>
      <use xlink:href="#DejaVuSans-72" x="871"/>
      <use xlink:href="#DejaVuSans-32" x="912.113281"/>
      <use xlink:href="#DejaVuSans-5f" x="975.736328"/>
      <use xlink:href="#DejaVuSans-54" x="1025.736328"/>
      <use xlink:href="#DejaVuSans-31" x="1086.820312"/>
     </g>
    </g>
    <g id="line2d_19">
     <path d="M 517.04125 303.490394 
L 525.04125 303.490394 
L 533.04125 303.490394 
" style="fill: none; stroke: #f0ad4e; stroke-linecap: square"/>
    </g>
    <g id="text_20">
     <!-- Lys_t0_r1_T1 -->
     <g transform="translate(539.44125 306.290394) scale(0.08 -0.08)">
      <defs>
       <path id="DejaVuSans-4c" d="M 628 4666 
L 1259 4666 
L 1259 531 
L 3531 531 
L 3531 0 
L 628 0 
L 628 4666 
z
" transform="scale(0.015625)"/>
       <path id="DejaVuSans-79" d="M 2059 -325 
Q 1816 -950 1584 -1140 
Q 1353 -1331 966 -1331 
L 506 -1331 
L 506 -850 
L 844 -850 
Q 1081 -850 1212 -737 
Q 1344 -625 1503 -206 
L 1606 56 
L 191 3500 
L 800 3500 
L 1894 763 
L 2988 3500 
L 3597 3500 
L 2059 -325 
z
" transform="scale(0.015625)"/>
      </defs>
      <use xlink:href="#DejaVuSans-4c"/>
      <use xlink:href="#DejaVuSans-79" x="46.587891"/>
      <use xlink:href="#DejaVuSans-73" x="105.767578"/>
      <use xlink:href="#DejaVuSans-5f" x="157.867188"/>
      <use xlink:href="#DejaVuSans-74" x="207.867188"/>
      <use xlink:href="#DejaVuSans-30" x="247.076172"/>
      <use xlink:href="#DejaVuSans-5f" x="310.699219"/>
      <use xlink:href="#DejaVuSans-72" x="360.699219"/>
      <use xlink:href="#DejaVuSans-31" x="401.8125"/>
      <use xlink:href="#DejaVuSans-5f" x="465.435547"/>
      <use xlink:href="#DejaVuSans-54" x="515.435547"/>
      <use xlink:href="#DejaVuSans-31" x="576.519531"/>
     </g>
    </g>
    <g id="line2d_20">
     <path d="M 517.04125 315.455394 
L 525.04125 315.455394 
L 533.04125 315.455394 
" style="fill: none; stroke: #f0ad4e; stroke-linecap: square"/>
    </g>
    <g id="text_21">
     <!-- Lys_t0_r2_T1 -->
     <g transform="translate(539.44125 318.255394) scale(0.08 -0.08)">
      <use xlink:href="#DejaVuSans-4c"/>
      <use xlink:href="#DejaVuSans-79" x="46.587891"/>
      <use xlink:href="#DejaVuSans-73" x="105.767578"/>
      <use xlink:href="#DejaVuSans-5f" x="157.867188"/>
      <use xlink:href="#DejaVuSans-74" x="207.867188"/>
      <use xlink:href="#DejaVuSans-30" x="247.076172"/>
      <use xlink:href="#DejaVuSans-5f" x="310.699219"/>
      <use xlink:href="#DejaVuSans-72" x="360.699219"/>
      <use xlink:href="#DejaVuSans-32" x="401.8125"/>
      <use xlink:href="#DejaVuSans-5f" x="465.435547"/>
      <use xlink:href="#DejaVuSans-54" x="515.435547"/>
      <use xlink:href="#DejaVuSans-31" x="576.519531"/>
     </g>
    </g>
    <g id="line2d_21">
     <path d="M 710.837813 303.490394 
L 718.837813 303.490394 
L 726.837813 303.490394 
" style="fill: none; stroke: #d9534f; stroke-linecap: square"/>
    </g>
    <g id="text_22">
     <!-- Lys_t8_r1_T1 -->
     <g transform="translate(733.237813 306.290394) scale(0.08 -0.08)">
      <use xlink:href="#DejaVuSans-4c"/>
      <use xlink:href="#DejaVuSans-79" x="46.587891"/>
      <use xlink:href="#DejaVuSans-73" x="105.767578"/>
      <use xlink:href="#DejaVuSans-5f" x="157.867188"/>
      <use xlink:href="#DejaVuSans-74" x="207.867188"/>
      <use xlink:href="#DejaVuSans-38" x="247.076172"/>
      <use xlink:href="#DejaVuSans-5f" x="310.699219"/>
      <use xlink:href="#DejaVuSans-72" x="360.699219"/>
      <use xlink:href="#DejaVuSans-31" x="401.8125"/>
      <use xlink:href="#DejaVuSans-5f" x="465.435547"/>
      <use xlink:href="#DejaVuSans-54" x="515.435547"/>
      <use xlink:href="#DejaVuSans-31" x="576.519531"/>
     </g>
    </g>
    <g id="line2d_22">
     <path d="M 904.634375 303.490394 
L 912.634375 303.490394 
L 920.634375 303.490394 
" style="fill: none; stroke: #f0ad4e; stroke-linecap: square"/>
    </g>
    <g id="text_23">
     <!-- Lys_t8_r2_T1 -->
     <g transform="translate(927.034375 306.290394) scale(0.08 -0.08)">
      <use xlink:href="#DejaVuSans-4c"/>
      <use xlink:href="#DejaVuSans-79" x="46.587891"/>
      <use xlink:href="#DejaVuSans-73" x="105.767578"/>
      <use xlink:href="#DejaVuSans-5f" x="157.867188"/>
      <use xlink:href="#DejaVuSans-74" x="207.867188"/>
      <use xlink:href="#DejaVuSans-38" x="247.076172"/>
      <use xlink:href="#DejaVuSans-5f" x="310.699219"/>
      <use xlink:href="#DejaVuSans-72" x="360.699219"/>
      <use xlink:href="#DejaVuSans-32" x="401.8125"/>
      <use xlink:href="#DejaVuSans-5f" x="465.435547"/>
      <use xlink:href="#DejaVuSans-54" x="515.435547"/>
      <use xlink:href="#DejaVuSans-31" x="576.519531"/>
     </g>
    </g>
   </g>
  </g>
 </g>
 <defs>
  <clipPath id="pbd1abe87ba">
   <rect x="40.600625" y="31.48286" width="944.845" height="242.5072"/>
  </clipPath>
 </defs>
</svg>
