<?xml version="1.0" encoding="utf-8" standalone="no"?>
<!DOCTYPE svg PUBLIC "-//W3C//DTD SVG 1.1//EN"
  "http://www.w3.org/Graphics/SVG/1.1/DTD/svg11.dtd">
<svg xmlns:xlink="http://www.w3.org/1999/xlink" width="1000.298125pt" height="330.541644pt" viewBox="0 0 1000.298125 330.541644" xmlns="http://www.w3.org/2000/svg" version="1.1">
 <metadata>
  <rdf:RDF xmlns:dc="http://purl.org/dc/elements/1.1/" xmlns:cc="http://creativecommons.org/ns#" xmlns:rdf="http://www.w3.org/1999/02/22-rdf-syntax-ns#">
   <cc:Work>
    <dc:type rdf:resource="http://purl.org/dc/dcmitype/StillImage"/>
    <dc:date>2024-01-12T01:06:23.471057</dc:date>
    <dc:format>image/svg+xml</dc:format>
    <dc:creator>
     <cc:Agent>
      <dc:title>Matplotlib v3.6.2, https://matplotlib.org/</dc:title>
     </cc:Agent>
    </dc:creator>
   </cc:Work>
  </rdf:RDF>
 </metadata>
 <defs>
  <style type="text/css">*{stroke-linejoin: round; stroke-linecap: butt}</style>
 </defs>
 <g id="figure_1">
  <g id="axes_1">
   <g id="patch_1">
    <path d="M 32.968125 273.99006 
L 985.463125 273.99006 
L 985.463125 31.48286 
L 32.968125 31.48286 
z
" style="fill: #ffffff"/>
   </g>
   <g id="matplotlib.axis_1">
    <g id="xtick_1">
     <g id="text_1">
      <!-- 0 -->
      <g transform="translate(30.423125 287.06881) scale(0.08 -0.08)">
       <defs>
        <path id="DejaVuSans-30" d="M 2034 4250 
Q 1547 4250 1301 3770 
Q 1056 3291 1056 2328 
Q 1056 1369 1301 889 
Q 1547 409 2034 409 
Q 2525 409 2770 889 
Q 3016 1369 3016 2328 
Q 3016 3291 2770 3770 
Q 2525 4250 2034 4250 
z
M 2034 4750 
Q 2819 4750 3233 4129 
Q 3647 3509 3647 2328 
Q 3647 1150 3233 529 
Q 2819 -91 2034 -91 
Q 1250 -91 836 529 
Q 422 1150 422 2328 
Q 422 3509 836 4129 
Q 1250 4750 2034 4750 
z
" transform="scale(0.015625)"/>
       </defs>
       <use xlink:href="#DejaVuSans-30"/>
      </g>
     </g>
    </g>
    <g id="xtick_2">
     <g id="text_2">
      <!-- 20 -->
      <g transform="translate(218.377125 287.06881) scale(0.08 -0.08)">
       <defs>
        <path id="DejaVuSans-32" d="M 1228 531 
L 3431 531 
L 3431 0 
L 469 0 
L 469 531 
Q 828 903 1448 1529 
Q 2069 2156 2228 2338 
Q 2531 2678 2651 2914 
Q 2772 3150 2772 3378 
Q 2772 3750 2511 3984 
Q 2250 4219 1831 4219 
Q 1534 4219 1204 4116 
Q 875 4013 500 3803 
L 500 4441 
Q 881 4594 1212 4672 
Q 1544 4750 1819 4750 
Q 2544 4750 2975 4387 
Q 3406 4025 3406 3419 
Q 3406 3131 3298 2873 
Q 3191 2616 2906 2266 
Q 2828 2175 2409 1742 
Q 1991 1309 1228 531 
z
" transform="scale(0.015625)"/>
       </defs>
       <use xlink:href="#DejaVuSans-32"/>
       <use xlink:href="#DejaVuSans-30" x="63.623047"/>
      </g>
     </g>
    </g>
    <g id="xtick_3">
     <g id="text_3">
      <!-- 40 -->
      <g transform="translate(408.876125 287.06881) scale(0.08 -0.08)">
       <defs>
        <path id="DejaVuSans-34" d="M 2419 4116 
L 825 1625 
L 2419 1625 
L 2419 4116 
z
M 2253 4666 
L 3047 4666 
L 3047 1625 
L 3713 1625 
L 3713 1100 
L 3047 1100 
L 3047 0 
L 2419 0 
L 2419 1100 
L 313 1100 
L 313 1709 
L 2253 4666 
z
" transform="scale(0.015625)"/>
       </defs>
       <use xlink:href="#DejaVuSans-34"/>
       <use xlink:href="#DejaVuSans-30" x="63.623047"/>
      </g>
     </g>
    </g>
    <g id="xtick_4">
     <g id="text_4">
      <!-- 60 -->
      <g transform="translate(599.375125 287.06881) scale(0.08 -0.08)">
       <defs>
        <path id="DejaVuSans-36" d="M 2113 2584 
Q 1688 2584 1439 2293 
Q 1191 2003 1191 1497 
Q 1191 994 1439 701 
Q 1688 409 2113 409 
Q 2538 409 2786 701 
Q 3034 994 3034 1497 
Q 3034 2003 2786 2293 
Q 2538 2584 2113 2584 
z
M 3366 4563 
L 3366 3988 
Q 3128 4100 2886 4159 
Q 2644 4219 2406 4219 
Q 1781 4219 1451 3797 
Q 1122 3375 1075 2522 
Q 1259 2794 1537 2939 
Q 1816 3084 2150 3084 
Q 2853 3084 3261 2657 
Q 3669 2231 3669 1497 
Q 3669 778 3244 343 
Q 2819 -91 2113 -91 
Q 1303 -91 875 529 
Q 447 1150 447 2328 
Q 447 3434 972 4092 
Q 1497 4750 2381 4750 
Q 2619 4750 2861 4703 
Q 3103 4656 3366 4563 
z
" transform="scale(0.015625)"/>
       </defs>
       <use xlink:href="#DejaVuSans-36"/>
       <use xlink:href="#DejaVuSans-30" x="63.623047"/>
      </g>
     </g>
    </g>
    <g id="xtick_5">
     <g id="text_5">
      <!-- 80 -->
      <g transform="translate(789.874125 287.06881) scale(0.08 -0.08)">
       <defs>
        <path id="DejaVuSans-38" d="M 2034 2216 
Q 1584 2216 1326 1975 
Q 1069 1734 1069 1313 
Q 1069 891 1326 650 
Q 1584 409 2034 409 
Q 2484 409 2743 651 
Q 3003 894 3003 1313 
Q 3003 1734 2745 1975 
Q 2488 2216 2034 2216 
z
M 1403 2484 
Q 997 2584 770 2862 
Q 544 3141 544 3541 
Q 544 4100 942 4425 
Q 1341 4750 2034 4750 
Q 2731 4750 3128 4425 
Q 3525 4100 3525 3541 
Q 3525 3141 3298 2862 
Q 3072 2584 2669 2484 
Q 3125 2378 3379 2068 
Q 3634 1759 3634 1313 
Q 3634 634 3220 271 
Q 2806 -91 2034 -91 
Q 1263 -91 848 271 
Q 434 634 434 1313 
Q 434 1759 690 2068 
Q 947 2378 1403 2484 
z
M 1172 3481 
Q 1172 3119 1398 2916 
Q 1625 2713 2034 2713 
Q 2441 2713 2670 2916 
Q 2900 3119 2900 3481 
Q 2900 3844 2670 4047 
Q 2441 4250 2034 4250 
Q 1625 4250 1398 4047 
Q 1172 3844 1172 3481 
z
" transform="scale(0.015625)"/>
       </defs>
       <use xlink:href="#DejaVuSans-38"/>
       <use xlink:href="#DejaVuSans-30" x="63.623047"/>
      </g>
     </g>
    </g>
    <g id="xtick_6">
     <g id="text_6">
      <!-- 100 -->
      <g transform="translate(977.828125 287.06881) scale(0.08 -0.08)">
       <defs>
        <path id="DejaVuSans-31" d="M 794 531 
L 1825 531 
L 1825 4091 
L 703 3866 
L 703 4441 
L 1819 4666 
L 2450 4666 
L 2450 531 
L 3481 531 
L 3481 0 
L 794 0 
L 794 531 
z
" transform="scale(0.015625)"/>
       </defs>
       <use xlink:href="#DejaVuSans-31"/>
       <use xlink:href="#DejaVuSans-30" x="63.623047"/>
       <use xlink:href="#DejaVuSans-30" x="127.246094"/>
      </g>
     </g>
    </g>
    <g id="text_7">
     <!-- % GC -->
     <g transform="translate(495.510156 300.330997) scale(0.1 -0.1)">
      <defs>
       <path id="DejaVuSans-25" d="M 4653 2053 
Q 4381 2053 4226 1822 
Q 4072 1591 4072 1178 
Q 4072 772 4226 539 
Q 4381 306 4653 306 
Q 4919 306 5073 539 
Q 5228 772 5228 1178 
Q 5228 1588 5073 1820 
Q 4919 2053 4653 2053 
z
M 4653 2450 
Q 5147 2450 5437 2106 
Q 5728 1763 5728 1178 
Q 5728 594 5436 251 
Q 5144 -91 4653 -91 
Q 4153 -91 3862 251 
Q 3572 594 3572 1178 
Q 3572 1766 3864 2108 
Q 4156 2450 4653 2450 
z
M 1428 4353 
Q 1159 4353 1004 4120 
Q 850 3888 850 3481 
Q 850 3069 1003 2837 
Q 1156 2606 1428 2606 
Q 1700 2606 1854 2837 
Q 2009 3069 2009 3481 
Q 2009 3884 1853 4118 
Q 1697 4353 1428 4353 
z
M 4250 4750 
L 4750 4750 
L 1831 -91 
L 1331 -91 
L 4250 4750 
z
M 1428 4750 
Q 1922 4750 2215 4408 
Q 2509 4066 2509 3481 
Q 2509 2891 2217 2550 
Q 1925 2209 1428 2209 
Q 931 2209 642 2551 
Q 353 2894 353 3481 
Q 353 4063 643 4406 
Q 934 4750 1428 4750 
z
" transform="scale(0.015625)"/>
       <path id="DejaVuSans-20" transform="scale(0.015625)"/>
       <path id="DejaVuSans-47" d="M 3809 666 
L 3809 1919 
L 2778 1919 
L 2778 2438 
L 4434 2438 
L 4434 434 
Q 4069 175 3628 42 
Q 3188 -91 2688 -91 
Q 1594 -91 976 548 
Q 359 1188 359 2328 
Q 359 3472 976 4111 
Q 1594 4750 2688 4750 
Q 3144 4750 3555 4637 
Q 3966 4525 4313 4306 
L 4313 3634 
Q 3963 3931 3569 4081 
Q 3175 4231 2741 4231 
Q 1884 4231 1454 3753 
Q 1025 3275 1025 2328 
Q 1025 1384 1454 906 
Q 1884 428 2741 428 
Q 3075 428 3337 486 
Q 3600 544 3809 666 
z
" transform="scale(0.015625)"/>
       <path id="DejaVuSans-43" d="M 4122 4306 
L 4122 3641 
Q 3803 3938 3442 4084 
Q 3081 4231 2675 4231 
Q 1875 4231 1450 3742 
Q 1025 3253 1025 2328 
Q 1025 1406 1450 917 
Q 1875 428 2675 428 
Q 3081 428 3442 575 
Q 3803 722 4122 1019 
L 4122 359 
Q 3791 134 3420 21 
Q 3050 -91 2638 -91 
Q 1578 -91 968 557 
Q 359 1206 359 2328 
Q 359 3453 968 4101 
Q 1578 4750 2638 4750 
Q 3056 4750 3426 4639 
Q 3797 4528 4122 4306 
z
" transform="scale(0.015625)"/>
      </defs>
      <use xlink:href="#DejaVuSans-25"/>
      <use xlink:href="#DejaVuSans-20" x="95.019531"/>
      <use xlink:href="#DejaVuSans-47" x="126.806641"/>
      <use xlink:href="#DejaVuSans-43" x="204.296875"/>
     </g>
    </g>
   </g>
   <g id="matplotlib.axis_2">
    <g id="ytick_1">
     <g id="line2d_1">
      <path d="M 32.968125 273.99006 
L 985.463125 273.99006 
" clip-path="url(#pb1f8971039)" style="fill: none; stroke: #dedede; stroke-linecap: square"/>
     </g>
     <g id="text_8">
      <!-- 0 -->
      <g transform="translate(20.878125 277.029435) scale(0.08 -0.08)">
       <use xlink:href="#DejaVuSans-30"/>
      </g>
     </g>
    </g>
    <g id="ytick_2">
     <g id="line2d_2">
      <path d="M 32.968125 226.710621 
L 985.463125 226.710621 
" clip-path="url(#pb1f8971039)" style="fill: none; stroke: #dedede; stroke-linecap: square"/>
     </g>
     <g id="text_9">
      <!-- 1 -->
      <g transform="translate(20.878125 229.749996) scale(0.08 -0.08)">
       <use xlink:href="#DejaVuSans-31"/>
      </g>
     </g>
    </g>
    <g id="ytick_3">
     <g id="line2d_3">
      <path d="M 32.968125 179.431183 
L 985.463125 179.431183 
" clip-path="url(#pb1f8971039)" style="fill: none; stroke: #dedede; stroke-linecap: square"/>
     </g>
     <g id="text_10">
      <!-- 2 -->
      <g transform="translate(20.878125 182.470558) scale(0.08 -0.08)">
       <use xlink:href="#DejaVuSans-32"/>
      </g>
     </g>
    </g>
    <g id="ytick_4">
     <g id="line2d_4">
      <path d="M 32.968125 132.151744 
L 985.463125 132.151744 
" clip-path="url(#pb1f8971039)" style="fill: none; stroke: #dedede; stroke-linecap: square"/>
     </g>
     <g id="text_11">
      <!-- 3 -->
      <g transform="translate(20.878125 135.191119) scale(0.08 -0.08)">
       <defs>
        <path id="DejaVuSans-33" d="M 2597 2516 
Q 3050 2419 3304 2112 
Q 3559 1806 3559 1356 
Q 3559 666 3084 287 
Q 2609 -91 1734 -91 
Q 1441 -91 1130 -33 
Q 819 25 488 141 
L 488 750 
Q 750 597 1062 519 
Q 1375 441 1716 441 
Q 2309 441 2620 675 
Q 2931 909 2931 1356 
Q 2931 1769 2642 2001 
Q 2353 2234 1838 2234 
L 1294 2234 
L 1294 2753 
L 1863 2753 
Q 2328 2753 2575 2939 
Q 2822 3125 2822 3475 
Q 2822 3834 2567 4026 
Q 2313 4219 1838 4219 
Q 1578 4219 1281 4162 
Q 984 4106 628 3988 
L 628 4550 
Q 988 4650 1302 4700 
Q 1616 4750 1894 4750 
Q 2613 4750 3031 4423 
Q 3450 4097 3450 3541 
Q 3450 3153 3228 2886 
Q 3006 2619 2597 2516 
z
" transform="scale(0.015625)"/>
       </defs>
       <use xlink:href="#DejaVuSans-33"/>
      </g>
     </g>
    </g>
    <g id="ytick_5">
     <g id="line2d_5">
      <path d="M 32.968125 84.872305 
L 985.463125 84.872305 
" clip-path="url(#pb1f8971039)" style="fill: none; stroke: #dedede; stroke-linecap: square"/>
     </g>
     <g id="text_12">
      <!-- 4 -->
      <g transform="translate(20.878125 87.91168) scale(0.08 -0.08)">
       <use xlink:href="#DejaVuSans-34"/>
      </g>
     </g>
    </g>
    <g id="ytick_6">
     <g id="line2d_6">
      <path d="M 32.968125 37.592867 
L 985.463125 37.592867 
" clip-path="url(#pb1f8971039)" style="fill: none; stroke: #dedede; stroke-linecap: square"/>
     </g>
     <g id="text_13">
      <!-- 5 -->
      <g transform="translate(20.878125 40.632242) scale(0.08 -0.08)">
       <defs>
        <path id="DejaVuSans-35" d="M 691 4666 
L 3169 4666 
L 3169 4134 
L 1269 4134 
L 1269 2991 
Q 1406 3038 1543 3061 
Q 1681 3084 1819 3084 
Q 2600 3084 3056 2656 
Q 3513 2228 3513 1497 
Q 3513 744 3044 326 
Q 2575 -91 1722 -91 
Q 1428 -91 1123 -41 
Q 819 9 494 109 
L 494 744 
Q 775 591 1075 516 
Q 1375 441 1709 441 
Q 2250 441 2565 725 
Q 2881 1009 2881 1497 
Q 2881 1984 2565 2268 
Q 2250 2553 1709 2553 
Q 1456 2553 1204 2497 
Q 953 2441 691 2322 
L 691 4666 
z
" transform="scale(0.015625)"/>
       </defs>
       <use xlink:href="#DejaVuSans-35"/>
      </g>
     </g>
    </g>
    <g id="text_14">
     <!-- Percentage -->
     <g transform="translate(14.798437 180.859116) rotate(-90) scale(0.1 -0.1)">
      <defs>
       <path id="DejaVuSans-50" d="M 1259 4147 
L 1259 2394 
L 2053 2394 
Q 2494 2394 2734 2622 
Q 2975 2850 2975 3272 
Q 2975 3691 2734 3919 
Q 2494 4147 2053 4147 
L 1259 4147 
z
M 628 4666 
L 2053 4666 
Q 2838 4666 3239 4311 
Q 3641 3956 3641 3272 
Q 3641 2581 3239 2228 
Q 2838 1875 2053 1875 
L 1259 1875 
L 1259 0 
L 628 0 
L 628 4666 
z
" transform="scale(0.015625)"/>
       <path id="DejaVuSans-65" d="M 3597 1894 
L 3597 1613 
L 953 1613 
Q 991 1019 1311 708 
Q 1631 397 2203 397 
Q 2534 397 2845 478 
Q 3156 559 3463 722 
L 3463 178 
Q 3153 47 2828 -22 
Q 2503 -91 2169 -91 
Q 1331 -91 842 396 
Q 353 884 353 1716 
Q 353 2575 817 3079 
Q 1281 3584 2069 3584 
Q 2775 3584 3186 3129 
Q 3597 2675 3597 1894 
z
M 3022 2063 
Q 3016 2534 2758 2815 
Q 2500 3097 2075 3097 
Q 1594 3097 1305 2825 
Q 1016 2553 972 2059 
L 3022 2063 
z
" transform="scale(0.015625)"/>
       <path id="DejaVuSans-72" d="M 2631 2963 
Q 2534 3019 2420 3045 
Q 2306 3072 2169 3072 
Q 1681 3072 1420 2755 
Q 1159 2438 1159 1844 
L 1159 0 
L 581 0 
L 581 3500 
L 1159 3500 
L 1159 2956 
Q 1341 3275 1631 3429 
Q 1922 3584 2338 3584 
Q 2397 3584 2469 3576 
Q 2541 3569 2628 3553 
L 2631 2963 
z
" transform="scale(0.015625)"/>
       <path id="DejaVuSans-63" d="M 3122 3366 
L 3122 2828 
Q 2878 2963 2633 3030 
Q 2388 3097 2138 3097 
Q 1578 3097 1268 2742 
Q 959 2388 959 1747 
Q 959 1106 1268 751 
Q 1578 397 2138 397 
Q 2388 397 2633 464 
Q 2878 531 3122 666 
L 3122 134 
Q 2881 22 2623 -34 
Q 2366 -91 2075 -91 
Q 1284 -91 818 406 
Q 353 903 353 1747 
Q 353 2603 823 3093 
Q 1294 3584 2113 3584 
Q 2378 3584 2631 3529 
Q 2884 3475 3122 3366 
z
" transform="scale(0.015625)"/>
       <path id="DejaVuSans-6e" d="M 3513 2113 
L 3513 0 
L 2938 0 
L 2938 2094 
Q 2938 2591 2744 2837 
Q 2550 3084 2163 3084 
Q 1697 3084 1428 2787 
Q 1159 2491 1159 1978 
L 1159 0 
L 581 0 
L 581 3500 
L 1159 3500 
L 1159 2956 
Q 1366 3272 1645 3428 
Q 1925 3584 2291 3584 
Q 2894 3584 3203 3211 
Q 3513 2838 3513 2113 
z
" transform="scale(0.015625)"/>
       <path id="DejaVuSans-74" d="M 1172 4494 
L 1172 3500 
L 2356 3500 
L 2356 3053 
L 1172 3053 
L 1172 1153 
Q 1172 725 1289 603 
Q 1406 481 1766 481 
L 2356 481 
L 2356 0 
L 1766 0 
Q 1100 0 847 248 
Q 594 497 594 1153 
L 594 3053 
L 172 3053 
L 172 3500 
L 594 3500 
L 594 4494 
L 1172 4494 
z
" transform="scale(0.015625)"/>
       <path id="DejaVuSans-61" d="M 2194 1759 
Q 1497 1759 1228 1600 
Q 959 1441 959 1056 
Q 959 750 1161 570 
Q 1363 391 1709 391 
Q 2188 391 2477 730 
Q 2766 1069 2766 1631 
L 2766 1759 
L 2194 1759 
z
M 3341 1997 
L 3341 0 
L 2766 0 
L 2766 531 
Q 2569 213 2275 61 
Q 1981 -91 1556 -91 
Q 1019 -91 701 211 
Q 384 513 384 1019 
Q 384 1609 779 1909 
Q 1175 2209 1959 2209 
L 2766 2209 
L 2766 2266 
Q 2766 2663 2505 2880 
Q 2244 3097 1772 3097 
Q 1472 3097 1187 3025 
Q 903 2953 641 2809 
L 641 3341 
Q 956 3463 1253 3523 
Q 1550 3584 1831 3584 
Q 2591 3584 2966 3190 
Q 3341 2797 3341 1997 
z
" transform="scale(0.015625)"/>
       <path id="DejaVuSans-67" d="M 2906 1791 
Q 2906 2416 2648 2759 
Q 2391 3103 1925 3103 
Q 1463 3103 1205 2759 
Q 947 2416 947 1791 
Q 947 1169 1205 825 
Q 1463 481 1925 481 
Q 2391 481 2648 825 
Q 2906 1169 2906 1791 
z
M 3481 434 
Q 3481 -459 3084 -895 
Q 2688 -1331 1869 -1331 
Q 1566 -1331 1297 -1286 
Q 1028 -1241 775 -1147 
L 775 -588 
Q 1028 -725 1275 -790 
Q 1522 -856 1778 -856 
Q 2344 -856 2625 -561 
Q 2906 -266 2906 331 
L 2906 616 
Q 2728 306 2450 153 
Q 2172 0 1784 0 
Q 1141 0 747 490 
Q 353 981 353 1791 
Q 353 2603 747 3093 
Q 1141 3584 1784 3584 
Q 2172 3584 2450 3431 
Q 2728 3278 2906 2969 
L 2906 3500 
L 3481 3500 
L 3481 434 
z
" transform="scale(0.015625)"/>
      </defs>
      <use xlink:href="#DejaVuSans-50"/>
      <use xlink:href="#DejaVuSans-65" x="56.677734"/>
      <use xlink:href="#DejaVuSans-72" x="118.201172"/>
      <use xlink:href="#DejaVuSans-63" x="157.064453"/>
      <use xlink:href="#DejaVuSans-65" x="212.044922"/>
      <use xlink:href="#DejaVuSans-6e" x="273.568359"/>
      <use xlink:href="#DejaVuSans-74" x="336.947266"/>
      <use xlink:href="#DejaVuSans-61" x="376.15625"/>
      <use xlink:href="#DejaVuSans-67" x="437.435547"/>
      <use xlink:href="#DejaVuSans-65" x="500.912109"/>
     </g>
    </g>
   </g>
   <g id="line2d_7">
    <path d="M 32.968125 273.962247 
L 42.493075 273.962463 
L 52.018025 273.962734 
L 61.542975 273.961922 
L 71.067925 273.961489 
L 80.592875 273.961814 
L 90.117825 273.961002 
L 99.642775 273.959433 
L 109.167725 273.957215 
L 118.692675 273.954184 
L 128.217625 273.951371 
L 137.742575 273.948394 
L 147.267525 273.944823 
L 156.792475 273.931836 
L 166.317425 273.912465 
L 175.842375 273.888169 
L 185.367325 273.852293 
L 194.892275 273.802349 
L 204.417225 273.728487 
L 213.942175 273.642937 
L 223.467125 273.561608 
L 232.992075 273.460799 
L 242.517025 273.342025 
L 252.041975 273.227039 
L 261.566925 273.114326 
L 271.091875 272.977749 
L 280.616825 272.806217 
L 290.141775 272.685225 
L 299.666725 272.539233 
L 309.191675 272.335883 
L 318.716625 272.099256 
L 328.241575 271.740445 
L 337.766525 271.148632 
L 347.291475 270.550542 
L 356.816425 267.536445 
L 366.341375 264.70757 
L 375.866325 261.932211 
L 385.391275 258.878613 
L 394.916225 230.908257 
L 404.441175 178.979776 
L 413.966125 145.282354 
L 423.491075 134.221882 
L 433.016025 121.949699 
L 442.540975 117.264381 
L 452.065925 124.731497 
L 461.590875 124.85644 
L 471.115825 123.528337 
L 480.640775 121.324066 
L 490.165725 115.538507 
L 499.690675 112.040657 
L 509.215625 107.714852 
L 518.740575 103.375412 
L 528.265525 104.258992 
L 537.790475 105.573189 
L 547.315425 106.049583 
L 556.840375 107.709441 
L 566.365325 111.914307 
L 575.890275 115.871453 
L 585.415225 121.906735 
L 594.940175 127.486889 
L 604.465125 131.017368 
L 613.990075 138.79308 
L 623.515025 148.356298 
L 633.039975 155.868706 
L 642.564925 166.109882 
L 652.089875 173.277818 
L 661.614825 180.468427 
L 671.139775 187.634306 
L 680.664725 196.23689 
L 690.189675 211.236435 
L 699.714625 219.898325 
L 709.239575 225.263874 
L 718.764525 229.185576 
L 728.289475 232.605506 
L 737.814425 239.790866 
L 747.339375 248.136314 
L 756.864325 253.150574 
L 766.389275 254.55216 
L 775.914225 255.588225 
L 785.439175 260.105637 
L 794.964125 264.446863 
L 804.489075 266.629705 
L 814.014025 269.479033 
L 823.538975 272.064841 
L 833.063925 273.406039 
L 842.588875 273.588664 
L 852.113825 273.721939 
L 861.638775 273.82724 
L 871.163725 273.884273 
L 880.688675 273.90727 
L 890.213625 273.917984 
L 899.738575 273.934163 
L 909.263525 273.950342 
L 918.788475 273.957215 
L 928.313425 273.958189 
L 937.838375 273.959704 
L 947.363325 273.960894 
L 956.888275 273.960894 
L 966.413225 273.960894 
L 975.938175 273.96084 
L 985.463125 273.960786 
" clip-path="url(#pb1f8971039)" style="fill: none; stroke: #f0ad4e; stroke-linecap: square"/>
   </g>
   <g id="line2d_8">
    <path d="M 32.968125 273.964434 
L 42.493075 273.964383 
L 52.018025 273.964383 
L 61.542975 273.963623 
L 71.067925 273.963015 
L 80.592875 273.963218 
L 90.117825 273.96261 
L 99.642775 273.961294 
L 109.167725 273.958154 
L 118.692675 273.953342 
L 128.217625 273.949544 
L 137.742575 273.945847 
L 147.267525 273.941441 
L 156.792475 273.927716 
L 166.317425 273.909382 
L 175.842375 273.885528 
L 185.367325 273.851495 
L 194.892275 273.8048 
L 204.417225 273.730706 
L 213.942175 273.643647 
L 223.467125 273.559272 
L 232.992075 273.457121 
L 242.517025 273.341751 
L 252.041975 273.221266 
L 261.566925 273.087867 
L 271.091875 272.940135 
L 280.616825 272.749456 
L 290.141775 272.594026 
L 299.666725 272.431506 
L 309.191675 272.21677 
L 318.716625 271.937108 
L 328.241575 271.516753 
L 337.766525 270.878016 
L 347.291475 270.234316 
L 356.816425 267.242301 
L 366.341375 264.495206 
L 375.866325 261.76523 
L 385.391275 258.696234 
L 394.916225 231.034354 
L 404.441175 179.085434 
L 413.966125 144.792178 
L 423.491075 133.519324 
L 433.016025 121.369753 
L 442.540975 116.754257 
L 452.065925 124.175292 
L 461.590875 124.411349 
L 471.115825 123.228683 
L 480.640775 121.12382 
L 490.165725 115.440015 
L 499.690675 111.963781 
L 509.215625 107.564287 
L 518.740575 103.146206 
L 528.265525 103.993449 
L 537.790475 105.154793 
L 547.315425 105.501307 
L 556.840375 107.368391 
L 566.365325 111.794576 
L 575.890275 115.885388 
L 585.415225 122.231936 
L 594.940175 127.99966 
L 604.465125 131.486276 
L 613.990075 139.301786 
L 623.515025 148.791322 
L 633.039975 156.158927 
L 642.564925 166.413103 
L 652.089875 173.561009 
L 661.614825 180.880248 
L 671.139775 188.186876 
L 680.664725 196.654342 
L 690.189675 211.5229 
L 699.714625 220.298795 
L 709.239575 225.680097 
L 718.764525 229.490233 
L 728.289475 232.934864 
L 737.814425 240.239264 
L 747.339375 248.573634 
L 756.864325 253.485911 
L 766.389275 254.857078 
L 775.914225 255.817513 
L 785.439175 260.176592 
L 794.964125 264.444409 
L 804.489075 266.643372 
L 814.014025 269.467245 
L 823.538975 272.04716 
L 833.063925 273.405564 
L 842.588875 273.596446 
L 852.113825 273.73491 
L 861.638775 273.837567 
L 871.163725 273.888213 
L 880.688675 273.910041 
L 890.213625 273.921638 
L 899.738575 273.936832 
L 909.263525 273.948987 
L 918.788475 273.953494 
L 928.313425 273.954406 
L 937.838375 273.955773 
L 947.363325 273.956887 
L 956.888275 273.956837 
L 966.413225 273.956837 
L 975.938175 273.956887 
L 985.463125 273.956786 
" clip-path="url(#pb1f8971039)" style="fill: none; stroke: #f0ad4e; stroke-linecap: square"/>
   </g>
   <g id="line2d_9">
    <path d="M 32.968125 273.957563 
L 42.493075 273.957249 
L 52.018025 273.957124 
L 61.542975 273.956308 
L 71.067925 273.955618 
L 80.592875 273.955869 
L 90.117825 273.955242 
L 99.642775 273.953799 
L 109.167725 273.950411 
L 118.692675 273.945643 
L 128.217625 273.941377 
L 137.742575 273.937487 
L 147.267525 273.933347 
L 156.792475 273.916157 
L 166.317425 273.894325 
L 175.842375 273.869168 
L 185.367325 273.827951 
L 194.892275 273.774751 
L 204.417225 273.6947 
L 213.942175 273.598213 
L 223.467125 273.504611 
L 232.992075 273.391185 
L 242.517025 273.25279 
L 252.041975 273.113328 
L 261.566925 272.971169 
L 271.091875 272.804731 
L 280.616825 272.562571 
L 290.141775 272.367275 
L 299.666725 272.181452 
L 309.191675 271.934963 
L 318.716625 271.641046 
L 328.241575 271.176049 
L 337.766525 270.478302 
L 347.291475 269.819702 
L 356.816425 266.703869 
L 366.341375 263.814701 
L 375.866325 260.947051 
L 385.391275 257.76867 
L 394.916225 229.938849 
L 404.441175 177.933751 
L 413.966125 143.972641 
L 423.491075 132.744388 
L 433.016025 120.343228 
L 442.540975 115.394445 
L 452.065925 122.530384 
L 461.590875 122.596131 
L 471.115825 121.284515 
L 480.640775 119.1015 
L 490.165725 113.63797 
L 499.690675 110.459653 
L 509.215625 106.957117 
L 518.740575 103.432749 
L 528.265525 104.060796 
L 537.790475 104.859611 
L 547.315425 105.063251 
L 556.840375 106.59325 
L 566.365325 111.026972 
L 575.890275 115.624623 
L 585.415225 122.561124 
L 594.940175 128.732564 
L 604.465125 132.539619 
L 613.990075 140.689555 
L 623.515025 150.141885 
L 633.039975 157.550724 
L 642.564925 168.054504 
L 652.089875 175.396279 
L 661.614825 182.278451 
L 671.139775 189.131765 
L 680.664725 197.819786 
L 690.189675 212.827051 
L 699.714625 221.615762 
L 709.239575 227.06091 
L 718.764525 230.901842 
L 728.289475 234.207702 
L 737.814425 241.058632 
L 747.339375 249.11942 
L 756.864325 254.194114 
L 766.389275 255.759558 
L 775.914225 256.741498 
L 785.439175 260.96217 
L 794.964125 265.104547 
L 804.489075 267.18179 
L 814.014025 269.706088 
L 823.538975 272.098139 
L 833.063925 273.409566 
L 842.588875 273.58554 
L 852.113825 273.716219 
L 861.638775 273.820423 
L 871.163725 273.874814 
L 880.688675 273.899093 
L 890.213625 273.912017 
L 899.738575 273.928642 
L 909.263525 273.942506 
L 918.788475 273.948278 
L 928.313425 273.949533 
L 937.838375 273.950787 
L 947.363325 273.95154 
L 956.888275 273.951603 
L 966.413225 273.951666 
L 975.938175 273.951478 
L 985.463125 273.951415 
" clip-path="url(#pb1f8971039)" style="fill: none; stroke: #f0ad4e; stroke-linecap: square"/>
   </g>
   <g id="line2d_10">
    <path d="M 32.968125 273.960936 
L 42.493075 273.960625 
L 52.018025 273.960521 
L 61.542975 273.960107 
L 71.067925 273.95964 
L 80.592875 273.959692 
L 90.117825 273.958759 
L 99.642775 273.957308 
L 109.167725 273.953732 
L 118.692675 273.948913 
L 128.217625 273.945493 
L 137.742575 273.942642 
L 147.267525 273.938808 
L 156.792475 273.922846 
L 166.317425 273.90305 
L 175.842375 273.878694 
L 185.367325 273.838169 
L 194.892275 273.788937 
L 204.417225 273.715816 
L 213.942175 273.622121 
L 223.467125 273.533297 
L 232.992075 273.433591 
L 242.517025 273.303258 
L 252.041975 273.166084 
L 261.566925 273.031708 
L 271.091875 272.863078 
L 280.616825 272.660608 
L 290.141775 272.513795 
L 299.666725 272.328374 
L 309.191675 272.104242 
L 318.716625 271.859744 
L 328.241575 271.419979 
L 337.766525 270.725922 
L 347.291475 270.085759 
L 356.816425 267.132296 
L 366.341375 264.390165 
L 375.866325 261.616629 
L 385.391275 258.536823 
L 394.916225 231.139193 
L 404.441175 179.68254 
L 413.966125 146.024037 
L 423.491075 135.088108 
L 433.016025 122.935285 
L 442.540975 118.268054 
L 452.065925 125.573201 
L 461.590875 125.64938 
L 471.115825 124.297074 
L 480.640775 121.859814 
L 490.165725 115.716111 
L 499.690675 112.083567 
L 509.215625 107.50542 
L 518.740575 102.912555 
L 528.265525 103.637343 
L 537.790475 104.310879 
L 547.315425 104.297146 
L 556.840375 106.108702 
L 566.365325 110.715248 
L 575.890275 115.232556 
L 585.415225 122.114573 
L 594.940175 128.178832 
L 604.465125 131.926578 
L 613.990075 139.581007 
L 623.515025 148.371903 
L 633.039975 155.435661 
L 642.564925 165.974578 
L 652.089875 173.491368 
L 661.614825 180.53932 
L 671.139775 187.567424 
L 680.664725 196.270895 
L 690.189675 211.341475 
L 699.714625 220.139678 
L 709.239575 225.603471 
L 718.764525 229.456675 
L 728.289475 232.78129 
L 737.814425 239.795039 
L 747.339375 248.042369 
L 756.864325 253.202949 
L 766.389275 254.761353 
L 775.914225 255.758882 
L 785.439175 260.231001 
L 794.964125 264.611291 
L 804.489075 266.782028 
L 814.014025 269.486951 
L 823.538975 272.034489 
L 833.063925 273.409338 
L 842.588875 273.587918 
L 852.113825 273.717163 
L 861.638775 273.819253 
L 871.163725 273.87802 
L 880.688675 273.902273 
L 890.213625 273.914762 
L 899.738575 273.932848 
L 909.263525 273.94684 
L 918.788475 273.9528 
L 928.313425 273.953681 
L 937.838375 273.955235 
L 947.363325 273.956427 
L 956.888275 273.956531 
L 966.413225 273.956531 
L 975.938175 273.956531 
L 985.463125 273.956583 
" clip-path="url(#pb1f8971039)" style="fill: none; stroke: #f0ad4e; stroke-linecap: square"/>
   </g>
   <g id="line2d_11">
    <path d="M 32.968125 273.95893 
L 42.493075 273.958773 
L 52.018025 273.958825 
L 61.542975 273.957984 
L 71.067925 273.956827 
L 80.592875 273.956985 
L 90.117825 273.956827 
L 99.642775 273.955302 
L 109.167725 273.950938 
L 118.692675 273.944943 
L 128.217625 273.940684 
L 137.742575 273.936477 
L 147.267525 273.93064 
L 156.792475 273.916758 
L 166.317425 273.899511 
L 175.842375 273.87527 
L 185.367325 273.833886 
L 194.892275 273.779304 
L 204.417225 273.702952 
L 213.942175 273.608775 
L 223.467125 273.518015 
L 232.992075 273.402804 
L 242.517025 273.272028 
L 252.041975 273.137939 
L 261.566925 272.997698 
L 271.091875 272.82312 
L 280.616825 272.58928 
L 290.141775 272.425481 
L 299.666725 272.270832 
L 309.191675 272.052504 
L 318.716625 271.766238 
L 328.241575 271.361185 
L 337.766525 270.745901 
L 347.291475 270.106009 
L 356.816425 267.075866 
L 366.341375 264.291763 
L 375.866325 261.488573 
L 385.391275 258.337382 
L 394.916225 230.755592 
L 404.441175 178.12082 
L 413.966125 143.01518 
L 423.491075 131.752935 
L 433.016025 119.758093 
L 442.540975 115.844332 
L 452.065925 123.129294 
L 461.590875 122.565596 
L 471.115825 121.312733 
L 480.640775 119.305872 
L 490.165725 113.729779 
L 499.690675 110.267923 
L 509.215625 107.197501 
L 518.740575 104.107466 
L 528.265525 105.117601 
L 537.790475 106.267294 
L 547.315425 106.445027 
L 556.840375 108.283042 
L 566.365325 112.735366 
L 575.890275 116.922879 
L 585.415225 123.382853 
L 594.940175 129.182743 
L 604.465125 132.479801 
L 613.990075 140.123175 
L 623.515025 149.4771 
L 633.039975 156.778047 
L 642.564925 167.334617 
L 652.089875 174.747305 
L 661.614825 181.724705 
L 671.139775 188.681281 
L 680.664725 197.143858 
L 690.189675 211.973125 
L 699.714625 220.663601 
L 709.239575 226.083415 
L 718.764525 229.984556 
L 728.289475 233.390672 
L 737.814425 240.50358 
L 747.339375 248.739836 
L 756.864325 253.799294 
L 766.389275 255.261334 
L 775.914225 256.188492 
L 785.439175 260.457404 
L 794.964125 264.647703 
L 804.489075 266.769671 
L 814.014025 269.528639 
L 823.538975 272.089628 
L 833.063925 273.418579 
L 842.588875 273.588793 
L 852.113825 273.715625 
L 861.638775 273.816796 
L 871.163725 273.871904 
L 880.688675 273.89462 
L 890.213625 273.904243 
L 899.738575 273.921701 
L 909.263525 273.937266 
L 918.788475 273.942892 
L 928.313425 273.943944 
L 937.838375 273.945784 
L 947.363325 273.947257 
L 956.888275 273.947309 
L 966.413225 273.947309 
L 975.938175 273.947152 
L 985.463125 273.947046 
" clip-path="url(#pb1f8971039)" style="fill: none; stroke: #f0ad4e; stroke-linecap: square"/>
   </g>
   <g id="line2d_12">
    <path d="M 32.968125 273.960476 
L 42.493075 273.959882 
L 52.018025 273.959783 
L 61.542975 273.959289 
L 71.067925 273.958299 
L 80.592875 273.957804 
L 90.117825 273.957211 
L 99.642775 273.955826 
L 109.167725 273.951719 
L 118.692675 273.946772 
L 128.217625 273.942518 
L 137.742575 273.937818 
L 147.267525 273.932871 
L 156.792475 273.918128 
L 166.317425 273.900318 
L 175.842375 273.879738 
L 185.367325 273.846691 
L 194.892275 273.798357 
L 204.417225 273.72321 
L 213.942175 273.636783 
L 223.467125 273.547882 
L 232.992075 273.433701 
L 242.517025 273.307449 
L 252.041975 273.182781 
L 261.566925 273.049257 
L 271.091875 272.88506 
L 280.616825 272.666296 
L 290.141775 272.487209 
L 299.666725 272.315344 
L 309.191675 272.102962 
L 318.716625 271.83062 
L 328.241575 271.417086 
L 337.766525 270.789637 
L 347.291475 270.138836 
L 356.816425 267.104292 
L 366.341375 264.321063 
L 375.866325 261.500038 
L 385.391275 258.379858 
L 394.916225 230.697077 
L 404.441175 178.124587 
L 413.966125 143.135726 
L 423.491075 131.78301 
L 433.016025 119.818575 
L 442.540975 115.813792 
L 452.065925 123.641847 
L 461.590875 123.788778 
L 471.115825 122.580729 
L 480.640775 120.478973 
L 490.165725 114.774144 
L 499.690675 111.278077 
L 509.215625 107.278538 
L 518.740575 103.262375 
L 528.265525 104.175326 
L 537.790475 105.459018 
L 547.315425 105.867852 
L 556.840375 107.757523 
L 566.365325 111.982505 
L 575.890275 115.8692 
L 585.415225 122.249763 
L 594.940175 128.001442 
L 604.465125 131.554153 
L 613.990075 139.578661 
L 623.515025 149.266903 
L 633.039975 156.784573 
L 642.564925 167.298645 
L 652.089875 174.652663 
L 661.614825 181.90002 
L 671.139775 189.125313 
L 680.664725 197.627371 
L 690.189675 212.384483 
L 699.714625 220.982319 
L 709.239575 226.307106 
L 718.764525 230.075613 
L 728.289475 233.421533 
L 737.814425 240.52651 
L 747.339375 248.809458 
L 756.864325 253.80709 
L 766.389275 255.191407 
L 775.914225 256.148734 
L 785.439175 260.461677 
L 794.964125 264.662517 
L 804.489075 266.786288 
L 814.014025 269.531967 
L 823.538975 272.085548 
L 833.063925 273.427122 
L 842.588875 273.60146 
L 852.113825 273.72875 
L 861.638775 273.827941 
L 871.163725 273.878106 
L 880.688675 273.899725 
L 890.213625 273.908827 
L 899.738575 273.924312 
L 909.263525 273.939846 
L 918.788475 273.945387 
L 928.313425 273.946278 
L 937.838375 273.947663 
L 947.363325 273.9489 
L 956.888275 273.948949 
L 966.413225 273.9489 
L 975.938175 273.9489 
L 985.463125 273.94885 
" clip-path="url(#pb1f8971039)" style="fill: none; stroke: #f0ad4e; stroke-linecap: square"/>
   </g>
   <g id="line2d_13">
    <path d="M 32.968125 273.961085 
L 42.493075 273.961034 
L 52.018025 273.960828 
L 61.542975 273.959698 
L 71.067925 273.958876 
L 80.592875 273.95903 
L 90.117825 273.958003 
L 99.642775 273.955023 
L 109.167725 273.949218 
L 118.692675 273.941923 
L 128.217625 273.936118 
L 137.742575 273.931751 
L 147.267525 273.927538 
L 156.792475 273.910739 
L 166.317425 273.887005 
L 175.842375 273.85916 
L 185.367325 273.816366 
L 194.892275 273.761242 
L 204.417225 273.671749 
L 213.942175 273.567358 
L 223.467125 273.472985 
L 232.992075 273.349945 
L 242.517025 273.205432 
L 252.041975 273.067288 
L 261.566925 272.914606 
L 271.091875 272.742402 
L 280.616825 272.521598 
L 290.141775 272.342716 
L 299.666725 272.206062 
L 309.191675 272.001852 
L 318.716625 271.768359 
L 328.241575 271.483955 
L 337.766525 271.027552 
L 347.291475 270.604337 
L 356.816425 268.802769 
L 366.341375 267.134927 
L 375.866325 264.855482 
L 385.391275 261.810314 
L 394.916225 245.627182 
L 404.441175 186.170664 
L 413.966125 135.841891 
L 423.491075 128.330563 
L 433.016025 117.7603 
L 442.540975 124.358874 
L 452.065925 96.347236 
L 461.590875 49.480528 
L 471.115825 46.33138 
L 480.640775 44.850332 
L 490.165725 43.310512 
L 499.690675 43.029602 
L 509.215625 102.760403 
L 518.740575 162.398424 
L 528.265525 163.695144 
L 537.790475 151.193132 
L 547.315425 137.670995 
L 556.840375 138.011242 
L 566.365325 143.20552 
L 575.890275 148.646442 
L 585.415225 158.808696 
L 594.940175 169.536677 
L 604.465125 152.598301 
L 613.990075 138.174764 
L 623.515025 143.617844 
L 633.039975 150.684585 
L 642.564925 179.047463 
L 652.089875 202.484748 
L 661.614825 185.420918 
L 671.139775 168.350359 
L 680.664725 175.449002 
L 690.189675 192.414811 
L 699.714625 203.562616 
L 709.239575 218.719614 
L 718.764525 233.326965 
L 728.289475 235.504382 
L 737.814425 239.052805 
L 747.339375 243.436613 
L 756.864325 254.965456 
L 766.389275 264.378992 
L 775.914225 265.021727 
L 785.439175 267.27754 
L 794.964125 269.405946 
L 804.489075 270.462135 
L 814.014025 271.820812 
L 823.538975 273.020898 
L 833.063925 273.651251 
L 842.588875 273.757389 
L 852.113825 273.823096 
L 861.638775 273.871182 
L 871.163725 273.903085 
L 880.688675 273.917777 
L 890.213625 273.923788 
L 899.738575 273.935039 
L 909.263525 273.944235 
L 918.788475 273.948293 
L 928.313425 273.9504 
L 937.838375 273.952095 
L 947.363325 273.952711 
L 956.888275 273.952763 
L 966.413225 273.95266 
L 975.938175 273.952557 
L 985.463125 273.952506 
" clip-path="url(#pb1f8971039)" style="fill: none; stroke: #d9534f; stroke-linecap: square"/>
   </g>
   <g id="line2d_14">
    <path d="M 32.968125 273.955599 
L 42.493075 273.955248 
L 52.018025 273.955097 
L 61.542975 273.954243 
L 71.067925 273.953339 
L 80.592875 273.95359 
L 90.117825 273.952334 
L 99.642775 273.94922 
L 109.167725 273.944447 
L 118.692675 273.939524 
L 128.217625 273.935556 
L 137.742575 273.931035 
L 147.267525 273.926614 
L 156.792475 273.911946 
L 166.317425 273.890144 
L 175.842375 273.863018 
L 185.367325 273.825091 
L 194.892275 273.772094 
L 204.417225 273.688153 
L 213.942175 273.597128 
L 223.467125 273.504346 
L 232.992075 273.374038 
L 242.517025 273.242877 
L 252.041975 273.120155 
L 261.566925 272.979148 
L 271.091875 272.801218 
L 280.616825 272.585111 
L 290.141775 272.423558 
L 299.666725 272.251707 
L 309.191675 272.022488 
L 318.716625 271.738364 
L 328.241575 271.337545 
L 337.766525 270.749203 
L 347.291475 270.17794 
L 356.816425 267.572343 
L 366.341375 265.161807 
L 375.866325 262.736752 
L 385.391275 259.771831 
L 394.916225 234.360876 
L 404.441175 182.695484 
L 413.966125 147.029073 
L 423.491075 136.800492 
L 433.016025 126.115985 
L 442.540975 125.258237 
L 452.065925 128.685011 
L 461.590875 122.681324 
L 471.115825 121.669458 
L 480.640775 116.99994 
L 490.165725 109.15924 
L 499.690675 105.982281 
L 509.215625 108.379355 
L 518.740575 110.704443 
L 528.265525 112.513024 
L 537.790475 111.551643 
L 547.315425 108.866827 
L 556.840375 107.701445 
L 566.365325 110.325125 
L 575.890275 113.806504 
L 585.415225 115.737003 
L 594.940175 119.201704 
L 604.465125 119.995555 
L 613.990075 129.742641 
L 623.515025 143.071977 
L 633.039975 150.984813 
L 642.564925 167.512207 
L 652.089875 179.421573 
L 661.614825 182.626161 
L 671.139775 185.823868 
L 680.664725 195.591801 
L 690.189675 213.61979 
L 699.714625 223.562388 
L 709.239575 228.237733 
L 718.764525 231.819228 
L 728.289475 234.22449 
L 737.814425 238.648161 
L 747.339375 244.040548 
L 756.864325 250.219653 
L 766.389275 254.051666 
L 775.914225 256.167027 
L 785.439175 261.629993 
L 794.964125 266.089833 
L 804.489075 268.028771 
L 814.014025 270.281573 
L 823.538975 272.302594 
L 833.063925 273.45592 
L 842.588875 273.611646 
L 852.113825 273.712215 
L 861.638775 273.799924 
L 871.163725 273.86347 
L 880.688675 273.896624 
L 890.213625 273.911594 
L 899.738575 273.928473 
L 909.263525 273.942086 
L 918.788475 273.948416 
L 928.313425 273.94937 
L 937.838375 273.950877 
L 947.363325 273.951882 
L 956.888275 273.951882 
L 966.413225 273.951882 
L 975.938175 273.951782 
L 985.463125 273.951782 
" clip-path="url(#pb1f8971039)" style="fill: none; stroke: #f0ad4e; stroke-linecap: square"/>
   </g>
   <g id="line2d_15">
    <path d="M 32.968125 273.99006 
L 985.463125 273.99006 
" clip-path="url(#pb1f8971039)" style="fill: none; stroke: #dedede; stroke-width: 2; stroke-linecap: square"/>
   </g>
   <g id="text_15">
    <!-- FastQC: Per Sequence GC Content -->
    <g transform="translate(372.579375 19.3575) scale(0.16 -0.16)">
     <defs>
      <path id="DejaVuSans-46" d="M 628 4666 
L 3309 4666 
L 3309 4134 
L 1259 4134 
L 1259 2759 
L 3109 2759 
L 3109 2228 
L 1259 2228 
L 1259 0 
L 628 0 
L 628 4666 
z
" transform="scale(0.015625)"/>
      <path id="DejaVuSans-73" d="M 2834 3397 
L 2834 2853 
Q 2591 2978 2328 3040 
Q 2066 3103 1784 3103 
Q 1356 3103 1142 2972 
Q 928 2841 928 2578 
Q 928 2378 1081 2264 
Q 1234 2150 1697 2047 
L 1894 2003 
Q 2506 1872 2764 1633 
Q 3022 1394 3022 966 
Q 3022 478 2636 193 
Q 2250 -91 1575 -91 
Q 1294 -91 989 -36 
Q 684 19 347 128 
L 347 722 
Q 666 556 975 473 
Q 1284 391 1588 391 
Q 1994 391 2212 530 
Q 2431 669 2431 922 
Q 2431 1156 2273 1281 
Q 2116 1406 1581 1522 
L 1381 1569 
Q 847 1681 609 1914 
Q 372 2147 372 2553 
Q 372 3047 722 3315 
Q 1072 3584 1716 3584 
Q 2034 3584 2315 3537 
Q 2597 3491 2834 3397 
z
" transform="scale(0.015625)"/>
      <path id="DejaVuSans-51" d="M 2522 4238 
Q 1834 4238 1429 3725 
Q 1025 3213 1025 2328 
Q 1025 1447 1429 934 
Q 1834 422 2522 422 
Q 3209 422 3611 934 
Q 4013 1447 4013 2328 
Q 4013 3213 3611 3725 
Q 3209 4238 2522 4238 
z
M 3406 84 
L 4238 -825 
L 3475 -825 
L 2784 -78 
Q 2681 -84 2626 -87 
Q 2572 -91 2522 -91 
Q 1538 -91 948 567 
Q 359 1225 359 2328 
Q 359 3434 948 4092 
Q 1538 4750 2522 4750 
Q 3503 4750 4090 4092 
Q 4678 3434 4678 2328 
Q 4678 1516 4351 937 
Q 4025 359 3406 84 
z
" transform="scale(0.015625)"/>
      <path id="DejaVuSans-3a" d="M 750 794 
L 1409 794 
L 1409 0 
L 750 0 
L 750 794 
z
M 750 3309 
L 1409 3309 
L 1409 2516 
L 750 2516 
L 750 3309 
z
" transform="scale(0.015625)"/>
      <path id="DejaVuSans-53" d="M 3425 4513 
L 3425 3897 
Q 3066 4069 2747 4153 
Q 2428 4238 2131 4238 
Q 1616 4238 1336 4038 
Q 1056 3838 1056 3469 
Q 1056 3159 1242 3001 
Q 1428 2844 1947 2747 
L 2328 2669 
Q 3034 2534 3370 2195 
Q 3706 1856 3706 1288 
Q 3706 609 3251 259 
Q 2797 -91 1919 -91 
Q 1588 -91 1214 -16 
Q 841 59 441 206 
L 441 856 
Q 825 641 1194 531 
Q 1563 422 1919 422 
Q 2459 422 2753 634 
Q 3047 847 3047 1241 
Q 3047 1584 2836 1778 
Q 2625 1972 2144 2069 
L 1759 2144 
Q 1053 2284 737 2584 
Q 422 2884 422 3419 
Q 422 4038 858 4394 
Q 1294 4750 2059 4750 
Q 2388 4750 2728 4690 
Q 3069 4631 3425 4513 
z
" transform="scale(0.015625)"/>
      <path id="DejaVuSans-71" d="M 947 1747 
Q 947 1113 1208 752 
Q 1469 391 1925 391 
Q 2381 391 2643 752 
Q 2906 1113 2906 1747 
Q 2906 2381 2643 2742 
Q 2381 3103 1925 3103 
Q 1469 3103 1208 2742 
Q 947 2381 947 1747 
z
M 2906 525 
Q 2725 213 2448 61 
Q 2172 -91 1784 -91 
Q 1150 -91 751 415 
Q 353 922 353 1747 
Q 353 2572 751 3078 
Q 1150 3584 1784 3584 
Q 2172 3584 2448 3432 
Q 2725 3281 2906 2969 
L 2906 3500 
L 3481 3500 
L 3481 -1331 
L 2906 -1331 
L 2906 525 
z
" transform="scale(0.015625)"/>
      <path id="DejaVuSans-75" d="M 544 1381 
L 544 3500 
L 1119 3500 
L 1119 1403 
Q 1119 906 1312 657 
Q 1506 409 1894 409 
Q 2359 409 2629 706 
Q 2900 1003 2900 1516 
L 2900 3500 
L 3475 3500 
L 3475 0 
L 2900 0 
L 2900 538 
Q 2691 219 2414 64 
Q 2138 -91 1772 -91 
Q 1169 -91 856 284 
Q 544 659 544 1381 
z
M 1991 3584 
L 1991 3584 
z
" transform="scale(0.015625)"/>
      <path id="DejaVuSans-6f" d="M 1959 3097 
Q 1497 3097 1228 2736 
Q 959 2375 959 1747 
Q 959 1119 1226 758 
Q 1494 397 1959 397 
Q 2419 397 2687 759 
Q 2956 1122 2956 1747 
Q 2956 2369 2687 2733 
Q 2419 3097 1959 3097 
z
M 1959 3584 
Q 2709 3584 3137 3096 
Q 3566 2609 3566 1747 
Q 3566 888 3137 398 
Q 2709 -91 1959 -91 
Q 1206 -91 779 398 
Q 353 888 353 1747 
Q 353 2609 779 3096 
Q 1206 3584 1959 3584 
z
" transform="scale(0.015625)"/>
     </defs>
     <use xlink:href="#DejaVuSans-46"/>
     <use xlink:href="#DejaVuSans-61" x="48.394531"/>
     <use xlink:href="#DejaVuSans-73" x="109.673828"/>
     <use xlink:href="#DejaVuSans-74" x="161.773438"/>
     <use xlink:href="#DejaVuSans-51" x="200.982422"/>
     <use xlink:href="#DejaVuSans-43" x="279.693359"/>
     <use xlink:href="#DejaVuSans-3a" x="349.517578"/>
     <use xlink:href="#DejaVuSans-20" x="383.208984"/>
     <use xlink:href="#DejaVuSans-50" x="414.996094"/>
     <use xlink:href="#DejaVuSans-65" x="471.673828"/>
     <use xlink:href="#DejaVuSans-72" x="533.197266"/>
     <use xlink:href="#DejaVuSans-20" x="574.310547"/>
     <use xlink:href="#DejaVuSans-53" x="606.097656"/>
     <use xlink:href="#DejaVuSans-65" x="669.574219"/>
     <use xlink:href="#DejaVuSans-71" x="731.097656"/>
     <use xlink:href="#DejaVuSans-75" x="794.574219"/>
     <use xlink:href="#DejaVuSans-65" x="857.953125"/>
     <use xlink:href="#DejaVuSans-6e" x="919.476562"/>
     <use xlink:href="#DejaVuSans-63" x="982.855469"/>
     <use xlink:href="#DejaVuSans-65" x="1037.835938"/>
     <use xlink:href="#DejaVuSans-20" x="1099.359375"/>
     <use xlink:href="#DejaVuSans-47" x="1131.146484"/>
     <use xlink:href="#DejaVuSans-43" x="1208.636719"/>
     <use xlink:href="#DejaVuSans-20" x="1278.460938"/>
     <use xlink:href="#DejaVuSans-43" x="1310.248047"/>
     <use xlink:href="#DejaVuSans-6f" x="1380.072266"/>
     <use xlink:href="#DejaVuSans-6e" x="1441.253906"/>
     <use xlink:href="#DejaVuSans-74" x="1504.632812"/>
     <use xlink:href="#DejaVuSans-65" x="1543.841797"/>
     <use xlink:href="#DejaVuSans-6e" x="1605.365234"/>
     <use xlink:href="#DejaVuSans-74" x="1668.744141"/>
    </g>
   </g>
   <g id="legend_1">
    <g id="line2d_16">
     <path d="M 40.168125 303.490394 
L 48.168125 303.490394 
L 56.168125 303.490394 
" style="fill: none; stroke: #f0ad4e; stroke-linecap: square"/>
    </g>
    <g id="text_16">
     <!-- BG11_control_t0_r1_T1 -->
     <g transform="translate(62.568125 306.290394) scale(0.08 -0.08)">
      <defs>
       <path id="DejaVuSans-42" d="M 1259 2228 
L 1259 519 
L 2272 519 
Q 2781 519 3026 730 
Q 3272 941 3272 1375 
Q 3272 1813 3026 2020 
Q 2781 2228 2272 2228 
L 1259 2228 
z
M 1259 4147 
L 1259 2741 
L 2194 2741 
Q 2656 2741 2882 2914 
Q 3109 3088 3109 3444 
Q 3109 3797 2882 3972 
Q 2656 4147 2194 4147 
L 1259 4147 
z
M 628 4666 
L 2241 4666 
Q 2963 4666 3353 4366 
Q 3744 4066 3744 3513 
Q 3744 3084 3544 2831 
Q 3344 2578 2956 2516 
Q 3422 2416 3680 2098 
Q 3938 1781 3938 1306 
Q 3938 681 3513 340 
Q 3088 0 2303 0 
L 628 0 
L 628 4666 
z
" transform="scale(0.015625)"/>
       <path id="DejaVuSans-5f" d="M 3263 -1063 
L 3263 -1509 
L -63 -1509 
L -63 -1063 
L 3263 -1063 
z
" transform="scale(0.015625)"/>
       <path id="DejaVuSans-6c" d="M 603 4863 
L 1178 4863 
L 1178 0 
L 603 0 
L 603 4863 
z
" transform="scale(0.015625)"/>
       <path id="DejaVuSans-54" d="M -19 4666 
L 3928 4666 
L 3928 4134 
L 2272 4134 
L 2272 0 
L 1638 0 
L 1638 4134 
L -19 4134 
L -19 4666 
z
" transform="scale(0.015625)"/>
      </defs>
      <use xlink:href="#DejaVuSans-42"/>
      <use xlink:href="#DejaVuSans-47" x="66.853516"/>
      <use xlink:href="#DejaVuSans-31" x="144.34375"/>
      <use xlink:href="#DejaVuSans-31" x="207.966797"/>
      <use xlink:href="#DejaVuSans-5f" x="271.589844"/>
      <use xlink:href="#DejaVuSans-63" x="321.589844"/>
      <use xlink:href="#DejaVuSans-6f" x="376.570312"/>
      <use xlink:href="#DejaVuSans-6e" x="437.751953"/>
      <use xlink:href="#DejaVuSans-74" x="501.130859"/>
      <use xlink:href="#DejaVuSans-72" x="540.339844"/>
      <use xlink:href="#DejaVuSans-6f" x="579.203125"/>
      <use xlink:href="#DejaVuSans-6c" x="640.384766"/>
      <use xlink:href="#DejaVuSans-5f" x="668.167969"/>
      <use xlink:href="#DejaVuSans-74" x="718.167969"/>
      <use xlink:href="#DejaVuSans-30" x="757.376953"/>
      <use xlink:href="#DejaVuSans-5f" x="821"/>
      <use xlink:href="#DejaVuSans-72" x="871"/>
      <use xlink:href="#DejaVuSans-31" x="912.113281"/>
      <use xlink:href="#DejaVuSans-5f" x="975.736328"/>
      <use xlink:href="#DejaVuSans-54" x="1025.736328"/>
      <use xlink:href="#DejaVuSans-31" x="1086.820312"/>
     </g>
    </g>
    <g id="line2d_17">
     <path d="M 40.168125 315.455394 
L 48.168125 315.455394 
L 56.168125 315.455394 
" style="fill: none; stroke: #f0ad4e; stroke-linecap: square"/>
    </g>
    <g id="text_17">
     <!-- BG11_control_t0_r2_T1 -->
     <g transform="translate(62.568125 318.255394) scale(0.08 -0.08)">
      <use xlink:href="#DejaVuSans-42"/>
      <use xlink:href="#DejaVuSans-47" x="66.853516"/>
      <use xlink:href="#DejaVuSans-31" x="144.34375"/>
      <use xlink:href="#DejaVuSans-31" x="207.966797"/>
      <use xlink:href="#DejaVuSans-5f" x="271.589844"/>
      <use xlink:href="#DejaVuSans-63" x="321.589844"/>
      <use xlink:href="#DejaVuSans-6f" x="376.570312"/>
      <use xlink:href="#DejaVuSans-6e" x="437.751953"/>
      <use xlink:href="#DejaVuSans-74" x="501.130859"/>
      <use xlink:href="#DejaVuSans-72" x="540.339844"/>
      <use xlink:href="#DejaVuSans-6f" x="579.203125"/>
      <use xlink:href="#DejaVuSans-6c" x="640.384766"/>
      <use xlink:href="#DejaVuSans-5f" x="668.167969"/>
      <use xlink:href="#DejaVuSans-74" x="718.167969"/>
      <use xlink:href="#DejaVuSans-30" x="757.376953"/>
      <use xlink:href="#DejaVuSans-5f" x="821"/>
      <use xlink:href="#DejaVuSans-72" x="871"/>
      <use xlink:href="#DejaVuSans-32" x="912.113281"/>
      <use xlink:href="#DejaVuSans-5f" x="975.736328"/>
      <use xlink:href="#DejaVuSans-54" x="1025.736328"/>
      <use xlink:href="#DejaVuSans-31" x="1086.820312"/>
     </g>
    </g>
    <g id="line2d_18">
     <path d="M 276.700938 303.490394 
L 284.700938 303.490394 
L 292.700938 303.490394 
" style="fill: none; stroke: #f0ad4e; stroke-linecap: square"/>
    </g>
    <g id="text_18">
     <!-- BG11_control_t8_r1_T1 -->
     <g transform="translate(299.100937 306.290394) scale(0.08 -0.08)">
      <use xlink:href="#DejaVuSans-42"/>
      <use xlink:href="#DejaVuSans-47" x="66.853516"/>
      <use xlink:href="#DejaVuSans-31" x="144.34375"/>
      <use xlink:href="#DejaVuSans-31" x="207.966797"/>
      <use xlink:href="#DejaVuSans-5f" x="271.589844"/>
      <use xlink:href="#DejaVuSans-63" x="321.589844"/>
      <use xlink:href="#DejaVuSans-6f" x="376.570312"/>
      <use xlink:href="#DejaVuSans-6e" x="437.751953"/>
      <use xlink:href="#DejaVuSans-74" x="501.130859"/>
      <use xlink:href="#DejaVuSans-72" x="540.339844"/>
      <use xlink:href="#DejaVuSans-6f" x="579.203125"/>
      <use xlink:href="#DejaVuSans-6c" x="640.384766"/>
      <use xlink:href="#DejaVuSans-5f" x="668.167969"/>
      <use xlink:href="#DejaVuSans-74" x="718.167969"/>
      <use xlink:href="#DejaVuSans-38" x="757.376953"/>
      <use xlink:href="#DejaVuSans-5f" x="821"/>
      <use xlink:href="#DejaVuSans-72" x="871"/>
      <use xlink:href="#DejaVuSans-31" x="912.113281"/>
      <use xlink:href="#DejaVuSans-5f" x="975.736328"/>
      <use xlink:href="#DejaVuSans-54" x="1025.736328"/>
      <use xlink:href="#DejaVuSans-31" x="1086.820312"/>
     </g>
    </g>
    <g id="line2d_19">
     <path d="M 276.700938 315.455394 
L 284.700938 315.455394 
L 292.700938 315.455394 
" style="fill: none; stroke: #f0ad4e; stroke-linecap: square"/>
    </g>
    <g id="text_19">
     <!-- BG11_control_t8_r2_T1 -->
     <g transform="translate(299.100937 318.255394) scale(0.08 -0.08)">
      <use xlink:href="#DejaVuSans-42"/>
      <use xlink:href="#DejaVuSans-47" x="66.853516"/>
      <use xlink:href="#DejaVuSans-31" x="144.34375"/>
      <use xlink:href="#DejaVuSans-31" x="207.966797"/>
      <use xlink:href="#DejaVuSans-5f" x="271.589844"/>
      <use xlink:href="#DejaVuSans-63" x="321.589844"/>
      <use xlink:href="#DejaVuSans-6f" x="376.570312"/>
      <use xlink:href="#DejaVuSans-6e" x="437.751953"/>
      <use xlink:href="#DejaVuSans-74" x="501.130859"/>
      <use xlink:href="#DejaVuSans-72" x="540.339844"/>
      <use xlink:href="#DejaVuSans-6f" x="579.203125"/>
      <use xlink:href="#DejaVuSans-6c" x="640.384766"/>
      <use xlink:href="#DejaVuSans-5f" x="668.167969"/>
      <use xlink:href="#DejaVuSans-74" x="718.167969"/>
      <use xlink:href="#DejaVuSans-38" x="757.376953"/>
      <use xlink:href="#DejaVuSans-5f" x="821"/>
      <use xlink:href="#DejaVuSans-72" x="871"/>
      <use xlink:href="#DejaVuSans-32" x="912.113281"/>
      <use xlink:href="#DejaVuSans-5f" x="975.736328"/>
      <use xlink:href="#DejaVuSans-54" x="1025.736328"/>
      <use xlink:href="#DejaVuSans-31" x="1086.820312"/>
     </g>
    </g>
    <g id="line2d_20">
     <path d="M 513.23375 303.490394 
L 521.23375 303.490394 
L 529.23375 303.490394 
" style="fill: none; stroke: #f0ad4e; stroke-linecap: square"/>
    </g>
    <g id="text_20">
     <!-- Lys_t0_r1_T1 -->
     <g transform="translate(535.63375 306.290394) scale(0.08 -0.08)">
      <defs>
       <path id="DejaVuSans-4c" d="M 628 4666 
L 1259 4666 
L 1259 531 
L 3531 531 
L 3531 0 
L 628 0 
L 628 4666 
z
" transform="scale(0.015625)"/>
       <path id="DejaVuSans-79" d="M 2059 -325 
Q 1816 -950 1584 -1140 
Q 1353 -1331 966 -1331 
L 506 -1331 
L 506 -850 
L 844 -850 
Q 1081 -850 1212 -737 
Q 1344 -625 1503 -206 
L 1606 56 
L 191 3500 
L 800 3500 
L 1894 763 
L 2988 3500 
L 3597 3500 
L 2059 -325 
z
" transform="scale(0.015625)"/>
      </defs>
      <use xlink:href="#DejaVuSans-4c"/>
      <use xlink:href="#DejaVuSans-79" x="46.587891"/>
      <use xlink:href="#DejaVuSans-73" x="105.767578"/>
      <use xlink:href="#DejaVuSans-5f" x="157.867188"/>
      <use xlink:href="#DejaVuSans-74" x="207.867188"/>
      <use xlink:href="#DejaVuSans-30" x="247.076172"/>
      <use xlink:href="#DejaVuSans-5f" x="310.699219"/>
      <use xlink:href="#DejaVuSans-72" x="360.699219"/>
      <use xlink:href="#DejaVuSans-31" x="401.8125"/>
      <use xlink:href="#DejaVuSans-5f" x="465.435547"/>
      <use xlink:href="#DejaVuSans-54" x="515.435547"/>
      <use xlink:href="#DejaVuSans-31" x="576.519531"/>
     </g>
    </g>
    <g id="line2d_21">
     <path d="M 513.23375 315.455394 
L 521.23375 315.455394 
L 529.23375 315.455394 
" style="fill: none; stroke: #f0ad4e; stroke-linecap: square"/>
    </g>
    <g id="text_21">
     <!-- Lys_t0_r2_T1 -->
     <g transform="translate(535.63375 318.255394) scale(0.08 -0.08)">
      <use xlink:href="#DejaVuSans-4c"/>
      <use xlink:href="#DejaVuSans-79" x="46.587891"/>
      <use xlink:href="#DejaVuSans-73" x="105.767578"/>
      <use xlink:href="#DejaVuSans-5f" x="157.867188"/>
      <use xlink:href="#DejaVuSans-74" x="207.867188"/>
      <use xlink:href="#DejaVuSans-30" x="247.076172"/>
      <use xlink:href="#DejaVuSans-5f" x="310.699219"/>
      <use xlink:href="#DejaVuSans-72" x="360.699219"/>
      <use xlink:href="#DejaVuSans-32" x="401.8125"/>
      <use xlink:href="#DejaVuSans-5f" x="465.435547"/>
      <use xlink:href="#DejaVuSans-54" x="515.435547"/>
      <use xlink:href="#DejaVuSans-31" x="576.519531"/>
     </g>
    </g>
    <g id="line2d_22">
     <path d="M 708.942813 303.490394 
L 716.942813 303.490394 
L 724.942813 303.490394 
" style="fill: none; stroke: #d9534f; stroke-linecap: square"/>
    </g>
    <g id="text_22">
     <!-- Lys_t8_r1_T1 -->
     <g transform="translate(731.342813 306.290394) scale(0.08 -0.08)">
      <use xlink:href="#DejaVuSans-4c"/>
      <use xlink:href="#DejaVuSans-79" x="46.587891"/>
      <use xlink:href="#DejaVuSans-73" x="105.767578"/>
      <use xlink:href="#DejaVuSans-5f" x="157.867188"/>
      <use xlink:href="#DejaVuSans-74" x="207.867188"/>
      <use xlink:href="#DejaVuSans-38" x="247.076172"/>
      <use xlink:href="#DejaVuSans-5f" x="310.699219"/>
      <use xlink:href="#DejaVuSans-72" x="360.699219"/>
      <use xlink:href="#DejaVuSans-31" x="401.8125"/>
      <use xlink:href="#DejaVuSans-5f" x="465.435547"/>
      <use xlink:href="#DejaVuSans-54" x="515.435547"/>
      <use xlink:href="#DejaVuSans-31" x="576.519531"/>
     </g>
    </g>
    <g id="line2d_23">
     <path d="M 904.651875 303.490394 
L 912.651875 303.490394 
L 920.651875 303.490394 
" style="fill: none; stroke: #f0ad4e; stroke-linecap: square"/>
    </g>
    <g id="text_23">
     <!-- Lys_t8_r2_T1 -->
     <g transform="translate(927.051875 306.290394) scale(0.08 -0.08)">
      <use xlink:href="#DejaVuSans-4c"/>
      <use xlink:href="#DejaVuSans-79" x="46.587891"/>
      <use xlink:href="#DejaVuSans-73" x="105.767578"/>
      <use xlink:href="#DejaVuSans-5f" x="157.867188"/>
      <use xlink:href="#DejaVuSans-74" x="207.867188"/>
      <use xlink:href="#DejaVuSans-38" x="247.076172"/>
      <use xlink:href="#DejaVuSans-5f" x="310.699219"/>
      <use xlink:href="#DejaVuSans-72" x="360.699219"/>
      <use xlink:href="#DejaVuSans-32" x="401.8125"/>
      <use xlink:href="#DejaVuSans-5f" x="465.435547"/>
      <use xlink:href="#DejaVuSans-54" x="515.435547"/>
      <use xlink:href="#DejaVuSans-31" x="576.519531"/>
     </g>
    </g>
   </g>
  </g>
 </g>
 <defs>
  <clipPath id="pb1f8971039">
   <rect x="32.968125" y="31.48286" width="952.495" height="242.5072"/>
  </clipPath>
 </defs>
</svg>
